<?xml version='1.0' encoding='utf-8'?>
<svg xmlns="http://www.w3.org/2000/svg" version="1.1" xmlns="http://www.w3.org/2000/svg" viewBox="0 0 800 800" style="enable-background:new 0 0 800 800;"><g>
		<path style="fill:#3C3C3B;" d="M256.376,484.509c0.042-0.332-0.008-0.691-0.195-1.059c-5.025-9.913-9.228-20.161-12.618-30.744    c-0.459-1.431-2.545-1.863-3.324-0.434l-4.333,7.949c-1.121-8.962-2.986-17.776-5.657-26.438c-0.551-1.787-2.989-1.724-3.567,0    c-2.761,8.23-5.133,16.563-7.121,24.999c-5.149-23.555-10.343-47.101-15.495-70.656c-0.419-1.914-2.965-1.568-3.544,0    c-5.219,14.153-7.749,28.965-9.745,43.85c-1.924-6.483-3.848-12.966-5.772-19.448c-0.623-2.101-3.369-1.485-3.599,0.487    c-1.831,15.668-4.605,31.186-8.26,46.521c-3.683-11.115-7.826-22.058-12.413-32.839c-0.617-1.452-2.986-0.988-3.31,0.433    c-3.519,15.422-7.849,30.623-12.963,45.586c-2.045-2.897-4.09-5.795-6.136-8.692c-0.796-1.127-3.042-1.256-3.32,0.434    c-1.336,8.13-2.672,16.259-4.004,24.389c-14.879,0.004-29.759-0.167-44.634-0.528c-9.227-0.224-18.451-0.526-27.672-0.921    c-3.871-0.166-7.765-0.411-11.664-0.62c-0.091-10.427-0.163-20.855-0.095-31.286c0.069-10.612,0.197-21.225,0.384-31.836    c0.093-5.305,0.164-10.611,0.257-15.916c0.087-5.009,0.692-10.316-0.355-15.238c-0.25-1.175-2.013-1.102-2.305,0    c-1.212,4.564-0.896,9.545-1.003,14.243c-0.12,5.305-0.236,10.61-0.299,15.916c-0.13,10.943-0.188,21.887-0.189,32.83    c-0.001,10.36-0.019,20.735,0.047,31.11c-4.813-0.215-9.627-0.32-14.407-0.085c-1.304,0.064-1.768,2.186-0.327,2.417    c4.863,0.78,9.798,1.304,14.767,1.668c0.087,9.859,0.26,19.716,0.623,29.556c0.074,2.005,3.13,2.023,3.129,0    c-0.006-7.629-0.068-15.258-0.137-22.886c1.548,6.983,3.952,13.684,7.324,20.12c0.658,1.256,2.617,0.921,2.972-0.388    c0.693-2.555,1.665-4.886,2.935-7.099c3.658,15.985,7.312,31.971,10.965,47.957c0.364,1.594,2.756,1.526,3.159,0    c3.125-11.814,6.25-23.629,9.374-35.443c1.877,3.717,3.908,7.344,6.103,10.895c0.777,1.258,2.568,0.944,3.027-0.396    c1.78-5.188,3.559-10.375,5.339-15.563c4.023,7.714,8.046,15.427,12.07,23.141c0.634,1.217,2.9,1.062,3.122-0.408    c1.43-9.473,2.854-18.946,4.276-28.42c2.729,3.519,5.46,7.037,8.181,10.563c0.803,1.041,2.946,1.262,3.228-0.422    c1.648-9.842,3.277-19.686,4.899-29.532c2.547-0.005,5.094-0.002,7.641-0.018c38.235-0.238,76.455-1.7,114.6-4.324    C258.509,487.786,258.538,484.405,256.376,484.509z M126.404,517.09c-2.834-3.634-5.666-7.269-8.495-10.908    c-0.765-0.984-2.728-0.462-2.911,0.769c-1.353,9.092-2.701,18.185-4.047,27.278l-11.512-21.905    c-0.706-1.343-2.6-0.879-3.037,0.397c-1.809,5.284-3.619,10.567-5.429,15.85c-2.228-3.806-4.283-7.698-6.16-11.7    c-0.618-1.318-2.678-0.902-3.02,0.395c-2.929,11.105-5.858,22.211-8.786,33.316c-3.452-15.061-6.905-30.122-10.353-45.184    c-0.343-1.5-2.2-1.42-2.972-0.388c-1.77,2.364-3.129,4.807-4.174,7.447c-3.446-6.844-5.94-14.044-7.442-21.569    c12.117,0.662,24.385,0.525,36.324,0.826c15.345,0.388,30.696,0.572,46.046,0.572C129.083,500.552,127.74,508.821,126.404,517.09z     M138.306,488.827c0.31-4.642,0.193-9.398-0.174-14.015c-0.043-0.542-0.8-0.543-0.844,0c-0.368,4.618-0.485,9.374-0.174,14.018    c-0.818,0.001-1.636,0.005-2.453,0.007c1.056-6.415,2.11-12.831,3.163-19.248l2.909,4.12c-0.318,3.561,0.048,7.4,0.185,10.81    c0.075,1.863,0.234,3.239,1.269,4.297C140.893,488.823,139.599,488.825,138.306,488.827z M142.925,488.813    c-1.251-2.278-0.387-7.35-0.356-9.343c0.016-1.003,0.06-2.02,0.085-3.039l0.805,1.14c0.606,0.858,1.617,1.047,2.393,0.647    c0.136,1.207,0.298,2.408,0.409,3.572c0.221,2.329,0.447,4.66,0.751,6.98C145.649,488.782,144.287,488.803,142.925,488.813z     M148.264,488.756c-0.087-2.751-0.298-5.503-0.496-8.248c-0.125-1.728-0.143-3.506-0.349-5.242    c1.358-3.928,2.655-7.875,3.903-11.836c-0.654,8.32-0.123,17.099,0.49,25.279C150.63,488.722,149.447,488.744,148.264,488.756z     M152.941,488.693c0.739-9.849,1.377-20.583-0.061-30.305c0.799-2.641,1.564-5.291,2.315-7.945    c-0.021,5.888,0.384,11.832,0.612,17.663c0.248,6.336-0.499,14.255,1.304,20.522C155.721,488.647,154.331,488.676,152.941,488.693    z M158.312,488.608c0.532-2.934,0.235-6.035,0.194-9.005c-0.058-4.152-0.153-8.305-0.285-12.456    c-0.244-7.691-0.188-15.57-1.242-23.199c0.753-2.824,1.477-5.656,2.178-8.495c2.871,17.598,1.488,35.406,3.561,53.073    C161.249,488.553,159.78,488.586,158.312,488.608z M164.13,488.501c0.479-9.523-0.143-19.23-0.573-28.74    c-0.315-6.974-0.708-13.978-1.742-20.887c2.247,5.716,4.357,11.484,6.353,17.293c-0.678,6.494-0.736,13.087-0.84,19.601    c-0.051,3.174-1.794,10.98,1.87,12.624C167.509,488.428,165.819,488.469,164.13,488.501z M169.94,488.376    c0.093-0.055,0.177-0.128,0.238-0.238c0.085-0.155,0.171-0.31,0.256-0.465c0.097-0.176,0.022-0.466-0.205-0.504    c-1.29-0.214-0.7-16.119-0.33-25.867c0.586,1.782,1.171,3.564,1.733,5.354c0.111,0.355,0.326,0.624,0.58,0.836    c-0.683,6.656,0.318,14.044,0.993,20.654c0.006,0.057,0.025,0.103,0.044,0.149C172.146,488.322,171.043,488.352,169.94,488.376z     M174.162,488.273c0.011-0.041,0.026-0.079,0.027-0.127c0.169-6.488,0.572-13.741-0.501-20.228c0.651-0.081,1.25-0.476,1.45-1.262    c1.257-4.929,2.41-9.88,3.478-14.846c-0.391,12.093-0.225,24.319,0.436,36.321C177.422,488.175,175.792,488.235,174.162,488.273z     M180.369,488.094c0.821-14.929,0.884-30.207,0.049-45.137c0.778-4.052,1.49-8.115,2.149-12.188    c0.96,19.057,1.434,38.122,2.368,57.181C183.413,487.994,181.892,488.053,180.369,488.094z M186.444,487.902    c0.626-21.411-0.511-43.068-2.031-64.437c1.438,4.869,2.875,9.738,4.313,14.607c-0.199,0.146-0.332,0.37-0.294,0.692    c1.008,8.599,1.544,16.983,1.519,25.645c-0.022,7.796-0.168,15.643,1.308,23.329C189.653,487.789,188.049,487.853,186.444,487.902    z M192.296,487.701c-0.436-8.398-0.27-16.737-0.087-25.143c0.143-6.545,0.271-13.377-0.974-19.88    c0.939,0.051,1.952-0.648,2.1-1.811c0.222-1.741,0.445-3.482,0.673-5.222c0.098,7.821,0.25,15.642,0.364,23.463    c0.076,5.22,0.155,10.438,0.29,15.657c0.108,4.178-0.521,8.939,1.214,12.806C194.683,487.611,193.49,487.662,192.296,487.701z     M196.22,487.557c0.004-0.008,0.013-0.013,0.016-0.021c1.666-4.13,0.745-9.352,0.686-13.751    c-0.071-5.22-0.208-10.438-0.337-15.657c-0.258-10.437-0.446-20.879-0.797-31.313c-0.012-0.369-0.204-0.611-0.451-0.753    c1.043-7.029,2.284-14.017,3.938-20.911c0.195,5.06,0.694,10.161,0.868,15.14c0.263,7.5,0.489,15.002,0.636,22.505    c0.29,14.758-0.646,29.844,0.5,44.567C199.593,487.427,197.906,487.499,196.22,487.557z M202.532,487.316    c1.687-14.923,0.74-30.538,0.464-45.498c-0.144-7.83-0.364-15.658-0.689-23.483c-0.278-6.678-0.12-13.686-1.145-20.323    c0.246-0.848,0.488-1.696,0.75-2.54c1.398,6.398,2.791,12.797,4.186,19.196c-0.26,0.157-0.459,0.419-0.471,0.814    c-0.745,23.827-0.36,47.871,1.214,71.657C205.404,487.198,203.968,487.262,202.532,487.316z M208.383,487.078    c-0.385-21.712-0.628-43.399-0.694-65.109c1.651,7.579,3.312,15.156,4.967,22.734c-0.124,14.09-0.944,28.159-1.157,42.24    C210.46,486.986,209.421,487.035,208.383,487.078z M212.578,486.896c1.644-11.594,1.939-23.471,1.602-35.216    c0.803,3.672,1.604,7.343,2.406,11.015c-0.012,0.048-0.033,0.092-0.035,0.144c-0.339,7.764,0.75,15.996,1.631,23.805    C216.314,486.729,214.446,486.817,212.578,486.896z M219.507,486.585c-0.1-5.694-0.133-11.608-0.644-17.355    c0.75,0.266,1.673,0.095,2.174-0.521c-0.041,6.09,0.614,12.506,2.263,17.685C222.036,486.454,220.772,486.527,219.507,486.585z     M224.139,486.352c0.16-4.363-0.604-8.81-0.788-13.179c-0.186-4.431,0.053-8.878-0.195-13.3c0.972-4.153,2.044-8.28,3.199-12.384    c-0.079,12.87,0.543,25.919,1.427,38.675C226.567,486.224,225.354,486.293,224.139,486.352z M229.014,486.1    c0.27-14.721,0.171-29.811-0.93-44.515c0.096-0.313,0.185-0.627,0.282-0.94c2.045,7.646,3.491,15.404,4.311,23.295    c-0.388,7.244,0.066,14.75,0.925,21.916C232.072,485.936,230.543,486.023,229.014,486.1z M234.884,485.788    c-0.156-5.931-0.157-11.853-0.196-17.777c0.608,0.065,1.231-0.183,1.616-0.891c0.801-1.473,1.602-2.945,2.403-4.418    c-0.545,7.454,0.1,15.47,0.485,22.777c0.001,0.027,0.013,0.046,0.017,0.07C237.767,485.629,236.326,485.711,234.884,485.788z     M240.225,485.493c0-0.005,0.003-0.009,0.003-0.014c0.439-8.347,1.216-17.605,0.177-25.901c0.334-0.614,0.668-1.228,1.002-1.842    c0.581,1.69,1.189,3.369,1.812,5.042c-0.106,7.462,0.583,15.022,0.61,22.499C242.627,485.346,241.426,485.427,240.225,485.493z     M245.302,468.174c0.78,1.935,1.599,3.854,2.435,5.766c-0.487,3.646-0.063,7.445,0.628,11.064    c-1.177,0.069-2.353,0.144-3.53,0.212C245.262,479.711,245.606,473.858,245.302,468.174z M249.346,484.945    c-0.261-2.674-0.26-5.319-0.267-7.983c1.191,2.613,2.431,5.206,3.727,7.775C251.653,484.814,250.499,484.876,249.346,484.945z" />
	</g>
	</svg>