<?xml version='1.0' encoding='utf-8'?>
<svg xmlns="http://www.w3.org/2000/svg" version="1.1" xmlns="http://www.w3.org/2000/svg" viewBox="0 0 800 800" style="enable-background:new 0 0 800 800;"><g>
		<path style="fill:#3C3C3B;" d="M699.129,152.575c-3.074-12.557-8.469-25.188-18.712-33.54    c-19.391-15.812-49.506-14.945-70.726-3.409c-24.067,13.082-33.323,40.8-28.082,66.851c5.473,27.202,31.091,54.076,60.743,49.487    c0.392,0.294,0.904,0.448,1.506,0.339c12.802-2.326,26.151-5.817,36.913-13.445c9.934-7.041,16.491-17.391,19.255-29.199    C702.871,177.511,702.079,164.625,699.129,152.575z M673.013,118.712c8.2,5,14.172,12.822,18.203,21.815    c-0.045,0.011-0.087,0.004-0.133,0.019c-3.65,1.256-6.91,3.709-10.16,5.763c-3.636,2.297-7.222,4.709-10.704,7.234    c-2.848-5.585-7.168-10.375-12.977-13.586c-6.009-3.322-12.681-4.651-19.19-4.101c-0.578-8.151-1.659-16.288-3.248-24.303    C648.061,109.79,661.845,111.903,673.013,118.712z M606.495,122.186c7.2-4.945,15.77-8.377,24.716-10.052    c0.943,8.087,2.379,16.123,4.316,24.031c-5.828,0.939-11.436,3.401-16.212,7.336c-2.506,2.065-4.649,4.432-6.456,6.997    c-7.021-4.124-14.036-8.238-21.32-11.884C595.151,132.224,600.105,126.575,606.495,122.186z M593.999,203.025    c-2.71-4.287-4.889-8.922-6.484-13.746c-5.206-15.745-4.541-33.722,2.772-48.322c6.653,4.559,13.578,8.668,20.516,12.774    c-4.718,8.502-5.894,18.755-3.038,28.425c0.869,2.942,2.195,5.919,3.892,8.753c-5.9,3.363-11.565,7.525-17.14,11.39    C594.255,202.482,594.089,202.741,593.999,203.025z M642.867,228.71c-0.225,0.051-0.41,0.135-0.576,0.233    c-12.021-0.468-23.45-3.21-33.466-10.204c-5.351-3.737-9.888-8.458-13.559-13.793c0.105-0.017,0.213-0.045,0.328-0.093    c6.335-2.669,12.875-6.356,17.882-11.168c6.355,8.926,16.412,15.645,27.178,13.739c0.555,5.861,1.075,11.729,1.832,17.566    c0.139,1.074,0.202,2.501,0.584,3.673C643.003,228.679,642.935,228.695,642.867,228.71z M642.89,203.888    c-0.482,0.078-0.821,0.339-1.039,0.683c-17.001,0.268-30.389-13.543-31.795-30.372c-1.286-15.399,8.919-30.423,24.159-34.013    c17.233-4.059,33.318,8.262,35.873,25.288c1.263,8.416-0.492,17.206-4.697,24.581c-2.091,3.666-4.829,7.338-8.405,9.687    C652.807,202.488,647.709,203.105,642.89,203.888z M679.772,214.631c-9.44,7.137-20.889,10.374-32.269,13.022    c-0.223-0.342-0.558-0.617-0.927-0.685c-0.089-0.016-0.172-0.025-0.257-0.035c0.14-0.326,0.2-0.747,0.182-0.694    c0.285-0.858-0.49-3.612-0.606-4.394c-0.707-4.771-1.561-9.525-2.387-14.278c7.775-1.007,14.918-2.752,20.366-8.758    c1.47-1.621,2.778-3.383,3.951-5.234c3.55,1.528,7.11,3.032,10.661,4.556c3.754,1.611,7.37,3.743,11.262,4.975    c0.141,0.045,0.274,0.066,0.402,0.077C687.453,207.526,684.017,211.422,679.772,214.631z M697.433,181.029    c-0.71,6.982-2.648,13.743-5.901,19.767c-0.117-0.245-0.292-0.471-0.537-0.648c-6.034-4.353-14.323-7.144-21.691-9.105    c2.163-4.029,3.673-8.418,4.438-12.899c1.293-7.579,0.449-15.476-2.494-22.382c0.061-0.022,0.123-0.043,0.186-0.076    c3.83-1.964,7.604-4.075,11.299-6.281c3.228-1.928,6.83-3.697,9.575-6.292C697.139,155.241,698.642,169.133,697.433,181.029z" />
		<path style="fill:#3C3C3B;" d="M600.048,112.843c-5.698-7.85-12.133-15.288-18.18-22.878c-0.092-0.115-0.194-0.203-0.301-0.28    c-0.031-0.308-0.107-0.623-0.227-0.932c0.03-1.356-0.763-2.745-1.98-3.457c-1.875-1.097-4.171-0.154-5.183,1.644    c-1.033,1.835-0.723,4.343,1.248,5.407c1.205,0.65,2.645,0.484,3.812-0.167c5.815,7.636,12.006,15.472,19.002,22.057    C599.146,115.092,600.847,113.945,600.048,112.843z" />
		<path style="fill:#3C3C3B;" d="M710.505,83.897c-0.831,0.17-1.594,0.607-2.203,1.2c-1.103,0.794-1.813,2.072-1.831,3.581    c-0.002,0.175,0.032,0.336,0.051,0.503c-6.668,7.794-13.757,15.549-19.61,23.945c-0.847,1.215,0.99,2.524,2.002,1.544    c7.088-6.864,13.383-14.786,19.767-22.355c0.735,0.408,1.586,0.636,2.458,0.625c2.568-0.032,4.752-2.082,4.565-4.727    C715.517,85.567,713.242,83.338,710.505,83.897z M711.949,89.209c0.155-0.687,0.062-1.409-0.321-1.97    c0.08,0.037,0.161,0.077,0.24,0.147C712.439,87.882,712.447,88.734,711.949,89.209z" />
		<path style="fill:#3C3C3B;" d="M744.273,167.506c-0.813-0.254-1.829-0.348-2.484,0.307c-0.484,0.484-0.825,1.154-1.066,1.808    c-0.076-0.027-0.154-0.05-0.239-0.064c-5.055-0.787-10.387-0.273-15.493-0.161c-5.643,0.124-11.304,0.228-16.941,0.515    c-1.571,0.08-1.574,2.363,0,2.443c5.636,0.288,11.299,0.392,16.941,0.515c4.699,0.103,9.562,0.534,14.247-0.005    c0.146,1.375,1.147,2.636,2.629,3.149c2.222,0.768,4.846-0.256,5.615-2.552C748.289,171.047,746.642,168.245,744.273,167.506z" />
		<path style="fill:#3C3C3B;" d="M703.283,253.82c-1.213-2.621-4.427-3.341-6.51-1.697c-5.814-8.365-11.763-16.863-18.321-24.661    c-0.885-1.052-2.556,0.301-1.877,1.449c5.143,8.697,11.165,17.06,17.086,25.243c0.131,0.181,0.281,0.318,0.439,0.436    c-0.066,0.17-0.12,0.341-0.155,0.506c-0.587,2.827,1.882,5.666,4.729,5.589C702.136,260.592,704.807,257.112,703.283,253.82z     M700.098,256.065c-0.027-0.109-0.058-0.219-0.104-0.332c-0.193-0.474-0.484-0.809-0.876-1.011    c0.073-0.037,0.155-0.058,0.256-0.052C700.137,254.712,700.275,255.44,700.098,256.065z" />
		<path style="fill:#3C3C3B;" d="M606.712,226.078c-3.64,2.762-6.829,6.053-9.633,9.657c-1.947,2.502-4.581,5.544-5.707,8.739    c-0.647,0.055-1.263,0.31-1.771,0.705c-1.648,0.731-2.37,2.897-1.564,4.525c1.057,2.134,3.925,2.348,5.633,0.891    c1.252-1.067,1.464-2.846,0.805-4.232c1.981-2.394,3.331-5.732,5.047-8.188c2.581-3.694,5.512-7.06,8.447-10.469    C608.679,226.882,607.713,225.319,606.712,226.078z" />
		<path style="fill:#3C3C3B;" d="M574.702,169.968c-9.509-0.496-18.947-0.88-28.413-1.852c-0.007-0.068-0.008-0.136-0.019-0.203    c-0.479-3.198-4.449-4.685-6.879-2.453c-0.402,0.369-0.667,0.779-0.836,1.201c-1.565,2.379-0.321,5.827,2.528,6.592    c1.725,0.464,3.206-0.24,4.15-1.446c9.721,1.232,19.714,1.772,29.468,0.815C576.382,172.457,576.435,170.058,574.702,169.968z" />
		<path style="fill:#3C3C3B;" d="M737.37,68.714c-0.328-0.878-1.053-1.281-1.979-1.124c-0.597,0.102-0.953,0.434-1.237,0.946    c-0.164,0.294-0.204,0.609-0.152,0.91c-0.44,0.875-1.277,1.771-1.75,2.465l-2.511,3.684c-1.672,2.453-3.41,4.871-4.936,7.418    c-0.725,1.209,1.052,2.676,2.002,1.544c2.348-2.798,4.452-5.805,6.632-8.733C734.755,74.054,738.288,71.173,737.37,68.714z" />
		<path style="fill:#3C3C3B;" d="M725.788,68.243c-0.058-0.018-0.122-0.014-0.182-0.028c0.313-0.693,0.055-1.644-0.899-1.526    c-1.762,0.218-2.845,1.604-2.936,3.349c-0.088,1.703,1.175,4.067,3.189,3.795C727.434,73.497,728.475,69.067,725.788,68.243z" />
		<path style="fill:#3C3C3B;" d="M741.612,81.522c-0.305-0.682-1.208-0.908-1.868-0.76c-0.433,0.097-0.835,0.284-1.212,0.511    c-0.858-0.155-1.818,0.121-2.49,0.671c-1.323,1.082-1.233,3.082-0.046,4.232c1.299,1.258,3.367,1.422,4.758,0.219    C742.178,85.163,742.342,83.157,741.612,81.522z" />
		<path style="fill:#3C3C3B;" d="M768.596,164.228c-2.563,0.5-4.31,3.943-5.878,5.871c-1.916,2.356-3.872,4.683-5.688,7.118    c-0.853,1.144,0.98,2.482,1.946,1.502c2.274-2.306,4.404-4.756,6.579-7.156c1.639-1.808,4.32-3.709,4.421-6.284    C770.005,164.525,769.259,164.099,768.596,164.228z" />
		<path style="fill:#3C3C3B;" d="M759.666,163.668c0.055-0.536-0.236-1.081-0.914-1.009c-2.018,0.214-3.783,1.772-3.28,3.962    c0.502,2.185,3.229,3.312,4.938,1.678C761.844,166.929,761.582,164.352,759.666,163.668z" />
		<path style="fill:#3C3C3B;" d="M772.11,175.13c-0.738-0.688-2.07-1.146-3.007-0.598c-0.387,0.226-0.702,0.575-0.938,0.98    c-0.082,0.047-0.167,0.088-0.243,0.152c-1.41,1.184-1.021,3.338,0.168,4.527c1.394,1.394,3.718,1.236,4.758-0.496    C773.711,178.259,773.307,176.246,772.11,175.13z" />
		<path style="fill:#3C3C3B;" d="M724.353,260.232c-0.153-0.672-0.832-1.116-1.49-1.134c-0.803-0.023-1.205,0.304-1.667,0.926    c-0.169,0.228-0.21,0.49-0.177,0.748c-0.641,0.767-1.826,1.521-2.452,2.102c-1.162,1.079-2.333,2.147-3.505,3.214    c-2.342,2.132-4.733,4.217-7.019,6.409c-0.981,0.94,0.353,2.788,1.491,1.933c3.191-2.398,6.235-4.997,9.284-7.571    C720.682,265.283,725.009,263.117,724.353,260.232z" />
		<path style="fill:#3C3C3B;" d="M713.745,259.401c-0.762-0.738-1.879-0.481-2.601,0.167c-0.544-0.054-1.102-0.005-1.53,0.258    c-0.771,0.475-0.948,1.665-0.72,2.475c0.497,1.76,2.593,2.776,4.188,1.727C714.54,263.069,715.093,260.707,713.745,259.401z" />
		<path style="fill:#3C3C3B;" d="M723.05,271.156c-2.075,0.263-3.25,2.673-2.405,4.523c-0.134,0.587,0.16,1.24,0.67,1.596    c1.788,1.25,4.526,0.344,5.238-1.693C727.32,273.386,725.379,270.861,723.05,271.156z" />
		<path style="fill:#3C3C3B;" d="M563.56,72.113c-2.402,1.78-3.791,4.829-5.384,7.327c-1.93,3.027-3.946,6.041-5.684,9.181    c-0.606,1.094,0.956,2.45,1.808,1.395c2.078-2.573,3.956-5.326,5.88-8.015c1.833-2.562,4.533-5.334,5.316-8.399    C565.756,72.586,564.533,71.391,563.56,72.113z" />
		<path style="fill:#3C3C3B;" d="M554.073,74.278c-0.324-0.185-0.646-0.278-0.968-0.328c-0.041-0.494-0.385-0.951-1.014-0.938    c-1.441,0.03-2.598,1.08-2.836,2.504c-0.28,1.679,0.879,3.141,2.542,3.387c1.521,0.226,3.623-0.687,3.594-2.479    C555.377,75.558,554.819,74.703,554.073,74.278z" />
		<path style="fill:#3C3C3B;" d="M567.149,81.839c-0.086-0.024-0.177-0.041-0.269-0.054c-0.268-0.305-0.678-0.499-1.132-0.413    c-1.539,0.294-2.371,1.851-2.261,3.324c0.132,1.759,1.306,3.097,3.091,3.24c0.544,0.043,1.042-0.328,1.322-0.758    c0.553-0.851,1.028-1.854,0.98-2.896C568.831,83.219,568.223,82.137,567.149,81.839z" />
		<path style="fill:#3C3C3B;" d="M526.454,159.821c-2.018,1.435-3.212,3.958-4.604,5.984c-1.668,2.427-3.366,4.834-4.961,7.309    c-0.769,1.193,1.101,2.697,2.002,1.544c1.686-2.156,3.29-4.374,4.911-6.578c1.544-2.099,3.824-4.293,4.55-6.8    C528.647,160.263,527.396,159.151,526.454,159.821z" />
		<path style="fill:#3C3C3B;" d="M517.683,159.141c-0.737-0.336-1.537-0.195-2.181,0.22c-0.21-0.026-0.435,0.011-0.661,0.177    c-1.627,1.198-1.919,3.778-0.24,5.111c0.357,0.283,0.844,0.535,1.317,0.348c1.083-0.429,1.975-1.138,2.462-2.22    C518.935,161.547,519.135,159.804,517.683,159.141z" />
		<path style="fill:#3C3C3B;" d="M530.384,169.081c-1.72-1.681-4.626,0.004-4.54,2.241c0.021,0.553,0.308,1.099,0.765,1.395    c0.62,0.818,1.673,1.327,2.743,1.046C531.376,173.23,531.777,170.442,530.384,169.081z" />
		<path style="fill:#3C3C3B;" d="M580.693,256.905c-1.949,0.633-2.89,2.94-3.972,4.573c-1.364,2.058-2.626,4.161-3.743,6.363    c-0.706,1.391,1.247,2.545,2.095,1.224c1.264-1.97,2.527-3.945,3.879-5.857c1.149-1.625,3.083-3.133,3.21-5.185    C582.207,257.289,581.381,256.681,580.693,256.905z" />
		<path style="fill:#3C3C3B;" d="M574.86,256.918c-0.281-0.859-1.014-1.474-1.941-1.49c-0.193-0.003-0.392,0.032-0.585,0.095    c-0.089-0.03-0.179-0.059-0.285-0.065c-1.369-0.074-2.486,1.233-2.519,2.542c-0.042,1.694,1.477,2.962,3.145,2.553    C574.237,260.17,575.378,258.5,574.86,256.918z" />
		<path style="fill:#3C3C3B;" d="M583.928,263.284c-0.72,0.278-1.222,0.922-1.459,1.647c-1.059,1.356-0.737,3.297,0.726,4.251    c1.804,1.177,4.006-0.54,4.41-2.396C588.056,264.717,586.079,262.451,583.928,263.284z" />
	</g>
	</svg>