<?xml version='1.0' encoding='utf-8'?>
<svg xmlns="http://www.w3.org/2000/svg" version="1.1" xmlns="http://www.w3.org/2000/svg" viewBox="0 0 800 800" style="enable-background:new 0 0 800 800;"><g>
		<path style="fill:#3C3C3B;" d="M481.195,296.349c-0.059-0.013-0.113-0.014-0.17-0.022c-0.172-5.032,0.132-10.072,0.525-15.088    c3.748,2.242,6.7,5.125,9.517,8.534c1.077,1.303,3.081-0.178,2.607-1.607c0.388-0.276,0.768-0.563,1.118-0.885    c0.805-0.74,1.787-1.742,2.026-2.836c0.101-0.461-0.017-0.873-0.241-1.201c-0.009-0.057,0.001-0.109-0.018-0.168    c-1.221-3.819-3.34-7.386-6.369-10.052c-1.996-1.757-5.6-4.675-8.593-4.71c1.391-4.419,1.034-9.767,0.556-14.245    c-0.11-1.033-1.042-1.51-1.824-1.382c-2.261-0.656-4.522-0.911-6.894-0.708c-0.797,0.068-1.523,0.634-1.505,1.505    c0.102,4.952,0.034,9.897-0.188,14.843c-2.217-0.192-4.424-0.604-6.56-1.204c-0.22-0.062-0.423-0.073-0.614-0.056    c0.035-0.327,0.072-0.655,0.107-0.982c0.601,0.079,1.006-0.736,0.554-1.177c-0.121-0.118-0.262-0.212-0.391-0.322    c0.122-1.107,0.254-2.214,0.392-3.319c0.172-0.214,0.215-0.544,0.104-0.819c0.232-1.783,0.493-3.561,0.818-5.325    c0.14-0.762-0.245-1.343-0.775-1.64c-0.104-0.097-0.228-0.181-0.399-0.224c-2.679-0.68-5.476-1.366-8.233-1.608    c-0.441-0.039-0.786,0.07-1.045,0.263c-0.472-0.11-1.043,0.169-1.13,0.821c-0.084,0.627-0.172,1.278-0.258,1.939    c-0.494-0.084-0.853,0.595-0.349,0.89c0.074,0.043,0.148,0.088,0.221,0.132c-0.607,4.839-1.072,10.328,0.054,14.888    c-7.195,0.301-12.84,7.284-12.249,14.47c0.533,6.471,6.842,14.045,13.738,14.163c-2.681,6.821-4.053,16.676-2.254,23.707    c-4.658-2.234-7.668-6.975-7.634-12.171c0.01-1.473-2.049-2.054-2.839-1.083c-1.059-0.352-2.22,0.352-3.166,0.814    c-0.863,0.422-1.681,0.927-2.482,1.457c-0.29-0.369-0.617-0.552-0.992-0.435c-4.902,1.526-0.739,11.741,0.878,14.5    c3.271,5.58,8.659,9.79,14.947,11.255c0.144,3.499,0.466,6.989,1.839,10.233c0.249,0.589,0.798,0.76,1.333,0.673    c1.248,0.666,2.554,0.847,4.109,0.911c1.342,0.056,3.144,0.216,4.181-0.854c0.973-1.005,0.784-2.523,0.771-3.796    c-0.017-1.717-0.103-3.423-0.186-5.133c1.9,0.464,3.876,0.57,5.809,0.231c-0.094,0.195-0.182,0.384-0.246,0.561    c-0.313,0.868-0.537,1.73-0.656,2.65c-0.204,1.582-0.586,3.512,0.526,4.771c0.005,0.329,0.149,0.653,0.515,0.852    c1.428,0.775,2.854,1.253,4.491,1.311c1.443,0.051,3.351-0.064,4.349-1.217c0.29-0.335,0.393-0.841,0.289-1.274    c0.048-0.134,0.084-0.28,0.09-0.447c0.081-2.324,0.199-4.661,0.098-6.987c11.559-0.411,25.857-3.859,26.56-17.866    C506.778,307.536,493.565,299.168,481.195,296.349z M499.981,311.516c-9.333-5.744-19.182-10.642-28.602-16.236    c0.328-1.424,0.307-2.949,0.238-4.462c1.87,1.709,3.962,3.39,6.202,4.348c0.106,0.045,0.207,0.063,0.302,0.066    c0.136,1.064,0.294,2.13,0.493,3.203c0.112,0.6,0.602,0.868,1.118,0.885c0.16,0.109,0.346,0.198,0.575,0.25    C487.769,301.27,495.909,305.07,499.981,311.516z M471.505,286.524c0.815,0.532,1.631,1.064,2.447,1.596    c1.03,0.672,2.066,1.571,3.261,1.898c0.209,0.057,0.392-0.006,0.518-0.127c0.018,1.241,0.083,2.482,0.203,3.728    c-2.142-1.574-4.378-2.939-6.406-4.683c-0.013-0.317-0.022-0.632-0.025-0.943C471.498,287.504,471.504,287.014,471.505,286.524z     M471.502,282.173c0.652,0.587,1.315,1.165,2.005,1.71c1.293,1.022,2.718,2.315,4.304,2.814c-0.049,0.784-0.079,1.568-0.084,2.353    c-0.846-0.882-2.112-1.375-3.173-1.963l-3.048-1.688C471.513,284.323,471.513,283.248,471.502,282.173z M483.863,272.695    c1.557,0.812,2.979,1.819,4.301,2.972c0.754,0.658,1.444,1.36,2.103,2.083c-2.893-2.288-6.014-4.328-9.174-6.299    C481.95,271.938,482.944,272.216,483.863,272.695z M479.234,254.68c0.002,0.698-0.03,1.403-0.055,2.107    c-0.792-0.568-1.787-0.919-2.646-1.336c-0.397-0.193-0.794-0.386-1.19-0.578C476.639,254.789,477.936,254.721,479.234,254.68z     M474.94,255.906c0.332,0.188,0.664,0.376,0.996,0.564c1.005,0.569,2.057,1.403,3.202,1.616c-0.05,0.992-0.11,1.986-0.169,2.98    c-0.686-0.365-1.447-0.634-2.111-1.021c-0.68-0.397-1.317-0.856-1.933-1.343C474.938,257.771,474.939,256.838,474.94,255.906z     M474.896,260.139c0.373,0.311,0.743,0.624,1.146,0.903c0.836,0.579,1.817,1.283,2.849,1.506    c-0.032,0.627-0.064,1.254-0.081,1.878c-0.321-0.233-0.651-0.459-0.991-0.694c-0.967-0.667-1.926-1.347-2.921-1.971    c-0.011-0.007-0.022-0.007-0.034-0.013C474.878,261.212,474.885,260.676,474.896,260.139z M474.818,262.981    c0.765,0.667,1.549,1.311,2.331,1.959c0.551,0.457,1.071,0.877,1.644,1.237c0.006,0.861,0.03,1.718,0.101,2.567    c0.044,0.53,0.327,0.897,0.69,1.082c0.044,0.206,0.134,0.411,0.276,0.595c0.237,0.307,0.511,0.552,0.806,0.762    c-2.01-1.249-4.027-2.476-6.015-3.72C474.725,265.969,474.77,264.475,474.818,262.981z M474.516,270.197    c0.145-0.317,0.175-0.674,0.064-0.989c0.007-0.116,0.008-0.232,0.014-0.348c5.596,4.052,11.182,8.414,17.334,11.475    c0.133,0.066,0.271,0.055,0.393,0.006c0.641,0.922,1.245,1.873,1.774,2.888c-0.217,0.251-0.401,0.532-0.578,0.819    c-6.181-4.726-12.642-9.104-19.151-13.373C474.437,270.533,474.493,270.377,474.516,270.197z M472.05,271.115    c0.249,0.229,0.593,0.336,0.943,0.341c3.398,2.651,6.825,5.272,10.299,7.83c-0.756-0.319-1.52-0.612-2.298-0.85    c-0.451-0.138-0.84,0.039-1.091,0.342c-0.033,0.007-0.063,0.023-0.095,0.033c-2.982-2.981-6.822-5.511-10.896-7.712    C469.949,271.169,470.989,271.187,472.05,271.115z M467.039,273.031c3.861,2.324,7.637,5.334,11.753,7.142    c-0.399,1.644-0.666,3.279-0.837,4.91c-1.103-0.865-2.454-1.51-3.589-2.311c-0.989-0.698-1.929-1.455-2.848-2.238    c0.802-0.569,1.081-1.851-0.04-2.395c-1.508-0.732-3.071-1.359-4.636-1.969c-0.001-0.035-0.001-0.07-0.002-0.104    c-0.023-1.556-2.025-1.795-2.666-0.722c-2.662-0.915-4.951-2.269-7.427-3.57c0.005-0.016,0.014-0.028,0.018-0.045    c0.287-1.45,0.311-2.939,0.256-4.435C460.383,269.168,463.738,271.043,467.039,273.031z M468.461,294.014    c-0.253-0.038-0.501-0.086-0.691-0.103c-0.417-0.037-0.833-0.07-1.25-0.091c0.419-4.928,0.426-9.893,0.361-14.841    c0.836,0.481,1.682,0.942,2.539,1.379C468.387,284.352,467.533,289.942,468.461,294.014z M455.759,287.778    c-0.011-0.064-0.017-0.127-0.027-0.191c0.807,0.657,1.961,1.107,2.74,1.518c1.238,0.654,3.028,1.904,4.46,1.526    c0.387-0.102,0.609-0.595,0.383-0.943c-0.829-1.282-2.84-1.609-4.17-2.253c-1.098-0.531-2.366-1.63-3.625-1.617    c-0.089-1.07-0.116-2.139-0.128-3.211c1.095,0.642,2.19,1.284,3.287,1.923c1.431,0.834,2.872,1.933,4.481,2.363    c0.299,0.08,0.587-0.057,0.778-0.273c0.05,2.71,0.165,5.416,0.425,8.111c0.011,0.113,0.036,0.215,0.069,0.309    c-3.396-1.959-6.807-3.893-10.232-5.801C454.961,289.445,455.935,288.82,455.759,287.778z M462.091,262.799    c-0.467-0.252-0.932-0.502-1.381-0.761c-1.332-0.768-2.661-1.551-4.008-2.296c-0.034-0.869-0.083-1.736-0.125-2.604    c1.858,1.139,3.741,2.288,5.681,3.254C462.179,261.195,462.117,261.996,462.091,262.799z M462.296,267.841    c-1.826-0.828-3.633-1.607-5.367-2.341c-0.054-0.905-0.109-1.807-0.127-2.699c-0.01-0.483-0.033-0.962-0.047-1.444    c1.053,0.682,2.115,1.351,3.17,2.026c0.716,0.458,1.427,0.968,2.16,1.437C462.111,265.818,462.178,266.823,462.296,267.841z     M456.747,255.025c2.076,0.248,4.238,0.22,6.356,0.144c-0.254,1.132-0.457,2.254-0.62,3.372c-1.93-1.052-3.98-1.96-5.977-2.874    c-0.013-0.234-0.02-0.469-0.034-0.703C456.561,254.989,456.649,255.014,456.747,255.025z M455.8,273.054    c0.197-0.029,0.348-0.1,0.475-0.19c2.022,2.099,4.94,3.507,7.683,4.404c-0.014,0.976-0.029,1.952-0.04,2.93    c-3.97-2.111-8.133-3.941-12.266-5.767C452.93,273.751,454.331,273.27,455.8,273.054z M450.097,275.417    c4.427,2.393,8.87,4.861,13.453,6.881c0.121,0.053,0.238,0.07,0.353,0.081c-0.004,1.076-0.001,2.152,0.012,3.227    c-0.002-0.001-0.002-0.003-0.004-0.005c-1.298-1.063-3-1.6-4.524-2.284c-1.333-0.598-2.669-1.191-4.004-1.785    c-0.004-0.707-0.009-1.415-0.026-2.127c-0.025-1.048-1.239-1.476-1.948-0.982c-0.957-0.179-1.915-0.046-2.793,0.308    c-0.384-0.126-0.765-0.258-1.125-0.423c-0.546-0.251-1.073-0.533-1.586-0.837C448.539,276.701,449.283,276.016,450.097,275.417z     M453.151,287.359c-1.539-0.256-3.082-1.747-3.073-3.376c0.008-1.532,1.21-2.468,2.536-2.832    C452.424,283.223,452.676,285.329,453.151,287.359z M447.331,278.231c0.61,0.455,1.272,0.893,1.956,1.27    c-0.911,0.685-1.651,1.611-2.051,2.673c-0.415-0.11-0.842-0.177-1.253-0.307c-0.093-0.029-0.175-0.081-0.265-0.116    C446.034,280.478,446.593,279.296,447.331,278.231z M445.485,283.03c0.47,0.211,0.965,0.335,1.454,0.325    c-0.027,0.207-0.042,0.417-0.042,0.628c0,0.472,0.065,0.921,0.18,1.348c-0.556-0.301-1.112-0.604-1.669-0.903    C445.397,283.952,445.431,283.488,445.485,283.03z M455.539,294.782c-3.081-1.811-6.072-3.757-9.039-5.744    c-0.41-0.858-0.735-1.813-0.936-2.911c-0.016-0.085-0.018-0.168-0.032-0.253c1.011,0.639,2.021,1.28,3.036,1.913    c0.481,0.443,1.045,0.793,1.656,1.043c7.629,4.718,15.361,9.273,23.04,13.905c2.071,1.249,4.107,2.537,6.126,3.843    c-0.828-0.077-1.689,0.413-1.649,1.493c0.066,1.786,0.131,3.571,0.203,5.357c-0.017-0.112-0.069-0.225-0.191-0.327    c-1.133-0.954-2.545-1.577-3.837-2.294c-0.379-0.211-0.751-0.432-1.128-0.646c-0.086-1.61-0.188-3.205-0.287-4.767    c-0.088-1.389-1.565-1.839-2.47-1.311c-0.25-0.441-0.707-0.792-1.231-0.73c-0.1,0.012-0.19,0.009-0.283,0.012    c-0.184-0.046-0.367-0.092-0.549-0.144c0.352-0.312,0.38-0.987-0.08-1.333C464.144,299.064,459.59,297.162,455.539,294.782z     M477.713,318.49c-0.912-0.944-2.314-1.45-3.451-2.097c-0.424-0.242-0.848-0.483-1.273-0.725    c-0.019-1.459-0.076-2.916-0.145-4.364c0.101,0.069,0.204,0.134,0.305,0.204c1.247,0.86,2.491,1.925,3.881,2.531    c0.402,0.176,0.882-0.136,0.919-0.503c0.081,2.006,0.173,4.012,0.293,6.016c0.083,1.377,0.01,2.831,0.188,4.192    c-1.662-0.874-3.313-1.721-4.909-2.549c-0.272-0.142-0.512-0.051-0.654,0.123c0.092-1.434,0.128-2.882,0.13-4.333    c0.225,0.139,0.45,0.279,0.674,0.418c1.114,0.691,2.227,1.677,3.494,2.028C477.714,319.581,478.1,318.89,477.713,318.49z     M466.324,317.348c0.026-3.455,0.026-6.91,0.017-10.366c0.849,0.358,1.794,0.5,2.758,0.343c0.091-0.015,0.172-0.042,0.25-0.072    c0.002,0.355,0.006,0.715,0.009,1.072c-0.221,0.087-0.324,0.432-0.062,0.604c0.023,0.015,0.045,0.03,0.068,0.045    c0.057,5.77,0.273,11.794,1.621,17.304c-0.412-0.258-0.827-0.513-1.236-0.776c-0.424-0.272-0.781,0.097-0.776,0.484    c-0.609,0.001-1.216,0.022-1.825,0.044c-0.349,0.012-0.699,0.024-1.049,0.018c-0.144-0.003-0.289-0.005-0.433-0.018    c-0.016-0.001-0.012,0.001-0.014,0.002c-0.02-0.006-0.043-0.014-0.102-0.03c-0.174-0.049-0.333-0.059-0.484-0.048    C466.955,323.587,466.302,320.302,466.324,317.348z M463.16,303.303c-0.002,0.033-0.01,0.061-0.01,0.096    c-0.001,0.204,0,0.409,0,0.613c-0.606-0.258-1.24-0.479-1.795-0.787c-1.209-0.669-2.34-1.501-3.394-2.389    c-0.115-0.097-0.239-0.133-0.361-0.14c0.019-0.641,0.03-1.283,0.024-1.925c1.99,1.232,4.022,2.329,6.077,3.23    c-0.382,0.142-0.706,0.544-0.616,1.003C463.105,303.106,463.134,303.204,463.16,303.303z M460.422,304.393    c0.824,0.565,1.74,1.301,2.727,1.64c0.001,0.755-0.001,1.51-0.001,2.265c-0.497-0.33-0.998-0.621-1.4-0.866    c-1.392-0.849-2.889-1.533-4.428-2.075c0.091-1.101,0.173-2.203,0.229-3.307C458.448,302.904,459.394,303.689,460.422,304.393z     M461.541,308.529c0.55,0.456,1.057,1.086,1.606,1.632c0.001,1.301-0.007,2.603-0.002,3.904c-0.802-0.511-1.661-0.958-2.417-1.431    c-1.277-0.798-2.554-1.595-3.831-2.393c0.118-1.427,0.249-2.854,0.372-4.28C458.811,306.623,460.234,307.447,461.541,308.529z     M460.007,313.866c1.008,0.717,2.028,1.613,3.145,2.234c0.003,0.416,0.001,0.832,0.005,1.247c0.005,0.619-0.021,1.253-0.045,1.889    c-1.02-0.922-2.374-1.553-3.522-2.266c-0.976-0.606-1.959-1.201-2.94-1.797c0.026-1.195,0.056-2.389,0.141-3.571    c0-0.008,0.001-0.016,0.002-0.024C457.864,312.341,458.935,313.104,460.007,313.866z M458.649,317.893    c1.357,1.017,2.78,2.491,4.422,2.964c-0.009,1.789,0.177,3.525,1.234,4.947c-2.675-1.848-5.296-3.772-7.857-5.773    c0.105-1.221,0.142-2.453,0.171-3.685C457.294,316.864,457.968,317.383,458.649,317.893z M442.014,325.509    c3.057,2.673,6.378,5.399,9.891,7.744C447.826,331.733,444.419,329.054,442.014,325.509z M440.792,323.222    c-0.055-0.04-0.11-0.062-0.166-0.071c-0.408-0.809-0.771-1.651-1.083-2.527c-0.111-0.312-0.236-1.121-0.398-2.135    c2.714,3.287,6.443,5.968,9.617,8.544c2.537,2.059,5.16,4.253,7.891,6.263C451.367,329.963,445.845,326.924,440.792,323.222z     M460.205,345.829c-0.614,0.021-1.228,0.02-1.842,0.036c-0.642,0.017-1.189,0.052-1.72,0.121c-0.06-1.185-0.179-2.362-0.311-3.538    c0.529,0.572,1.087,1.115,1.697,1.611c0.778,0.633,1.646,1.363,2.62,1.691C460.486,345.787,460.319,345.825,460.205,345.829z     M458.737,343.14c-0.948-0.643-1.79-1.408-2.58-2.231c-0.107-0.936-0.207-1.873-0.281-2.814c1.548,1.277,3.405,2.425,5.273,2.765    c-0.014,0.365-0.033,0.729-0.037,1.094c-0.006,0.589,0.005,1.178,0.009,1.766c0.001,0.113,0.029,0.449,0.052,0.821    C460.414,344.013,459.495,343.654,458.737,343.14z M461.204,339.37c-1.008-0.358-2.031-0.601-3.007-1.088    c-0.856-0.427-1.647-0.956-2.406-1.531c-0.015-0.326-0.03-0.651-0.035-0.979c-0.001-0.063-0.026-0.123-0.033-0.185    c1.808,1.003,3.655,1.869,5.533,2.553C461.244,338.55,461.224,338.96,461.204,339.37z M465.175,336.614    c-4.009-3.529-8.799-6.305-13.123-9.446c-4.217-3.064-9.685-6.191-13.183-10.341c-0.167-0.943-0.366-1.925-0.609-2.788    c0.929-0.403,1.874-0.755,2.839-1.07c0.513-0.167,1.019-0.281,1.478-0.463c0.051,6.316,4.467,11.896,10.859,13.001    c5.393,3.766,10.85,7.527,16.438,11.014C468.292,336.606,466.737,336.681,465.175,336.614z M474.927,346.754    c-0.869,0.07-1.76,0.024-2.632-0.109c0.275-0.659,0.325-1.431,0.32-2.193c0.824,0.962,1.795,1.785,2.866,2.22    C475.298,346.702,475.117,346.738,474.927,346.754z M476.664,345.464c-0.817-0.685-1.808-1.126-2.627-1.826    c-0.58-0.496-1.08-1.06-1.547-1.654c-0.052-0.429-0.12-0.855-0.211-1.281c-0.156-0.735-0.649-1.695-0.76-2.45    c0.029-0.259-0.007-0.525-0.091-0.771c1.319,0.807,2.642,1.602,3.977,2.372c0.522,0.301,0.99,0.099,1.248-0.267    c-0.094,1.971-0.025,3.951,0.048,5.924C476.687,345.496,476.681,345.478,476.664,345.464z M478.505,337.317    c-0.486,0.065-0.75,0.39-0.844,0.778c-0.345,0.098-0.642,0.332-0.824,0.68c-0.048-0.235-0.179-0.463-0.429-0.636    c-6.846-4.741-14.123-8.998-21.379-13.149c0.1-0.308,0.083-0.68-0.058-1.007c0.484-0.055,0.929-0.34,1.048-0.906    c0.116-0.555,0.204-1.114,0.278-1.676c2.486,2.229,5.045,4.332,7.68,6.327c0.116,0.368,0.391,0.693,0.862,0.852    c0.133,0.045,0.272,0.077,0.411,0.11c4.266,3.137,8.742,5.981,13.495,8.529c0.051,0.028,0.1,0.027,0.151,0.046    C478.766,337.281,478.634,337.299,478.505,337.317z M479.854,337.132c0.535-0.409,0.71-1.297-0.053-1.721    c-3.734-2.073-7.4-4.275-10.989-6.597c0.202-0.004,0.401-0.005,0.595-0.001c0.836,0.019,1.284-0.568,1.352-1.212    c2.558,1.879,5.195,3.648,7.945,5.237c2.147,1.24,4.459,2.658,6.89,3.346C483.646,336.578,481.698,336.876,479.854,337.132z     M487.852,335.679c-0.026-0.109-0.077-0.211-0.169-0.287c-2.441-2.001-5.771-3.063-8.583-4.488    c-2.373-1.202-4.683-2.513-6.95-3.898c0.016-0.036,0.036-0.069,0.044-0.112c0.304-1.612,0.499-3.265,0.626-4.937    c0.039,0.059,0.091,0.115,0.16,0.164c1.742,1.235,3.559,2.536,5.418,3.826c-0.613,0.769-0.563,2.064,0.635,2.289    c1.027,0.193,2.029,0.222,3.031,0.182c2.935,1.907,5.945,3.667,8.954,4.981c0.725,0.317,1.682-0.608,0.937-1.215    c-1.797-1.465-3.779-2.816-5.839-4.096c0.955-0.061,1.98-0.083,2.979-0.193c0.623,0.448,1.241,0.902,1.865,1.349    c1.307,0.936,2.725,2.393,4.322,2.71c0.512,0.102,1.076-0.449,0.734-0.956c-0.908-1.348-2.651-2.049-4.013-2.888    c-0.325-0.2-0.652-0.396-0.977-0.596c0.239-0.076,0.474-0.161,0.699-0.263c0.894-0.405,1.569-1.046,2.055-1.814    c0.399,0.188,0.793,0.392,1.175,0.627c1.22,0.75,2.129,2.025,3.399,2.637c0.484,0.233,1.287-0.17,1.033-0.794    c-0.75-1.844-2.861-3.027-5.028-3.718c0.278-0.822,0.4-1.71,0.374-2.587c0.488,0.342,0.972,0.689,1.47,1.017    c1.539,1.016,3.222,2.363,5.03,2.785c0.284,0.066,0.556-0.056,0.74-0.253C500.072,331.276,494.173,334.118,487.852,335.679z     M490.591,323.467c-0.069,0.021-0.127,0.058-0.174,0.109c-0.726,0.434-1.747,0.613-2.775,0.815    c-2.036,0.401-4.107,0.258-6.135,0.498c0.4-1.918-0.024-4.13-0.099-6.055c-0.1-2.54-0.23-5.078-0.367-7.615    c2.414,2.203,5.908,3.693,8.055,5.966c0.927,0.982,1.887,2.146,2.213,3.493C491.662,322.145,491.306,322.962,490.591,323.467z     M480.858,307.992c-0.022-0.219-0.084-0.41-0.171-0.58c0.544,0.356,1.083,0.718,1.624,1.077    C481.827,308.288,481.342,308.11,480.858,307.992z M502.156,324.46c-0.034-0.108-0.09-0.213-0.196-0.304    c-1.339-1.154-3.172-1.772-4.721-2.621c-0.932-0.511-1.849-1.048-2.756-1.602c-0.649-2.536-2.488-4.566-4.478-6.224    c3.97,2.743,7.921,5.519,11.926,8.262c0.208,0.143,0.423,0.17,0.625,0.138C502.488,322.945,502.342,323.719,502.156,324.46z     M475.176,301.318c-3.181-1.887-6.379-3.754-9.585-5.61c0.152-0.028,0.301-0.084,0.429-0.179c0.914,0.359,1.859,0.646,2.796,0.945    c0.577,0.474,1.388,0.426,1.902-0.034c4.154,3.178,8.808,5.687,13.343,8.267c5.759,3.276,11.46,6.714,17.383,9.69    c0.662,1.684,1.072,3.513,1.155,5.501C494.479,312.572,484.532,306.867,475.176,301.318z" />
	</g>
	</svg>