<?xml version='1.0' encoding='utf-8'?>
<svg xmlns="http://www.w3.org/2000/svg" version="1.1" xmlns="http://www.w3.org/2000/svg" viewBox="0 0 800 800" style="enable-background:new 0 0 800 800;"><path style="fill:#3C3C3B;" d="M273.235,572.918c-0.115-0.563-0.43-1.069-1.017-1.332c-9.373-4.188-18.572-8.74-27.549-13.722   c-4.351-2.414-8.643-4.933-12.905-7.5c-3.999-2.408-8.016-5.663-12.533-6.945c-0.409-0.116-0.754-0.035-1.026,0.15   c-0.223-0.207-0.54-0.312-0.874-0.221c-2.226,0.605-4.232,2.386-6.044,3.745c-1.532,1.148-4.207,2.414-4.176,4.572   c0.003,0.187,0.038,0.363,0.094,0.529c-0.736,2.628-0.637,6.032,0.822,8.453c0.003,0.513,0.005,1.026,0.01,1.534   c-4.705,0.202-9.466,0.747-13.851,0.938c-4.273,0.186-8.545,0.377-12.814,0.639c-2.51,0.154-4.954-0.175-6.899,0.983   c-1.354-0.034-2.587,0.22-4.205,0.739c-0.242,0.078-0.467,0.191-0.668,0.333c-0.196-0.11-0.422-0.171-0.673-0.154   c-2.429,0.173-3.589,2.792-4.861,4.623c-1.629,2.347-3.346,4.672-4.853,7.105c-0.335-0.078-0.717,0.063-0.81,0.464   c-1.058,4.555-0.857,8.916-0.534,13.566c0.312,4.486,0.26,9.468,1.81,13.713c0.385,1.054,1.452,1.236,2.165,0.756   c0.221,0.052,0.461,0.018,0.652-0.174c2.002-2.005,3.784-4.244,5.624-6.397c0.973-1.138,2.105-2.287,3.085-3.517   c0.23,0.234,0.538,0.397,0.926,0.409c1.301,0.041,2.606,0.048,3.913,0.037c-1.244,1.098-2.371,2.389-3.513,3.5   c-1.854,1.803-3.735,3.586-5.534,5.445c-1.814,0.047-3.589,0.282-5.262,1.108c-0.576,0.284-0.547,1.195,0,1.487   c3.178,1.7,6.783,1.16,10.317,1.142c4.614-0.023,9.221-0.162,13.828-0.406c8.132-0.43,16.504-0.81,24.526-2.384   c-1.121,2.494-0.617,5.51-0.488,8.297c0.191,4.113,0.285,8.858,1.788,12.723c0.484,1.245,2.107,1.372,2.719,0.409   c0.133,0.511,0.519,0.944,1.139,0.896c4.958-0.383,8.492-3.461,12.286-6.458c4.677-3.696,9.225-7.562,13.815-11.366   c9.825-8.142,20.638-15.855,29.601-24.938c0.454-0.46,0.503-1.065,0.31-1.582c0.348-0.856,0.493-1.849,0.713-2.741   c0.565-2.287,1.041-4.603,1.471-6.919C273.882,573.802,273.634,573.27,273.235,572.918z M160.848,583.565   c-0.122-0.949-0.26-1.896-0.443-2.84c0.268-0.007,0.544-0.075,0.81-0.226c0.466-0.265,0.76-0.482,1.146-0.848   c0.262-0.248,0.365-0.603,0.332-0.945c1.105-1.559,2.131-3.184,3.18-4.775c0.656-0.996,1.327-1.985,1.966-2.992   c0.12-0.19,0.479-0.679,0.782-1.165c-0.005,1.652,0.006,3.304,0.026,4.956c-0.232-0.181-0.54-0.241-0.837-0.028   c-1.846,1.325-3.187,3.468-4.51,5.299C162.465,581.156,161.628,582.344,160.848,583.565z M161.107,585.883   c1.166-1.624,2.291-3.276,3.544-4.843c1.285-1.608,2.928-3.085,4.021-4.834c0.027,1.58,0.059,3.16,0.112,4.74   c-0.167-0.016-0.347,0.015-0.535,0.147c-2.74,1.932-5.082,4.978-6.861,8.112C161.301,588.087,161.211,586.982,161.107,585.883z    M161.619,591.779c0.939-1.486,1.926-2.937,3.039-4.309c1.291-1.592,2.829-2.938,4.195-4.443c0.06,1.41,0.133,2.82,0.222,4.228   c0.017,0.275,0.024,0.588,0.027,0.916c-0.025,0.02-0.052,0.025-0.076,0.048c-2.539,2.432-4.869,5.156-6.876,8.068   C161.962,594.769,161.771,593.265,161.619,591.779z M166.372,598.237c-1.251,1.594-2.55,3.17-3.758,4.805   c0.038-1.58-0.072-3.191-0.24-4.808c2.108-2.684,4.336-5.201,6.763-7.587c0.049,1.157,0.186,2.331,0.583,3.279   C168.507,595.284,167.459,596.851,166.372,598.237z M218.246,562.586c-2.112-0.335-4.312-0.465-6.55-0.477   c0.02-0.041,0.021-0.087,0.036-0.129c1.266-1.122,2.534-2.242,3.794-3.371c0.509-0.457,1.109-0.92,1.693-1.409   C217.372,559.038,217.623,560.941,218.246,562.586z M217.05,554.864c-0.875,0.729-1.643,1.649-2.429,2.413   c-1.018,0.99-2.029,1.988-3.041,2.984c0.093-1.172,0.094-2.346-0.002-3.509c1.131-1.189,2.265-2.381,3.431-3.535   c0.532-0.526,1.188-1.04,1.796-1.588c0.056,0.887,0.133,1.751,0.196,2.554C217.018,554.405,217.034,554.635,217.05,554.864z    M210.845,551.788c0.465-0.361,1.252-0.869,1.516-1.087c0.869-0.718,1.746-1.429,2.596-2.168c0.593-0.515,1.322-1.077,1.972-1.703   c-0.129,0.777-0.18,1.589-0.191,2.406c-1.148,0.751-2.126,2.109-2.991,3.072c-0.834,0.928-1.609,1.889-2.361,2.875   c-0.157-0.94-0.384-1.87-0.697-2.78C210.782,552.212,210.834,552.003,210.845,551.788z M173.756,593.005   c-0.032-0.806-0.13-1.783-0.132-1.831c-0.074-2.614-0.224-5.226-0.32-7.839c-0.171-4.66-0.215-9.323-0.201-13.987   c1.191-0.278,2.374-0.469,3.628-0.694c0.309-0.055,0.559-0.189,0.761-0.368c1.221-0.005,2.518-0.188,3.881-0.235   c4.272-0.147,8.542-0.337,12.814-0.5c8.058-0.308,17.313,0.657,25.128-1.325c0.569-0.144,0.942-0.567,1.132-1.063   c0.729,0.096,1.479-0.222,1.654-1.095c0.606-3.04-0.513-6.148-0.863-9.201c-0.25-2.177-0.423-4.362-0.607-6.546   c2.494,2.053,5.475,3.682,8.125,5.346c4.478,2.812,9.045,5.477,13.668,8.044c8.115,4.506,16.42,8.645,24.863,12.498   c-12.48,12.151-29.493,18.302-42.513,29.808c-0.331-4.661-0.663-9.323-0.995-13.984c-0.154-2.167-2.76-2.702-3.928-1.583   c-0.05,0.011-0.101,0.015-0.151,0.03l-0.362,0.108c-0.569,0.169-0.985,0.557-1.222,1.032c-1.343,0.181-3.876-0.114-4.796-0.071   c-1.965,0.092-3.929,0.191-5.893,0.298c-4.255,0.232-8.51,0.486-12.759,0.807C187.73,591.174,180.603,591.612,173.756,593.005z    M172.052,605.235c-1.051,0.017-2.105-0.02-3.154-0.042c1.62-1.404,3.213-2.841,4.81-4.27c1.664-1.488,3.665-2.92,5.025-4.733   c1.998-0.062,4-0.174,6.002-0.307c-1.822,1.311-3.246,3.386-4.717,5.037c-1.248,1.4-2.493,2.802-3.728,4.213   C174.878,605.172,173.465,605.213,172.052,605.235z M177.885,605.096c1.04-1.062,2.075-2.13,3.111-3.197   c1.671-1.722,3.891-3.443,5.001-5.587c0.09-0.174,0.078-0.364,0.003-0.52c3.042-0.216,6.082-0.472,9.112-0.709   c-4.778,1.675-8.868,5.753-12.054,9.816C181.334,604.972,179.61,605.044,177.885,605.096z M184.962,604.825   c1.221-1.248,2.485-2.454,3.812-3.596c2.272-1.955,4.822-3.554,6.96-5.661c0.163-0.16,0.096-0.408-0.061-0.528   c1.445-0.112,2.886-0.215,4.323-0.307c-1.661,1.176-3.079,2.989-4.471,4.361c-1.814,1.79-3.649,3.561-5.417,5.397   C188.395,604.623,186.679,604.743,184.962,604.825z M192.02,604.339c1.54-1.376,3.058-2.778,4.58-4.172   c1.747-1.6,4.156-3.207,5.29-5.308c0.045-0.084,0.063-0.167,0.07-0.247c1.869-0.112,3.739-0.216,5.609-0.315   c-3.385,2.821-6.495,6.287-9.423,9.488C196.105,603.976,194.063,604.166,192.02,604.339z M199.858,603.629   c1.596-1.372,3.171-2.77,4.728-4.182c1.87-1.695,3.878-3.364,5.546-5.277c1.389-0.069,2.778-0.139,4.168-0.2   c0.688-0.03,1.435-0.008,2.193,0.003c-3.373,2.804-6.612,5.948-9.593,9.086C204.551,603.216,202.204,603.415,199.858,603.629z    M212.98,606.218c-0.103-0.271-0.208-0.542-0.35-0.8c0.757-0.876,0.245-2.654-1.163-2.604c-0.772,0.027-1.543,0.067-2.315,0.108   c3.624-2.716,7.245-5.689,10.432-8.838c0.126,1.766,0.252,3.531,0.378,5.297c-1.724,1.036-3.223,2.838-4.569,4.23   C214.576,604.456,213.761,605.323,212.98,606.218z M213.526,614.437c-0.112-2.144,0.211-4.493-0.129-6.629   c1.104-1.121,2.206-2.243,3.362-3.317c1.04-0.966,2.283-1.867,3.364-2.874c0.136,1.901,0.272,3.802,0.408,5.704   c-1.564,1.286-2.926,2.971-4.118,4.467c-1.028,1.29-1.952,2.642-2.783,4.051C213.587,615.371,213.55,614.904,213.526,614.437z    M214.632,625.16c-0.093-2.288-0.433-4.577-0.727-6.869c1.211-1.946,2.513-3.828,4.033-5.552c0.914-1.037,1.964-1.951,2.998-2.875   c0.362,0.655,1.011,1.107,1.712,1.219C219.516,615.45,216.875,620.483,214.632,625.16z M215.603,625.958   c1.902-2.888,3.698-5.847,5.593-8.74c2.064-3.151,4.535-6.164,6.266-9.508c0.027-0.052,0.032-0.105,0.047-0.158   c1.095-0.985,2.229-1.918,3.378-2.831c-1.938,3.364-3.8,6.783-5.576,10.201c-1.011,1.945-2.312,4.087-1.127,6.015   C221.53,623.24,218.692,625.265,215.603,625.958z M230.877,614.851c-1.911,1.593-3.909,3.609-6.024,5.499   c-0.598-2.954,3.959-8.253,5.288-10.432c1.705-2.795,3.442-5.579,5.059-8.428c1.838-1.292,3.72-2.523,5.623-3.727   c-2.064,3.951-3.576,8.271-4.561,12.622C234.467,611.872,232.669,613.357,230.877,614.851z M245.474,602.714   c-0.642,0.543-1.285,1.09-1.929,1.625c-1.67,1.386-3.34,2.773-5.011,4.158c1.596-4.375,3.503-8.564,5.637-12.819   c1.616-0.988,3.24-1.965,4.863-2.945c-0.508,1.244-0.939,2.525-1.388,3.702C246.855,598.51,246.141,600.604,245.474,602.714z    M253.865,595.514c-1.941,1.666-3.872,3.341-5.802,4.998c0.465-1.105,0.926-2.21,1.407-3.307c0.922-2.105,2.228-4.241,2.864-6.48   c1.333-0.818,2.658-1.647,3.972-2.491C255.34,590.59,254.565,593.11,253.865,595.514z M257.277,592.154   c0.833-2.015,1.877-4.088,2.499-6.218c1.227-0.839,2.428-1.712,3.616-2.602c-0.8,1.843-1.372,3.87-1.736,5.715   c-1.578,1.255-3.144,2.532-4.693,3.834C257.066,592.638,257.176,592.399,257.277,592.154z M269.337,581.023   c-0.125,0.862-0.325,1.732-0.334,2.565c-1.752,1.193-3.466,2.458-5.162,3.757c0.262-0.727,0.53-1.451,0.829-2.165   c0.618-1.471,1.444-2.88,1.949-4.395c1.098-0.914,2.18-1.85,3.223-2.839C269.662,578.97,269.486,579.995,269.337,581.023z" />
	</svg>