<?xml version='1.0' encoding='utf-8'?>
<svg xmlns="http://www.w3.org/2000/svg" version="1.1" xmlns="http://www.w3.org/2000/svg" viewBox="0 0 800 800" style="enable-background:new 0 0 800 800;"><path style="fill:#3C3C3B;" d="M361.093,300.739c0.037-0.817-0.383-1.341-0.946-1.587c0.508-2.913-2.806-5.908-4.331-8.075   c-3.366-4.784-6.762-9.547-10.186-14.29c-6.658-9.22-13.432-18.357-20.271-27.444c-0.81-1.077-2.213-1.431-3.275-0.422   c-8.885,8.444-17.367,17.299-25.391,26.567c-3.811,4.402-7.496,8.913-11.081,13.5c-2.117,2.71-5.629,6.245-4.19,9.972   c0.101,0.26,0.258,0.479,0.447,0.655c1.046,3.045,3.211,5.686,6.034,7.285c3.571,2.024,7.476,1.824,11.397,1.639   c-2.411,23.891-6.501,47.389-10.481,71.104c-0.577,0.008-1.138,0.671-0.731,1.215c1.866,2.496,4.15,4.779,6.27,7.063   c1.859,2.004,3.86,4.365,6.358,5.577c1.838,1.94,4.635,1.696,7.372,1.824c0.147,0.007,0.294,0.01,0.44,0.017   c0.028,0.043,0.057,0.086,0.085,0.13c0.45,0.687,1.307,0.475,1.615-0.063c5.53,0.218,11.069,0.297,16.601,0.404   c5.918,0.114,11.836,0.225,17.754,0.338c3.205,0.061,6.21,0.479,8.401-1.843c0.643,0.598,2.014,0.115,2.081-0.929   c0.89-14.047-0.705-28.416-1.688-42.432c-0.939-13.376-2.068-26.738-3.352-40.085C355.74,311.214,360.823,306.752,361.093,300.739z    M354.743,305.802c-1.09-0.732-2.449-1.024-3.544-1.804c-0.665-0.473-1.271-1.033-1.814-1.649c2.596,0.144,5.335,0.378,7.833-0.162   C356.812,303.696,355.916,304.937,354.743,305.802z M290.447,304.27c-2.289-0.872-4.13-2.228-5.7-3.941   c1.127,0.267,2.545,0.207,3.955,0.048c1.249,1.55,2.582,3.117,4.025,4.51C291.961,304.755,291.2,304.557,290.447,304.27z    M295.202,305.122c-1.008-1.018-2.118-1.971-3.124-2.959c-0.659-0.648-1.297-1.317-1.946-1.974   c0.836-0.123,1.636-0.253,2.319-0.342c0.401-0.052,0.803-0.105,1.205-0.157c0.601,1.238,1.366,2.381,2.354,3.387   c0.64,0.652,1.445,1.397,2.328,1.982C297.288,305.111,296.241,305.153,295.202,305.122z M297.263,301.823   c-0.773-0.695-1.445-1.486-2.031-2.338c1.658-0.217,3.314-0.447,4.959-0.742c-0.125,1.567-0.269,3.129-0.411,4.692   C298.908,302.959,298.016,302.501,297.263,301.823z M292.522,379.837c6.805-26.335,9.944-54.047,11.819-81.115   c0.1-1.451-1.069-2.098-2.192-1.97c-0.203-0.325-0.529-0.581-0.96-0.616c-3.071-0.251-6.193-0.274-9.275-0.263   c-1.33,0.005-2.647,0.087-3.975,0.161c-0.717,0.041-1.434,0.082-2.151,0.122c0.365-0.829,0.769-1.649,1.361-2.442   c1.552-2.077,3.211-4.081,4.85-6.089c3.486-4.271,7.06-8.474,10.715-12.601c6.584-7.435,13.487-14.571,20.614-21.485   c5.555,7.338,11.039,14.728,16.433,22.185c2.857,3.949,5.693,7.912,8.51,11.89c1.502,2.122,2.998,4.247,4.489,6.377   c0.515,0.737,2.34,2.731,3.06,4.091c-0.049,0.118-0.083,0.239-0.107,0.362c-2.328-0.286-4.809-0.079-7.089-0.087   c-2.632-0.009-5.251,0.095-7.869,0.29c-0.029-0.035-0.059-0.068-0.087-0.103c-0.23-0.285-0.625-0.118-0.763,0.156   c-0.086,0.007-0.172,0.009-0.257,0.016c-0.613-0.364-1.392-0.287-1.892,0.196c-1.122,0.228-1.643,1.942-0.558,2.396   c-0.177,6.262,1.653,12.955,2.375,19.121c0.798,6.819,1.465,13.653,2.004,20.497c1.028,13.069,1.31,26.166,2.033,39.248   c-0.117,0.066-0.242,0.126-0.336,0.206c-1.676,0.165-3.905-0.23-5.383-0.254c-2.612-0.042-5.225-0.083-7.837-0.125   c-4.898-0.078-9.796-0.156-14.694-0.235c-4.898-0.078-9.796-0.138-14.694-0.193C297.904,379.541,294.997,378.961,292.522,379.837z    M348.311,345.898c-0.825-0.803-1.557-1.685-2.21-2.632c-0.053-0.077-0.12-0.119-0.19-0.147c-0.082-1.058-0.16-2.117-0.246-3.173   c-0.108-1.329-0.245-2.656-0.362-3.984c0.438,0.5,0.872,1.004,1.315,1.499c0.673,0.753,1.378,1.78,2.182,2.554   c0.169,2.235,0.34,4.469,0.5,6.705C348.959,346.438,348.597,346.176,348.311,345.898z M349.416,348.349   c0.084,1.194,0.175,2.388,0.257,3.582c0.089,1.304,0.157,2.613,0.232,3.921c-0.408-0.41-0.834-0.806-1.199-1.246   c-0.844-1.015-1.512-2.107-2.055-3.307c-0.037-0.082-0.1-0.128-0.17-0.154c-0.136-2.175-0.29-4.347-0.452-6.517   c0.435,0.666,0.895,1.315,1.412,1.922C347.968,347.168,348.612,348.039,349.416,348.349z M347.547,336.155   c-0.81-0.822-1.631-1.635-2.449-2.449c-0.181-1.942-0.374-3.883-0.571-5.823c0.774,0.94,1.498,1.923,2.292,2.851   c0.455,0.532,0.899,1.1,1.373,1.634c0.131,1.62,0.274,3.238,0.399,4.858C348.243,336.868,347.896,336.51,347.547,336.155z    M347.684,329.868c-0.948-0.931-1.973-1.778-2.924-2.699c-0.102-0.098-0.215-0.109-0.311-0.074   c-0.259-2.511-0.533-5.021-0.832-7.527c0.501,0.544,1.005,1.085,1.529,1.609c0.722,0.721,1.455,1.522,2.284,2.161   c0.195,2.28,0.393,4.559,0.58,6.84C347.902,330.075,347.79,329.972,347.684,329.868z M346.121,319.851   c-0.962-0.897-1.877-1.839-2.772-2.801c-0.211-2.187-0.394-4.472-0.646-6.749c0.242,0.374,0.498,0.741,0.783,1.092   c0.779,0.96,1.867,2.208,3.112,2.618c0.206,2.259,0.42,4.518,0.617,6.778C346.838,320.479,346.465,320.172,346.121,319.851z    M346.105,308.595c0.112,1.17,0.211,2.342,0.319,3.512c-0.641-0.485-1.327-0.934-1.877-1.512c-0.95-0.998-1.68-2.147-2.245-3.399   c-0.281-1.843-0.641-3.65-1.146-5.358c0.235,0.023,0.47,0.037,0.705,0.059c0.592,0.799,1.21,1.58,1.886,2.335   c0.808,0.902,1.795,2.194,2.905,3.064C346.292,307.632,346.056,308.087,346.105,308.595z M302.949,391.801   c-0.022-0.071-0.033-0.145-0.066-0.211c-1.301-2.616-4.252-4.594-6.501-6.379c-0.618-0.491-1.238-0.994-1.859-1.498   c1.781,0.244,3.71,0.103,5.528,0.044c2.327,2.61,4.383,5.46,6.341,8.363C305.086,392.132,303.869,392.056,302.949,391.801z    M308.665,392.029c-2.098-3.102-4.638-5.797-7.425-8.291c0.134,0,0.27-0.002,0.402,0c1.547,0.03,3.093,0.049,4.64,0.077   c2.154,2.784,4.602,5.502,7.282,7.866C312.357,391.715,310.539,391.91,308.665,392.029z M316.548,391.719   c-2.853-2.562-5.642-5.104-8.297-7.871c2.081,0.035,4.163,0.069,6.244,0.104c0.932,1.933,2.122,3.728,3.533,5.353   c0.688,0.792,1.491,1.677,2.372,2.479C319.116,391.763,317.832,391.738,316.548,391.719z M325.841,391.875   c-0.694-0.013-1.387-0.023-2.081-0.035c-1.367-1.216-2.979-2.208-4.249-3.554c-1.246-1.322-2.268-2.772-3.19-4.304   c0.985,0.016,1.969,0.035,2.954,0.049c1.005,0.014,2.01,0.029,3.015,0.043c1.236,1.467,2.497,2.913,3.816,4.308   c1.057,1.117,2.179,2.48,3.43,3.567C328.305,391.925,327.073,391.898,325.841,391.875z M332.319,392.006   c-1.339-1.818-3.471-3.191-5.118-4.718c-1.117-1.036-2.201-2.105-3.27-3.19c1.89,0.027,3.78,0.055,5.67,0.082   c1.395,1.688,2.887,3.273,4.522,4.747c1.113,1.004,2.433,2.358,3.865,3.194C336.098,392.083,334.209,392.045,332.319,392.006z    M340.355,392.221c0.001-0.097-0.022-0.198-0.091-0.295c-1.277-1.805-3.663-2.905-5.364-4.306   c-1.307-1.077-2.558-2.228-3.768-3.418c1.599,0.023,3.197,0.046,4.796,0.069c0.26,0.004,0.555,0.022,0.866,0.047   c1.734,1.712,3.576,3.32,5.357,4.983c1.026,0.958,2.064,2.191,3.201,3.208C343.65,392.492,341.909,392.329,340.355,392.221z    M348.01,392.362c-1.223-1.778-3.387-3.178-4.994-4.501c-1.406-1.158-2.836-2.305-4.326-3.359c1.881,0.189,4.029,0.349,5.618-0.158   c1.206,1.135,2.386,2.297,3.512,3.513c0.607,0.656,1.217,1.315,1.783,2.007c0.495,0.605,0.814,1.171,1.295,1.661   C350.053,391.967,349.067,392.222,348.01,392.362z M352.345,391.251c-0.008-0.034-0.011-0.068-0.025-0.1   c-0.353-0.836-0.993-1.311-1.615-1.969c-0.682-0.722-1.336-1.47-2.025-2.186c-1.062-1.104-2.17-2.159-3.3-3.192   c0.09-0.064,0.192-0.116,0.273-0.189c0.668-0.12,1.262-0.631,1.308-1.541c0.017-0.336,0.022-0.673,0.037-1.009   c0.417,0.458,0.835,0.916,1.25,1.373c1.065,1.172,2.149,2.674,3.495,3.555C351.921,387.75,352.117,389.503,352.345,391.251z    M351.519,383.489c-0.757-0.706-1.602-1.349-2.33-1.989c-0.711-0.626-1.421-1.259-2.136-1.885c0.068-1.816,0.106-3.633,0.127-5.452   c1.106,1.53,2.42,2.95,3.916,3.791C351.221,379.801,351.356,381.647,351.519,383.489z M350.939,375.593   c-0.599-0.511-1.216-1.009-1.764-1.561c-0.708-0.714-1.361-1.47-1.987-2.248c0.004-2.842-0.044-5.685-0.13-8.528   c0.582,0.717,1.167,1.433,1.745,2.153c0.563,0.701,1.073,1.536,1.711,2.202C350.643,370.272,350.777,372.934,350.939,375.593z    M350.424,365.776c-0.344-0.333-0.692-0.659-1-0.989c-0.804-0.862-1.603-1.729-2.403-2.594c-0.102-3.059-0.257-6.116-0.435-9.171   c0.787,1.75,1.896,3.681,3.422,4.569C350.156,360.315,350.293,363.044,350.424,365.776z M349.068,306.972   c-0.772-1.536-2.918-2.727-4.15-3.912c-0.34-0.327-0.678-0.658-1.014-0.992c1.234,0.09,2.47,0.161,3.71,0.202   c0.578,1.143,1.331,2.164,2.322,3.033c0.644,0.566,1.455,1.205,2.326,1.648C351.246,307.195,350.157,307.218,349.068,306.972z" />
	</svg>