<?xml version='1.0' encoding='utf-8'?>
<svg xmlns="http://www.w3.org/2000/svg" version="1.1" xmlns="http://www.w3.org/2000/svg" viewBox="0 0 800 800" style="enable-background:new 0 0 800 800;"><path style="fill:#3C3C3B;" d="M301.185,173.41c-5.272,2.125-10.622,4.34-15.615,7.064c-1.172,0.639-0.964,2.214-0.097,2.888   c0.355,1.143,1.054,2.263,1.932,3.324c-8.91,10.921-18.51,21.224-28.782,30.87c0.682-7.092,1.363-14.185,2.045-21.277   c0.188-1.961-2.542-2.888-3.804-1.576c-10.485,10.908-21.354,21.57-31.293,32.982c-1.617,1.857,0.901,4.438,2.722,2.722   c9.467-8.92,18.353-18.504,27.323-27.945c-0.665,6.897-1.33,13.793-1.995,20.69c-0.199,2.062,2.504,2.761,3.811,1.579   c11.931-10.788,22.988-22.442,33.153-34.895c0.97,0.831,1.927,1.581,2.726,2.215c1.146,0.91,2.679,0.871,3.519-0.453   c3.065-4.828,5.409-10.004,7.068-15.475C304.346,174.639,302.77,172.771,301.185,173.41z" />
	</svg>