<?xml version='1.0' encoding='utf-8'?>
<svg xmlns="http://www.w3.org/2000/svg" version="1.1" xmlns="http://www.w3.org/2000/svg" viewBox="0 0 800 800" style="enable-background:new 0 0 800 800;"><path style="fill:#3C3C3B;" d="M581.722,556.922c-1.446-3.213-3.007-6.461-4.778-9.49c-0.563-0.962-1.938-1.382-2.908-0.762   c-8.38,5.353-18.865,7.253-28.177,3.087c-2.251-1.007-4.313-2.312-6.138-3.859c7.747-0.269,15.494-0.536,23.241-0.818   c1.216-0.044,2.141-1.166,1.812-2.379c-0.063-0.231-0.121-0.463-0.181-0.694c0.199-1.858,0.338-3.719,0.459-5.583   c0.107-1.647,0.478-3.219-0.749-4.484c-0.46-0.475-1.209-0.457-1.708-0.06c-0.252-0.221-0.563-0.382-0.932-0.417   c-5.504-0.517-11.296,0.305-16.822,0.596c-4.377,0.231-8.755,0.46-13.132,0.693c-0.328-1.477-0.53-2.998-0.565-4.559   c-0.02-0.867,0.016-1.732,0.08-2.595c9.906,0.105,19.815,0.229,29.717,0.12c0.011,0.053,0.018,0.108,0.03,0.161   c0.339,1.617,2.747,1.18,2.797-0.379c0.07-2.197,0.026-4.393-0.134-6.585c-0.137-1.883-0.016-3.612-1.235-5.11   c-0.147-0.181-0.336-0.296-0.544-0.358c0.154-0.745-0.213-1.601-1.076-1.862c-4.705-1.425-10.176-0.738-15.059-0.778   c-3.184-0.026-6.369-0.033-9.553-0.048c1.379-2.281,2.981-4.417,4.742-6.343c7.217-7.895,19.554-12.489,25.984-1.002   c0.882,1.576,2.728,1.208,3.554,0.088c0.098-0.001,0.195,0.002,0.296-0.026c1.549-0.428,2.997-1.179,4.467-1.818   c1.459-0.634,3.19-1.049,4.007-2.515c0.229-0.411,0.266-0.833,0.175-1.216c0.615-0.478,0.989-1.251,0.738-2.229   c-2.932-11.413-14.653-18.155-26.058-17.642c-13.952,0.627-25.154,11.356-32.132,22.603c-1.948,3.14-3.656,6.443-5.042,9.854   c-6.366-0.103-12.77-0.033-18.892,0.939c-0.459-0.058-0.849,0.167-1.115,0.512c-0.422-0.072-0.868,0.033-1.23,0.414   c-1.14,1.201-1.193,2.725-1.466,4.303c-0.28,1.62-0.623,3.251-0.69,4.897c-0.021,0.513,0.306,1.131,0.779,1.359   c0.341,0.164,0.677,0.258,1.015,0.298c0.003,0.011,0,0.022,0.004,0.033c0.832,2.566,5.452,1.872,7.464,1.952   c3.477,0.138,6.958,0.198,10.44,0.232c-0.235,2.743-0.204,5.503,0.108,8.259c-6.44,0.373-12.876,0.889-19.205,1.931   c-1.033,0.17-0.863,1.527-0.07,1.881c-0.478,1.035-0.69,2.29-0.742,3.184c-0.058,0.994,0.036,2.038,0.301,2.999   c0.269,0.975,0.726,1.463,1.3,2.09c-0.036,0.365,0.138,0.736,0.579,0.833c4.833,1.068,10.126,0.419,15.054,0.286   c2.205-0.059,4.409-0.137,6.613-0.213c5.106,10.541,14.333,18.978,25.744,22.187c12.763,3.59,29.651,1.155,38.55-9.473   c0.321-0.16,0.575-0.444,0.678-0.808c0.05-0.065,0.108-0.122,0.157-0.187C582.724,557.822,582.305,557.159,581.722,556.922z    M554.719,520.898c0.193,0.218,0.404,0.43,0.645,0.631c0.059,0.049,0.123,0.091,0.187,0.133c-0.438-0.006-0.876-0.012-1.314-0.017   C554.468,521.447,554.629,521.19,554.719,520.898z M570.645,499.345c0.244-0.027,0.484-0.067,0.582-0.077   c0.143-0.015,0.26-0.056,0.389-0.086c0.294,0.031,0.594,0.05,0.899,0.055c-0.752,0.486-1.502,0.977-2.211,1.522   c-0.201-0.357-0.429-0.676-0.646-1.01C570.028,499.711,570.362,499.564,570.645,499.345z M498.694,521.841   c0.022-0.079,0.024-0.154,0.032-0.231c0.044-0.037,0.088-0.076,0.132-0.113c0.508,0.084,1.016,0.162,1.525,0.229   C499.819,521.753,499.255,521.783,498.694,521.841z M517.735,533.468c-0.17-1.261-0.263-2.531-0.3-3.805   c0.122,1.27,0.268,2.537,0.456,3.797C517.839,533.463,517.787,533.466,517.735,533.468z M570.533,562.116   c0.012-0.035,0.027-0.069,0.037-0.104c2.476-1.11,4.909-2.324,7.301-3.655c0.382-0.213,0.645-0.49,0.813-0.798   c0.103,0.14,0.203,0.284,0.306,0.423C576.219,559.522,573.397,560.929,570.533,562.116z" />
	</svg>