<?xml version='1.0' encoding='utf-8'?>
<svg xmlns="http://www.w3.org/2000/svg" version="1.1" xmlns="http://www.w3.org/2000/svg" viewBox="0 0 800 800" style="enable-background:new 0 0 800 800;"><g>
		<path style="fill:#3C3C3B;" d="M736.098,637.979c-4.368-19.098-18.585-33.763-34.87-43.854    c-14.485-8.975-31.85-14.062-48.693-10.725c-2.636-0.024-5.312,0.158-7.921,0.559c-11.938,0.031-23.543,5.138-32.957,12.716    c-13.419,10.802-21.467,26.922-25.768,43.328c-4.507,17.189-7.174,37.467-0.358,54.385c6.135,15.228,20.082,27.744,33.801,36.192    c28.441,17.513,67.127,18.696,93.043-4.326C736.27,705.026,743,668.158,736.098,637.979z M665.743,668.452    c-0.437,0.598-0.76,1.168-0.983,1.751c-0.851-1.498-1.712-2.99-2.588-4.47c2.727,1.61,5.473,3.187,8.232,4.744    c-0.853,1.769-1.702,3.539-2.552,5.31c-0.139-0.257-0.277-0.514-0.417-0.77c-0.186-2.156-0.444-4.298-0.812-6.45    C666.546,668.115,665.96,668.156,665.743,668.452z M666.092,672.58c-0.216-0.387-0.433-0.773-0.65-1.16    c0.277-1.54,0.45-1.611,0.519-0.206C666.008,671.669,666.049,672.125,666.092,672.58z M670.637,672.822    c-0.15,2.446-0.302,4.892-0.456,7.338c-0.532-1.016-1.067-2.031-1.608-3.041C669.263,675.688,669.951,674.256,670.637,672.822z     M668.57,666.343c0.068-0.068,0.133-0.136,0.22-0.239c0.079-0.093,0.146-0.234,0.095-0.359l-0.16-0.39    c-0.055-0.133-0.258-0.2-0.337-0.044c0.288-0.564,0.565-1.136,0.848-1.703c1.875,0.884,3.755,1.757,5.631,2.639    c-0.366,0.908-0.722,1.82-1.079,2.732C672.051,668.094,670.315,667.21,668.57,666.343z M677.581,675.163    c-1.492,2.536-2.719,5.127-3.717,7.818c0.318-3.324,0.636-6.648,0.954-9.971c0.003-0.03-0.006-0.053-0.008-0.081    c2.128,1.179,4.259,2.353,6.397,3.514c-0.019,0.033-0.043,0.06-0.057,0.098c-1.437,4.033-2.855,8.072-4.27,12.112    c0.601-4.341,1.202-8.682,1.808-13.023C678.778,674.994,677.958,674.522,677.581,675.163z M674.948,669.565    c0.479-0.869,0.96-1.736,1.424-2.613c1.983,0.932,3.969,1.858,5.953,2.789c-0.197,0.912-0.373,1.826-0.497,2.745    c-0.121,0.898,1.182,1.329,1.407,0.388c0.193-0.807,0.409-1.609,0.641-2.407c2.201,1.033,4.404,2.063,6.605,3.095    c-0.381,1.181-0.753,2.364-1.122,3.548C684.57,674.568,679.775,672.036,674.948,669.565z M701.547,650.12    c0.854-2.191,1.709-4.383,2.559-6.576c1.893,0.819,3.783,1.647,5.67,2.481c-0.57,1.383-1.147,2.762-1.71,4.147    c-0.303,0.745-0.615,1.494-0.932,2.244C705.266,651.658,703.4,650.896,701.547,650.12z M706.261,654.466    c-0.868,2.016-1.758,4.05-2.631,6.103c-1.785-0.729-3.564-1.459-5.325-2.197c0.838-2.119,1.676-4.238,2.506-6.361    C702.624,652.817,704.442,653.639,706.261,654.466z M704.944,641.38c0.725-1.873,1.451-3.745,2.176-5.618    c1.963,0.841,3.924,1.69,5.887,2.531c-0.77,1.818-1.537,3.638-2.294,5.461C708.787,642.953,706.861,642.162,704.944,641.38z     M702.647,640.455c-1.452-0.583-2.905-1.163-4.357-1.746c0.823-1.891,1.628-3.793,2.424-5.7c1.413,0.604,2.824,1.217,4.237,1.821    C704.175,636.701,703.407,638.577,702.647,640.455z M701.803,642.549c-0.879,2.191-1.745,4.388-2.599,6.589    c-1.63-0.695-3.257-1.399-4.886-2.098c1.074-2.119,2.12-4.24,3.095-6.371C698.878,641.294,700.341,641.92,701.803,642.549z     M698.496,650.975c-0.825,2.151-1.636,4.307-2.431,6.467c-1.936-0.808-3.872-1.616-5.813-2.411    c1.054-2.112,2.137-4.212,3.21-6.309C695.139,649.473,696.817,650.225,698.496,650.975z M695.371,659.341    c-0.675,1.859-1.342,3.719-1.992,5.584c-2.168-0.902-4.343-1.786-6.527-2.638c0.797-1.859,1.656-3.7,2.549-5.53    C691.394,657.613,693.381,658.48,695.371,659.341z M692.569,667.293c-0.467,1.368-0.926,2.738-1.378,4.11    c-2.225-1.003-4.454-1.994-6.69-2.965c0.421-1.279,0.891-2.546,1.388-3.806C688.122,665.501,690.348,666.388,692.569,667.293z     M691.887,674.222c1.145,0.536,2.289,1.075,3.435,1.609c0.899,0.419,1.795,0.858,2.691,1.292c-0.292,1.403-0.522,2.812-0.68,4.227    c-0.621-0.331-1.242-0.662-1.862-0.993c-1.672-0.892-3.348-1.778-5.022-2.668C690.934,676.537,691.407,675.378,691.887,674.222z     M694.754,673.021c-0.663-0.307-1.329-0.603-1.993-0.905c0.556-1.349,1.112-2.698,1.661-4.05c1.193,0.495,2.389,0.981,3.576,1.492    c0.62,0.267,1.231,0.553,1.849,0.824c-0.478,1.45-0.909,2.909-1.284,4.374C697.285,674.18,696.011,673.604,694.754,673.021z     M695.351,665.762c0.736-1.825,1.473-3.649,2.2-5.478c1.007,0.438,2.017,0.867,3.022,1.308c0.739,0.324,1.476,0.66,2.213,0.991    c-0.751,1.813-1.474,3.639-2.138,5.478C698.887,667.281,697.122,666.513,695.351,665.762z M704.945,663.556    c1.821,0.834,3.641,1.684,5.462,2.537c-0.704,1.826-1.401,3.657-2.076,5.495c-1.855-0.87-3.71-1.74-5.579-2.582    C703.454,667.179,704.191,665.365,704.945,663.556z M705.819,661.462c0.855-2.009,1.727-4.012,2.599-6.016    c1.724,0.784,3.452,1.568,5.183,2.347c-0.741,1.97-1.506,3.945-2.275,5.926C709.49,662.96,707.652,662.209,705.819,661.462z     M709.344,653.314c0.578-1.336,1.153-2.674,1.719-4.015c0.32-0.759,0.632-1.522,0.95-2.282c1.564,0.698,3.122,1.409,4.68,2.123    c-0.719,2.092-1.443,4.174-2.19,6.225c-0.003,0.01-0.008,0.02-0.011,0.03C712.775,654.7,711.059,654.007,709.344,653.314z     M712.977,644.701c0.755-1.816,1.505-3.634,2.248-5.455c1.417,0.608,2.833,1.219,4.25,1.827c-0.653,1.87-1.297,3.74-1.935,5.608    C716.023,646.008,714.502,645.347,712.977,644.701z M713.925,636.129c-1.986-0.846-3.977-1.684-5.973-2.508    c0.745-1.922,1.49-3.844,2.239-5.765c2.033,0.928,4.061,1.866,6.093,2.796C715.491,632.475,714.705,634.3,713.925,636.129z     M709.091,625.018c-1.473-0.641-2.944-1.284-4.42-1.917c0.697-1.835,1.375-3.677,2.032-5.526c1.58,0.661,3.156,1.334,4.724,2.023    C710.645,621.401,709.866,623.208,709.091,625.018z M708.254,626.972c-0.819,1.922-1.63,3.849-2.436,5.779    c-1.424-0.581-2.844-1.172-4.272-1.742c0.818-1.993,1.613-3.997,2.392-6.007C705.378,625.657,706.815,626.316,708.254,626.972z     M699.337,630.141c-1.907-0.752-3.81-1.518-5.724-2.248c0.846-2.147,1.668-4.304,2.491-6.46c1.901,0.863,3.799,1.732,5.699,2.596    C700.991,626.071,700.169,628.108,699.337,630.141z M698.544,632.08c-0.795,1.923-1.608,3.841-2.429,5.756    c-1.871-0.748-3.735-1.509-5.61-2.249c0.81-1.969,1.606-3.945,2.393-5.924C694.781,630.467,696.662,631.276,698.544,632.08z     M695.284,639.76c-0.193,0.444-0.382,0.89-0.577,1.334c-0.738,1.68-1.554,3.374-2.402,5.081c-1.753-0.754-3.508-1.503-5.26-2.258    c0.913-2.168,1.818-4.338,2.717-6.506C691.603,638.195,693.444,638.977,695.284,639.76z M691.475,647.833    c-1.065,2.108-2.161,4.236-3.223,6.385c-1.604-0.653-3.206-1.308-4.813-1.954c0.992-2.232,1.967-4.472,2.921-6.72    C688.062,646.314,689.771,647.069,691.475,647.833z M683.849,654.37c1.193,0.513,2.387,1.027,3.581,1.539    c-0.897,1.867-1.747,3.75-2.513,5.648c-1.635-0.625-3.269-1.251-4.912-1.844c0.931-1.941,1.844-3.892,2.729-5.856    C683.108,654.031,683.493,654.217,683.849,654.37z M684.019,663.903c-0.454,1.265-0.856,2.537-1.202,3.815    c-1.866-0.802-3.73-1.613-5.605-2.393c0.577-1.118,1.15-2.238,1.707-3.367C680.62,662.601,682.321,663.249,684.019,663.903z     M682.327,677.05c0.838,0.454,1.674,0.911,2.513,1.364c-1.162,3.362-2.288,6.735-3.378,10.119    C681.959,684.739,682.244,680.918,682.327,677.05z M686.074,679.083c0.848,0.456,1.696,0.909,2.544,1.364    c-1.735,5.216-3.448,10.44-5.157,15.666C684.33,690.435,685.197,684.758,686.074,679.083z M690.227,681.31    c0.824,0.442,1.648,0.884,2.472,1.326c-0.098,0.054-0.182,0.141-0.228,0.277c-1.764,5.218-3.48,10.452-5.182,15.691    C688.431,692.87,689.412,687.106,690.227,681.31z M693.412,683.172c0.013-0.054,0.01-0.102,0.008-0.15    c0.125,0.067,0.251,0.135,0.376,0.202c0.843,0.451,1.685,0.902,2.528,1.353c-2.574,6.898-5.309,13.728-8.125,20.527    C689.906,697.786,691.61,690.466,693.412,683.172z M697.225,685.059c1.311,0.702,2.622,1.404,3.933,2.106    c-2.344,4.764-4.495,9.622-6.348,14.6c-0.837,2.248-1.814,4.654-2.747,7.113c0.286-1.313,0.57-2.625,0.854-3.938    C694.349,698.312,695.698,691.666,697.225,685.059z M698.579,682.016c0.338-1.374,0.705-2.736,1.105-4.086    c1.866,0.921,3.729,1.868,5.592,2.822c-0.41,1.405-0.791,2.816-1.133,4.232C702.288,683.994,700.434,683.005,698.579,682.016z     M700.431,675.594c0.465-1.442,0.956-2.874,1.475-4.296c1.879,0.835,3.745,1.698,5.61,2.561c-0.499,1.414-0.979,2.833-1.432,4.257    C704.192,677.271,702.304,676.432,700.431,675.594z M706.861,681.562c1.948,1,3.897,2.003,5.852,2.994    c-0.491,1.409-0.957,2.824-1.422,4.239c-1.939-1.034-3.878-2.068-5.816-3.101C705.925,684.312,706.387,682.935,706.861,681.562z     M707.795,678.883c0.498-1.404,1.005-2.804,1.518-4.202c1.99,0.932,3.973,1.88,5.949,2.84c-0.515,1.366-1.003,2.737-1.498,4.108    C711.784,680.694,709.79,679.781,707.795,678.883z M710.144,672.427c0.682-1.833,1.373-3.662,2.067-5.49    c2.022,0.947,4.047,1.892,6.077,2.82c-0.74,1.85-1.461,3.705-2.175,5.562C714.133,674.343,712.144,673.377,710.144,672.427z     M713.148,664.473c0.747-1.961,1.492-3.921,2.233-5.883c2.108,0.94,4.225,1.857,6.347,2.757c-0.802,1.928-1.593,3.859-2.379,5.793    C717.293,666.231,715.226,665.34,713.148,664.473z M716.313,656.135c0.764-2.019,1.559-4.045,2.367-6.078    c2.17,1.008,4.331,2.039,6.486,3.087c-0.798,1.892-1.593,3.786-2.387,5.682C720.63,657.916,718.475,657.017,716.313,656.135z     M719.643,647.63c0.735-1.842,1.467-3.689,2.191-5.542c2.253,0.966,4.504,1.937,6.757,2.904c-0.806,1.93-1.617,3.861-2.432,5.794    C724.012,649.688,721.84,648.634,719.643,647.63z M720.241,638.893c-1.378-0.607-2.748-1.226-4.133-1.823    c0.74-1.827,1.477-3.655,2.206-5.487c1.323,0.606,2.646,1.215,3.969,1.821C721.581,635.222,720.898,637.05,720.241,638.893z     M719.146,629.481c0.671-1.697,1.34-3.394,2.001-5.095c1.317,0.759,2.619,1.544,3.926,2.316c-0.681,1.51-1.341,3.035-1.965,4.583    C721.788,630.683,720.469,630.078,719.146,629.481z M717.176,628.602c-2.064-0.924-4.123-1.857-6.195-2.765    c0.714-1.828,1.43-3.654,2.15-5.479c1.408,0.635,2.811,1.283,4.198,1.963c0.718,0.352,1.417,0.74,2.118,1.123    C718.685,625.161,717.929,626.881,717.176,628.602z M712.2,617.821c-1.631-0.637-3.24-1.255-4.789-1.87    c-0.042-0.016-0.083-0.033-0.125-0.049c0.618-1.78,1.219-3.564,1.795-5.356c1.754,0.792,3.516,1.565,5.273,2.35    C713.635,614.534,712.916,616.175,712.2,617.821z M705.296,615.111c-1.945-0.769-3.892-1.535-5.831-2.312    c0.734-1.873,1.454-3.76,2.108-5.659c1.926,0.879,3.856,1.75,5.785,2.623C706.672,611.547,705.985,613.33,705.296,615.111z     M703.083,616.071c0.529,0.219,1.057,0.439,1.585,0.659c-0.708,1.824-1.42,3.646-2.138,5.465    c-1.924-0.818-3.846-1.641-5.776-2.445c0.094-0.247,0.192-0.492,0.285-0.738c0.589-1.558,1.212-3.128,1.836-4.71    C700.275,614.894,701.676,615.488,703.083,616.071z M697.282,611.911c-1.851-0.755-3.696-1.52-5.526-2.319    c0.715-1.998,1.39-4.004,2.015-6.013c1.867,0.857,3.739,1.705,5.608,2.56C698.652,608.052,697.97,609.987,697.282,611.911z     M696.746,613.395c-0.285,0.782-0.573,1.561-0.871,2.333c-0.406,1.051-0.828,2.096-1.239,3.145    c-1.838-0.761-3.672-1.534-5.514-2.282c0.734-1.873,1.451-3.755,2.142-5.645C693.076,611.791,694.908,612.6,696.746,613.395z     M694.003,620.478c-0.864,2.192-1.73,4.383-2.611,6.568c-1.871-0.705-3.743-1.402-5.618-2.086    c0.926-2.299,1.864-4.619,2.789-6.955C690.378,618.826,692.189,619.655,694.003,620.478z M690.71,628.729    c-0.763,1.885-1.523,3.771-2.293,5.652c-0.046,0.112-0.094,0.223-0.139,0.335c-1.839-0.72-3.674-1.453-5.518-2.159    c0.286-0.726,0.573-1.452,0.857-2.177c0.518-1.326,1.051-2.661,1.589-4.003C687.041,627.158,688.874,627.947,690.71,628.729z     M687.548,636.466c-0.902,2.167-1.817,4.33-2.745,6.487c-1.765-0.76-3.529-1.522-5.295-2.278c0.888-2.174,1.763-4.351,2.625-6.528    C683.937,634.925,685.743,635.695,687.548,636.466z M684.124,644.527c-0.984,2.274-1.973,4.547-2.96,6.819    c-0.354-0.141-0.705-0.287-1.059-0.427c-1.321-0.524-2.711-1.172-4.14-1.808c1-2.312,1.978-4.633,2.937-6.961    C680.638,642.954,682.383,643.735,684.124,644.527z M680.534,652.799c-0.89,2.052-1.772,4.108-2.646,6.167    c-1.829-0.643-3.661-1.273-5.498-1.873c1.045-2.245,2.058-4.509,3.052-6.782C677.2,651.119,678.914,651.993,680.534,652.799z     M676.937,661.209c-0.476,1.136-0.942,2.276-1.408,3.416c-1.881-0.775-3.765-1.543-5.655-2.296    c0.523-1.06,1.037-2.124,1.546-3.193C673.258,659.827,675.098,660.517,676.937,661.209z M671.618,676.895    c0.114-1.851,0.225-3.702,0.341-5.553c0.655,0.367,1.312,0.73,1.968,1.095c-0.122,0.047-0.231,0.127-0.302,0.249    C672.824,674.064,672.163,675.462,671.618,676.895z M673.229,676.304l-0.774,8.272c-0.357-0.705-0.713-1.412-1.074-2.115    C671.762,680.291,672.366,678.277,673.229,676.304z M677.045,678.718c-0.544,3.929-1.091,7.858-1.639,11.787    c-0.532-1.093-1.073-2.182-1.614-3.27C674.608,684.279,675.687,681.453,677.045,678.718z M680.997,680.635    c-0.295,5.61-1.098,11.144-2.372,16.631c-0.658-1.407-1.323-2.812-1.994-4.212C678.092,688.916,679.549,684.777,680.997,680.635z     M679.498,699.103c1.339-4.375,2.747-8.728,4.183-13.072c-0.848,5.552-1.693,11.105-2.555,16.655    c-0.542-1.191-1.085-2.382-1.635-3.569C679.493,699.111,679.497,699.108,679.498,699.103z M682.238,704.084    c1.911-5.725,3.836-11.445,5.748-17.17c-1.132,7.28-2.55,14.506-4.207,21.69c-0.611-1.38-1.226-2.757-1.846-4.133    C682.062,704.397,682.174,704.275,682.238,704.084z M688.255,699.652c-1.024,4.046-2.048,8.091-3.072,12.137    c-0.153-0.351-0.309-0.7-0.463-1.051C685.898,707.043,687.076,703.348,688.255,699.652z M686.161,713.656    c2.143-4.782,4.122-9.642,6.02-14.526c0.688-1.769,1.341-3.548,1.982-5.333c-2.158,8.573-3.624,17.411-5.511,26.04    c-0.857-2.013-1.723-4.025-2.595-6.035C686.094,713.758,686.134,713.718,686.161,713.656z M699.887,692.565    c-2.97,10.974-5.932,21.949-8.838,32.94c-0.574-1.365-1.15-2.729-1.729-4.095C692.459,711.676,695.741,701.924,699.887,692.565z     M702.333,687.794c0.942,0.504,1.884,1.009,2.826,1.513c-3.767,9.605-7.334,19.288-10.969,28.944    C696.925,708.104,699.633,697.95,702.333,687.794z M706.324,689.931c1.289,0.69,2.579,1.38,3.868,2.071    c0.158,0.085,0.319,0.178,0.478,0.265c-4.286,9.539-8.363,19.167-12.223,28.884C701.031,710.733,703.56,700.3,706.324,689.931z     M712.279,693.161c0.522,0.298,1.047,0.603,1.574,0.911c-2.495,6.085-4.95,12.186-7.388,18.295    C708.394,705.962,710.331,699.56,712.279,693.161z M720.067,697.611c0.003-0.007,0.001-0.014,0.003-0.021    c0.665,0.347,1.333,0.678,2.005,0.993c-2.315,5.553-4.997,10.898-8.064,16.049C716.013,708.953,718.015,703.273,720.067,697.611z     M718.904,697.121c-4.047,7.952-8.028,15.939-12.013,23.922c2.821-8.689,5.762-17.348,8.52-26.063    c1.182,0.691,2.377,1.373,3.583,2.03C718.963,697.045,718.928,697.074,718.904,697.121z M712.746,689.57    c-0.163-0.087-0.327-0.174-0.49-0.262c0.679-1.318,1.356-2.637,2.008-3.973c2.247,1.127,4.503,2.223,6.772,3.273    c-0.461,1.483-0.907,2.966-1.327,4.448C717.355,691.869,714.967,690.755,712.746,689.57z M715.608,682.512    c0.616-1.303,1.236-2.603,1.831-3.918c1.987,0.978,3.964,1.975,5.939,2.977c-0.488,1.389-0.958,2.779-1.414,4.171    C719.876,684.627,717.757,683.549,715.608,682.512z M718.383,676.455c0.818-1.846,1.626-3.698,2.412-5.563    c1.875,0.839,3.757,1.656,5.647,2.44c-0.793,2.011-1.554,4.032-2.291,6.06C722.237,678.405,720.317,677.422,718.383,676.455z     M721.877,668.277c0.806-1.951,1.602-3.905,2.383-5.867c1.919,0.789,3.847,1.542,5.781,2.269c-0.899,2.061-1.769,4.143-2.62,6.234    C725.595,670.004,723.744,669.128,721.877,668.277z M725.263,659.887c0.737-1.873,1.467-3.746,2.19-5.621    c1.988,0.986,3.967,1.998,5.938,3.031c-0.805,1.715-1.597,3.443-2.376,5.187C729.111,661.597,727.196,660.727,725.263,659.887z     M734.688,654.635c-0.057,0.065-0.11,0.138-0.152,0.226c-0.078,0.163-0.154,0.331-0.232,0.494    c-1.941-1.203-3.929-2.336-5.949-3.418c0.776-2.02,1.547-4.037,2.317-6.049c1.132,0.487,2.265,0.97,3.396,1.46    C734.375,649.762,734.573,652.197,734.688,654.635z M733.75,645.052c-0.775-0.37-1.559-0.727-2.338-1.091    c0.472-1.231,0.945-2.457,1.417-3.682C733.18,641.856,733.5,643.444,733.75,645.052z M731.65,637.682    c-0.059,0.078-0.113,0.162-0.153,0.263c-0.687,1.693-1.389,3.386-2.092,5.079c-2.241-1.034-4.489-2.058-6.747-3.065    c0.695-1.815,1.363-3.636,2.007-5.461c2.288,1.048,4.578,2.092,6.862,3.149C731.569,637.665,731.609,637.667,731.65,637.682z     M729.288,629.079c0.851,1.978,1.587,4.017,2.223,6.102c-2.024-0.958-4.054-1.904-6.089-2.841c0.515-1.528,0.993-3.06,1.446-4.595    C727.668,628.203,728.472,628.653,729.288,629.079z M726.513,623.619c-0.002,0.003-0.004,0.004-0.005,0.007    c-0.127,0.257-0.24,0.523-0.364,0.781c-1.324-0.827-2.689-1.61-4.109-2.326c0.425-1.104,0.854-2.207,1.275-3.312    C724.463,620.344,725.539,621.959,726.513,623.619z M716.804,611.152c0.3,0.304,0.605,0.605,0.899,0.914    c-0.359-0.155-0.72-0.307-1.08-0.462C716.684,611.454,716.743,611.303,716.804,611.152z M720.25,615.521    c0.213,0.093,0.42,0.113,0.613,0.088c0.46,0.554,0.9,1.12,1.34,1.686c-0.003,0.007-0.009,0.009-0.012,0.016    c-0.599,1.323-1.185,2.651-1.779,3.977c-2.147-1.013-4.353-1.934-6.539-2.804c0.652-1.644,1.311-3.285,1.969-4.926    C717.312,614.211,718.777,614.877,720.25,615.521z M710.634,605.52c0.001-0.005,0-0.009,0.001-0.014    c1.759,1.454,3.461,2.979,5.093,4.57c-0.104,0.062-0.198,0.145-0.257,0.279c-0.094,0.212-0.187,0.425-0.28,0.638    c-1.835-0.788-3.67-1.577-5.509-2.356C710.004,607.599,710.327,606.562,710.634,605.52z M709.578,604.648    c-0.185,0.078-0.346,0.227-0.436,0.461c-0.364,0.948-0.727,1.895-1.09,2.842c-1.975-0.834-3.949-1.667-5.926-2.496    c0.558-1.747,1.05-3.502,1.426-5.264C705.602,601.587,707.618,603.077,709.578,604.648z M702.358,599.385    c-0.031,0.039-0.066,0.068-0.092,0.118c-0.843,1.636-1.581,3.334-2.271,5.059c-1.929-0.807-3.857-1.618-5.787-2.422    c0.659-2.218,1.25-4.441,1.744-6.664C698.096,596.675,700.239,597.987,702.358,599.385z M688.532,591.782    c1.943,0.84,3.86,1.761,5.743,2.765c-0.91,2.156-1.714,4.364-2.473,6.593c-1.964-0.817-3.928-1.634-5.892-2.451    C686.786,596.387,687.663,594.086,688.532,591.782z M685.75,590.642c-0.071,0.165-0.138,0.332-0.208,0.497    c-0.096-0.089-0.201-0.168-0.314-0.239c-0.315-0.259-0.63-0.519-0.945-0.778C684.771,590.298,685.264,590.455,685.75,590.642z     M685.498,599.779c1.952,0.896,3.904,1.793,5.856,2.69c-0.673,2.018-1.326,4.044-2.005,6.052c-2.041-0.93-4.061-1.903-6.053-2.941    C684.031,603.646,684.763,601.712,685.498,599.779z M682.881,606.676c1.975,1.112,3.987,2.149,6.021,3.142    c-0.142,0.408-0.281,0.817-0.426,1.223c-0.552,1.541-1.115,3.078-1.683,4.612c-2.116-0.852-4.226-1.722-6.348-2.556    C681.256,610.956,682.067,608.815,682.881,606.676z M680.048,614.142c2.086,0.94,4.166,1.893,6.251,2.835    c-0.895,2.399-1.811,4.789-2.741,7.175c-2.144-0.772-4.289-1.535-6.436-2.278C678.088,619.293,679.072,616.719,680.048,614.142z     M674.883,627.876c0.626-1.699,1.265-3.393,1.898-5.089c2.093,0.885,4.177,1.784,6.268,2.672    c-0.795,2.026-1.599,4.048-2.417,6.065c-0.027,0.066-0.055,0.131-0.082,0.196c-2.069-0.783-4.139-1.563-6.215-2.321    C674.519,628.892,674.697,628.381,674.883,627.876z M673.92,630.553c2.003,0.892,4.01,1.77,6.019,2.642    c-0.889,2.176-1.792,4.345-2.701,6.512c-1.895-0.808-3.79-1.614-5.689-2.411C672.329,635.038,673.118,632.791,673.92,630.553z     M671.133,638.499c1.836,0.879,3.681,1.741,5.526,2.602c-0.992,2.349-2.008,4.689-3.024,7.028c-1.758-0.699-3.552-1.283-5.338-1.5    C669.263,643.927,670.198,641.211,671.133,638.499z M667.895,647.76c1.693,0.269,3.462,0.837,5.232,1.548    c-0.435,0.998-0.857,2.003-1.297,2.999c-0.592,1.344-1.185,2.687-1.781,4.028c-1.609-0.508-3.219-1.002-4.833-1.473    C666.149,652.515,667.034,650.143,667.895,647.76z M664.538,656.536c1.547,0.591,3.096,1.176,4.645,1.759    c-0.473,1.068-0.948,2.136-1.417,3.206c-1.522-0.599-3.04-1.206-4.568-1.792C663.654,658.658,664.102,657.6,664.538,656.536z     M662.81,660.582c1.475,0.699,2.954,1.39,4.43,2.086c-0.433,0.93-0.778,1.72-0.684,2.686c-1.399-0.687-2.791-1.388-4.196-2.059    c0.5-0.237,0.509-1.14-0.108-1.239c-0.034-0.005-0.057-0.016-0.087-0.022C662.385,661.554,662.595,661.066,662.81,660.582z     M660.932,635.884c0.065-0.25,0.129-0.5,0.193-0.751c0.02,0.025,0.04,0.051,0.061,0.075c-0.01,0.221-0.014,0.444-0.024,0.665    c-0.2,0.207-0.36,0.474-0.445,0.822c-0.105,0.43-0.2,0.861-0.298,1.291c-0.033-0.349-0.069-0.699-0.113-1.05    C660.585,636.688,660.812,636.349,660.932,635.884z M639.094,632.706c-0.067,0.044-0.129,0.095-0.191,0.147    c-0.042-0.018-0.083-0.037-0.125-0.056c-0.425-0.55-0.848-1.101-1.273-1.651C638.027,631.673,638.561,632.19,639.094,632.706z     M624.533,592.935c0.013,0.106,0.033,0.211,0.062,0.315c-1.36,0.557-2.704,1.167-4.031,1.83    C621.86,594.312,623.184,593.597,624.533,592.935z M608.098,605.018c0.885-0.934,1.807-1.823,2.745-2.69    c1.675,2.804,3.657,5.487,5.722,8.114c-3.38-1.361-7.761-3.012-9.866-3.893C607.155,606.032,607.621,605.521,608.098,605.018z     M605.611,607.825c1.292,0.909,3.231,1.348,4.497,1.886c2.757,1.172,5.751,2.792,8.731,3.58c1.585,1.957,3.175,3.895,4.676,5.837    c0.123,0.159,0.246,0.318,0.369,0.478c-6.759-3.306-13.946-6.012-21.031-8.242C603.732,610.156,604.652,608.976,605.611,607.825z     M602.182,612.291c8.472,3.31,16.53,7.158,24.663,11.143c1.585,2.05,3.169,4.099,4.754,6.149    c-10.451-4.735-20.769-9.695-30.942-15.035C601.149,613.785,601.66,613.034,602.182,612.291z M599.977,615.63    c11.091,6.428,22.546,12.315,34.309,17.429c0.606,0.783,1.211,1.566,1.816,2.349c-5.13-2.045-10.307-3.995-15.341-6.251    c-7.575-3.395-14.868-7.326-22.341-10.916C598.921,617.36,599.443,616.491,599.977,615.63z M597.879,619.234    c7.157,4.664,14.926,8.524,22.606,12.216c6.149,2.956,12.511,6.04,19.017,8.358c0.98,1.269,1.96,2.538,2.94,3.807    c-6.581-3.083-13.593-5.628-20.053-8.45c-4.845-2.117-9.688-4.238-14.527-6.366c-3.962-1.743-8.357-3.201-12.068-5.503    C596.449,621.921,597.149,620.569,597.879,619.234z M595.328,624.267c3.124,2.504,7.2,3.897,10.765,5.605    c5.049,2.42,10.102,4.834,15.159,7.238c8.2,3.899,16.675,8.762,25.346,11.85c1.571,2.019,3.138,4.041,4.728,6.044    c0.079,0.1,0.168,0.225,0.253,0.338c-19.057-9.468-38.168-19.393-57.766-27.61C594.292,626.565,594.801,625.411,595.328,624.267z     M593.369,628.82c19.519,11.667,40.714,21.315,61.323,30.833c0.689,0.865,1.423,1.684,2.196,2.314    c-10.012-5.827-21.421-10.111-31.868-14.965c-10.906-5.067-21.839-10.147-32.892-14.891    C592.519,631.004,592.938,629.909,593.369,628.82z M656.731,664.645c-0.112,0.11-0.226,0.219-0.339,0.329    c-0.647-0.409-1.303-0.805-1.964-1.193C655.194,664.08,655.962,664.367,656.731,664.645z M591.719,633.273    c10.878,5.627,21.942,10.948,32.987,16.232c4.133,1.977,8.286,4.137,12.472,6.27c-4.196-1.641-8.418-3.195-12.529-4.84    c-11.366-4.549-22.724-9.35-34.283-13.406C590.787,636.1,591.239,634.681,591.719,633.273z M590.053,638.641    c10.257,4.756,20.845,8.922,31.287,13.237c10.668,4.409,21.724,8.348,31.791,14.056c0.086,0.152,0.204,0.29,0.397,0.383    c0.329,0.159,0.659,0.318,0.988,0.477c-1.265,1.275-2.511,2.573-3.741,3.888c-2.816-3.327-8.687-4.867-12.482-6.579    c-5.956-2.686-11.919-5.355-17.892-8.004c-10.396-4.61-20.803-9.343-31.409-13.473    C589.32,641.292,589.678,639.964,590.053,638.641z M587.43,649.815c1.457,1.961,3.83,2.909,6.249,4.011    c5.451,2.483,10.879,5.013,16.306,7.548c11.132,5.198,21.825,11.569,33.059,16.483c1.283,0.561,2.34-1.116,1.118-1.913    c-8.883-5.792-19.077-10.151-28.671-14.645c-4.581-2.146-9.197-4.204-13.855-6.177c-3.963-1.679-11.388-3.222-13.827-7.222    c0.279-1.382,0.588-2.761,0.913-4.138c9.968,5.154,20.252,9.775,30.435,14.466c5.337,2.458,10.678,4.903,16.03,7.328    c4.624,2.095,9.31,5.029,14.039,6.794c-2.453,2.676-4.854,5.409-7.219,8.172c-0.024-0.017-0.036-0.041-0.062-0.057    c-9.182-5.423-19.239-9.682-28.819-14.367c-8.746-4.277-17.429-8.773-26.307-12.784    C587.007,652.149,587.212,650.982,587.43,649.815z M586.572,654.838L586.572,654.838c8.657,4.736,17.583,9.029,26.367,13.51    c9.13,4.657,18.195,9.867,27.645,13.845c-0.311,0.366-0.623,0.73-0.933,1.096c-0.148-0.057-0.303-0.094-0.457-0.092l-0.396,0.005    c-0.314,0.004-0.586,0.131-0.793,0.326c-1.886-0.507-5.319-2.935-6.361-3.48c-2.294-1.202-4.592-2.394-6.901-3.568    c-4.62-2.348-9.265-4.645-13.928-6.905c-8.188-3.967-16.378-7.936-24.63-11.771C586.309,656.817,586.423,655.827,586.572,654.838z     M586.012,659.144c9.279,4.954,18.645,9.751,27.965,14.627c5.16,2.699,10.323,5.392,15.476,8.107    c1.968,1.037,5.051,3.613,7.761,4.295c-0.678,0.804-1.356,1.608-2.034,2.41c-8.032-5.174-17.711-8.619-26.276-12.844    c-7.765-3.83-15.391-8.255-23.342-11.71C585.675,662.403,585.829,660.774,586.012,659.144z M585.451,665.788    c7.651,4.775,16.097,8.595,24.108,12.644c7.812,3.948,15.941,8.95,24.312,11.696c-0.898,1.059-1.797,2.118-2.699,3.167    c-0.092-0.246-0.241-0.471-0.49-0.579c-0.219-0.096-0.439-0.192-0.658-0.288c-0.453-0.198-0.854-0.128-1.155,0.069    c-14.759-6.88-29.333-14.034-43.554-21.974C585.313,668.95,585.369,667.37,585.451,665.788z M585.844,679.547    c6.496,3.481,13.06,6.84,19.591,10.254c6.077,3.177,12.513,7.551,19.056,9.617c1.108,0.35,1.558-1.147,0.738-1.751    c-5.712-4.206-13.297-6.902-19.649-10.047c-6.64-3.288-13.254-6.641-19.934-9.847c-0.17-1.734-0.267-3.483-0.312-5.24    c14.135,8.557,28.744,16.434,43.907,23.003c-1.91,2.211-3.82,4.423-5.731,6.634c-11.584-6.661-24.451-12.214-36.798-17.448    C586.347,683.015,586.063,681.288,585.844,679.547z M587.125,686.486c11.358,6.126,23.228,12.359,35.166,17.096    c-1.037,1.202-2.078,2.4-3.113,3.603c-9.379-6.212-20.273-10.912-30.536-15.619C588.046,689.896,587.55,688.2,587.125,686.486z     M589.302,693.286c9.354,5.315,18.794,11.106,28.611,15.369c-0.367,0.428-0.737,0.853-1.103,1.281    c-0.461,0.54-0.921,1.081-1.382,1.621c-7.074-4.647-15.24-8.213-22.986-11.768C591.211,697.673,590.184,695.499,589.302,693.286z     M597.74,707.193c-0.47-0.567-0.958-1.122-1.413-1.699c-0.786-0.997-1.519-2.01-2.209-3.036    c6.629,3.695,13.426,7.465,20.443,10.115c-0.644,0.754-1.287,1.51-1.931,2.265c-2.638-1.136-5.252-2.302-7.802-3.631    C602.429,709.957,600.156,708.408,597.74,707.193z M610.356,717.505c-0.393,0.463-0.796,0.876-1.145,1.3    c-2.656-2.255-5.173-4.664-7.556-7.184c3.106,1.883,6.547,3.389,9.76,4.642C611.062,716.677,610.708,717.09,610.356,717.505z     M611.817,720.936c-0.044-0.193-0.133-0.363-0.265-0.503c3.002-2.24,32.589-36.656,44.398-51.064    c-5.099,9.127-9.548,18.677-14.266,27.968c-2.817,5.547-5.656,11.083-8.473,16.63c-2.633,5.185-5.887,10.406-7.896,15.897    C620.589,727.286,616.061,724.289,611.817,720.936z M664.659,739.962c0.498-1.665,0.916-3.739,0.638-5.436    c-0.09-0.552-1.009-0.681-1.237-0.162c-0.718,1.632-0.818,3.839-0.736,5.609c-4.039-0.037-8.088-0.403-12.098-1.063    c1.094-1.837,2.228-3.977,2.787-6.035c0.21-0.774-0.847-1.19-1.269-0.535c-1.167,1.812-2.004,4.136-2.638,6.193    c-0.019,0.061-0.019,0.117-0.019,0.173c-5.612-1.009-11.139-2.606-16.435-4.825c-1.97-0.826-3.915-1.727-5.831-2.697    c3.465-5.016,5.913-11.036,8.667-16.437c2.977-5.835,5.914-11.69,8.849-17.545c5.117-10.207,10.576-20.404,14.885-31.004    c10.099,22.995,21.502,45.399,31.416,68.495C683.147,738.165,673.946,739.888,664.659,739.962z M691.88,727.487    c3.453-9.133,7.036-18.216,10.534-27.332c-2.797,10.745-5.735,21.455-8.498,32.207C693.24,730.739,692.562,729.114,691.88,727.487    z M695.684,732.852c3.798-10.16,7.828-20.226,12.097-30.193c-2.822,9.244-5.656,18.484-8.487,27.725    c-0.066,0.216-0.04,0.395,0.025,0.547C698.126,731.609,696.915,732.25,695.684,732.852z M701.338,729.761    c2.306-5.711,4.621-11.419,6.924-17.132c-1.503,4.976-3.014,9.949-4.598,14.895c-0.077,0.242,0.035,0.446,0.21,0.569    C703.039,728.666,702.198,729.23,701.338,729.761z M718.005,714.518c-0.024,0.077-0.017,0.143-0.021,0.214    c-3.793,4.928-8.174,9.121-12.997,12.583c3.452-6.776,6.91-13.55,10.351-20.332c-1.615,4.44-3.237,8.876-4.854,13.314    c-0.295,0.81,0.886,1.199,1.321,0.557c3.212-4.732,6.077-9.636,8.616-14.718C719.659,708.939,718.861,711.734,718.005,714.518z     M720.939,710.62c1.079-3.72,2.084-7.461,3.004-11.224c0.876,0.356,1.756,0.686,2.644,0.95    C724.967,703.907,723.09,707.348,720.939,710.62z M727.647,697.912c-1.99-1.606-4.269-2.942-6.62-4.175    c0.018-0.029,0.043-0.047,0.059-0.082c0.614-1.393,1.202-2.805,1.805-4.207c2.104,0.943,4.218,1.847,6.354,2.666    c0.214,0.082,0.4,0.065,0.563,0.005C729.156,694.076,728.439,696.01,727.647,697.912z M730.248,690.728    c-0.068-0.121-0.155-0.232-0.285-0.316c-1.927-1.248-3.926-2.42-5.961-3.554c0.577-1.361,1.157-2.719,1.726-4.086    c1.979,1.017,3.954,2.038,5.921,3.08C731.231,687.491,730.756,689.115,730.248,690.728z M733.895,673.968    c-0.406,3.233-0.977,6.456-1.707,9.645c-1.849-0.995-3.719-1.975-5.593-2.953c0.856-2.076,1.715-4.15,2.557-6.234    c1.081,0.425,2.164,0.84,3.252,1.236c1.021,0.372,1.655-1.215,0.731-1.735c-1.025-0.577-2.064-1.135-3.11-1.684    c0.885-2.205,1.77-4.41,2.645-6.616c0.61,0.217,1.216,0.452,1.827,0.659c0.038,0.013,0.072,0.005,0.109,0.013    C734.445,668.899,734.209,671.466,733.895,673.968z M733.456,663.647c0.451-1.137,0.9-2.271,1.349-3.406    c-0.009,1.34-0.033,2.677-0.091,4.005C734.298,664.041,733.874,663.849,733.456,663.647z" />
		<path style="fill:#3C3C3B;" d="M636.218,729.529c-0.865,1.097-1.271,2.299-1.727,3.603c-0.351,1.002,1.29,1.716,1.735,0.731    c0.57-1.261,1.123-2.417,1.252-3.813C637.535,729.444,636.608,729.035,636.218,729.529z" />
		<path style="fill:#3C3C3B;" d="M648.833,728.537c-0.649,0.386-0.937,1.066-1.29,1.706c-0.355,0.643-0.71,1.286-1.065,1.928    c-0.583,1.056,0.955,1.941,1.609,0.94c0.402-0.616,0.804-1.231,1.206-1.847c0.409-0.626,0.852-1.184,0.89-1.955    C650.216,728.626,649.396,728.201,648.833,728.537z" />
		<path style="fill:#3C3C3B;" d="M660.161,730.891c0.186-0.856-0.837-1.523-1.498-0.872c-1.288,1.268-1.318,3.54-0.598,5.111    c0.347,0.758,1.662,0.395,1.589-0.43c-0.058-0.655-0.146-1.279-0.012-1.932C659.772,732.131,660.023,731.528,660.161,730.891z" />
		<path style="fill:#3C3C3B;" d="M671.312,732.014c-0.068-0.689-1.112-1.19-1.474-0.399c-0.795,1.735-0.772,3.925-0.957,5.805    c-0.082,0.832,1.26,0.997,1.45,0.196C670.749,735.857,671.492,733.835,671.312,732.014z" />
		<path style="fill:#3C3C3B;" d="M679.514,728.255c-0.417-0.681-1.46-0.546-1.687,0.221c-0.248,0.836-0.11,1.708-0.151,2.569    c-0.045,0.948-0.245,1.849-0.548,2.748c-0.354,1.049,1.367,1.806,1.815,0.765C679.707,732.787,680.617,730.057,679.514,728.255z" />
		<path style="fill:#3C3C3B;" d="M687.673,733.784c-0.431-1.428-0.793-2.85-1.502-4.168c-0.466-0.867-1.679-0.243-1.51,0.637    c0.267,1.395,0.865,2.665,1.401,3.975C686.458,735.192,687.993,734.842,687.673,733.784z" />
		<path style="fill:#3C3C3B;" d="M676.219,730.496c-0.382-1.843-0.611-3.813-1.369-5.544c-0.325-0.742-1.614-0.377-1.54,0.417    c0.177,1.883,0.941,3.719,1.502,5.515C675.093,731.784,676.409,731.413,676.219,730.496z" />
		<path style="fill:#3C3C3B;" d="M644.325,724.252c-0.58,0.637-0.753,1.426-0.972,2.241c-0.239,0.891-0.478,1.783-0.717,2.674    c-0.236,0.881,1.022,1.185,1.339,0.369l0.946-2.431c0.297-0.762,0.675-1.528,0.589-2.362    C645.453,724.192,644.766,723.766,644.325,724.252z" />
		<path style="fill:#3C3C3B;" d="M640.13,717.695c-1.382,2.179-2.481,4.539-3.859,6.729c-0.252,0.401,0.34,0.872,0.662,0.511    c1.764-1.974,3.508-4.218,4.466-6.706C641.692,717.47,640.534,717.058,640.13,717.695z" />
		<path style="fill:#3C3C3B;" d="M653.361,718.997c-0.878,1.718-1.166,3.589-1.566,5.462c-0.215,1.005,1.226,1.41,1.542,0.425    c0.587-1.824,1.272-3.596,1.367-5.523C654.739,718.656,653.684,718.365,653.361,718.997z" />
		<path style="fill:#3C3C3B;" d="M648.193,713.874c-1.91,1.46-2.726,3.859-2.991,6.172c-0.107,0.933,1.445,1.136,1.64,0.222    c0.429-2.012,1.496-3.497,2.518-5.227C649.763,714.358,648.9,713.333,648.193,713.874z" />
		<path style="fill:#3C3C3B;" d="M666.066,720.474c-0.255-0.669-1.172-0.885-1.574-0.206c-0.628,1.06-0.564,2.335-0.659,3.539    c-0.111,1.41-0.166,2.821-0.228,4.233c-0.058,1.331,1.865,1.253,2.021,0c0.165-1.316,0.34-2.63,0.462-3.951    C666.199,722.897,666.501,721.615,666.066,720.474z" />
		<path style="fill:#3C3C3B;" d="M660.073,715.2c-0.807,2.098-1.092,4.433-1.453,6.642c-0.136,0.831,1.044,1.199,1.288,0.355    c0.642-2.212,1.387-4.5,1.563-6.808C661.537,714.531,660.34,714.504,660.073,715.2z" />
		<path style="fill:#3C3C3B;" d="M680.967,721.792c-0.322-1.685-0.836-3.353-1.361-4.985c-0.434-1.349-0.727-2.93-1.764-3.939    c-0.537-0.523-1.266-0.091-1.35,0.559c-0.195,1.507,0.701,3.176,1.236,4.568c0.565,1.474,1.148,2.97,1.875,4.373    C680.012,723.161,681.118,722.583,680.967,721.792z" />
		<path style="fill:#3C3C3B;" d="M671.951,719.733c-0.526-1.124-0.875-2.346-0.997-3.584c-0.097-0.989,0.005-1.971-0.143-2.957    c-0.122-0.813-1.186-0.578-1.424,0c-0.94,2.289,0.194,5.243,1.44,7.198C671.284,721.106,672.302,720.484,671.951,719.733z" />
		<path style="fill:#3C3C3B;" d="M665.461,705.852c-0.278-0.705-1.162-0.706-1.441,0c-0.405,1.027-0.297,2.117-0.235,3.199    c0.061,1.06,0.068,2.138,0.455,3.138c0.19,0.49,0.81,0.49,1,0c0.388-1,0.394-2.078,0.455-3.138    C665.758,707.969,665.866,706.88,665.461,705.852z" />
		<path style="fill:#3C3C3B;" d="M672.951,704.812c-0.202-1.279-0.221-2.689-0.927-3.802c-0.315-0.497-1.27-0.501-1.381,0.181    c-0.201,1.228,0.197,2.335,0.495,3.528c0.347,1.389,0.719,2.766,1.133,4.137c0.188,0.624,1.268,0.546,1.191-0.161    C673.321,707.394,673.154,706.104,672.951,704.812z" />
		<path style="fill:#3C3C3B;" d="M655.598,707.368c-0.09,1.779-0.274,3.557-0.396,5.334c-0.057,0.83,1.318,1.031,1.467,0.198    c0.314-1.752,0.568-3.519,0.914-5.264C657.868,706.197,655.672,705.894,655.598,707.368z" />
		<path style="fill:#3C3C3B;" d="M646.973,702.003c-2.267,1.491-3.646,4.637-4.26,7.19c-0.209,0.87,1.018,1.182,1.322,0.365    c0.463-1.244,1.018-2.437,1.75-3.547c0.683-1.036,1.591-1.894,2.259-2.937C648.459,702.424,647.625,701.574,646.973,702.003z" />
		<path style="fill:#3C3C3B;" d="M651.947,699.831c-0.856,2.128-1.481,4.436-1.906,6.692c-0.167,0.886,0.984,1.167,1.322,0.365    c0.891-2.116,1.648-4.39,2.11-6.636C653.681,699.236,652.322,698.899,651.947,699.831z" />
		<path style="fill:#3C3C3B;" d="M659.921,698.484c-0.289,0.953-0.286,2.01-0.366,3.001c-0.087,1.071-0.188,2.144-0.189,3.22    c-0.001,0.693,1.023,0.836,1.208,0.164c0.286-1.036,0.476-2.098,0.678-3.154c0.187-0.982,0.472-1.989,0.447-2.99    C661.674,697.702,660.22,697.499,659.921,698.484z" />
		<path style="fill:#3C3C3B;" d="M669.132,693.102c-0.167-1.166-0.362-2.771-1.346-3.533c-0.57-0.442-1.284-0.158-1.365,0.565    c-0.116,1.03,0.486,2.052,0.698,3.058c0.246,1.168,0.328,2.353,0.286,3.544c-0.033,0.929,1.516,1.178,1.657,0.224    C669.253,695.665,669.318,694.404,669.132,693.102z" />
		<path style="fill:#3C3C3B;" d="M663.33,695.196c-0.384-1.228-0.697-2.499-0.865-3.775c-0.157-1.194-0.004-2.426-0.294-3.593    c-0.199-0.8-1.405-0.791-1.61,0c-0.639,2.464,0.692,5.628,1.919,7.726C662.74,696.003,663.49,695.709,663.33,695.196z" />
		<path style="fill:#3C3C3B;" d="M656.632,692.383c-0.276-0.503-1.079-0.39-1.221,0.16c-0.314,1.211-0.029,2.505-0.221,3.753    c-0.221,1.439-0.807,2.916-1.535,4.177c-0.265,0.46,0.397,1.019,0.759,0.586C656.128,699.011,658.079,695.019,656.632,692.383z" />
		<path style="fill:#3C3C3B;" d="M654.774,684.809c-1.943,2.232-3.001,5.645-4.007,8.401c-0.27,0.738,0.85,1.158,1.237,0.522    c1.468-2.411,3.49-5.393,4.004-8.205C656.129,684.869,655.303,684.202,654.774,684.809z" />
		<path style="fill:#3C3C3B;" d="M659.375,677.16c-0.177-0.487-0.895-0.836-1.293-0.341c-0.673,0.837-0.748,1.827-0.884,2.875    c-0.159,1.232-0.283,2.484-0.322,3.726c-0.027,0.861,1.225,0.989,1.467,0.199c0.344-1.121,0.611-2.27,0.852-3.418    C659.403,679.222,659.727,678.126,659.375,677.16z" />
		<path style="fill:#3C3C3B;" d="M664.029,678.351c-0.487-0.695-1.536-0.274-1.365,0.576c0.308,1.537,0.781,2.851,0.675,4.456    c-0.053,0.799,1.28,0.997,1.416,0.192C665.038,681.882,665.054,679.816,664.029,678.351z" />
	</g>
	</svg>