<?xml version='1.0' encoding='utf-8'?>
<svg xmlns="http://www.w3.org/2000/svg" version="1.1" xmlns="http://www.w3.org/2000/svg" viewBox="0 0 800 800" style="enable-background:new 0 0 800 800;"><g>
		<path style="fill:#3C3C3B;stroke:#E61D73;stroke-width:0;stroke-linecap:round;stroke-linejoin:round;" d="M330.251,547.695    c0.016,0,0.016-0.025,0-0.025" />
		<path style="fill:#3C3C3B;" d="M342.028,514.814c-4.943-0.625-10.161-0.555-15.101-0.1c-0.257,0.024-0.457,0.168-0.597,0.354    c-0.512,0.067-0.996,0.371-1.124,0.916c-1.154,4.918-0.777,10.378-0.784,15.414c-0.007,5.412,0.052,10.842,0.476,16.24    c-0.087,0.068-0.182,0.117-0.266,0.193c-0.311,0.285-0.234,0.706,0.014,0.959l-0.014,0.014c1.888,1.85,4.975,1.334,7.464,1.367    c3.148,0.041,6.882,0.415,9.847-0.742c0.217-0.085,0.384-0.219,0.524-0.37c0.629-0.064,1.208-0.515,1.246-1.378    c0.479-10.657,0.152-21.334,0.783-31.988C344.582,514.228,342.826,513.954,342.028,514.814z M341.462,517.95    c-0.101,1.224-0.194,2.448-0.286,3.672c-2.756-1.45-5.531-2.768-8.24-4.25C335.78,517.753,338.66,517.975,341.462,517.95z     M332.095,546.572c-1.393,0.025-2.936-0.128-4.37,0.026c0.04-1.189,0.067-2.379,0.089-3.569c1.785,1.265,3.643,2.486,5.575,3.5    C332.951,546.548,332.517,546.565,332.095,546.572z M336.187,546.413c-2.713-1.694-5.589-3.135-8.353-4.766    c0.012-0.854,0.018-1.708,0.026-2.563c3.617,2.558,7.558,5.125,11.615,6.381c0.611,0.189,0.953-0.689,0.427-1.012    c-2.351-1.446-5.035-2.398-7.478-3.703c-1.552-0.829-3.065-1.725-4.554-2.658c0.01-1.156,0.022-2.312,0.032-3.469    c3.949,2.607,8.211,5.346,12.609,7.12c0.051,1.651,0.125,3.302,0.253,4.954C339.305,546.4,337.742,546.37,336.187,546.413z     M334.618,529.706c1.915,1.258,3.8,2.773,5.909,3.704c-0.019,0.678-0.048,1.355-0.059,2.033c-1.878-1.096-4.086-1.713-6.033-2.678    c-2.201-1.092-4.336-2.308-6.448-3.564c0.042-1.246,0.096-2.502,0.138-3.759C330.29,526.863,332.454,528.284,334.618,529.706z     M328.16,524.279c0.026-1.046,0.028-2.089,0.008-3.13c4.044,2.478,8.067,5.203,12.291,7.321c0.09,0.045,0.178,0.064,0.263,0.076    c-0.052,0.985-0.101,1.97-0.139,2.956c-1.63-1.172-3.516-2.06-5.229-3.053C332.956,527.058,330.558,525.669,328.16,524.279z     M334.092,534.275c1.978,1.034,4.13,2.391,6.353,2.803c-0.005,0.915-0.001,1.831,0.013,2.746    c-4.097-2.208-8.448-4.069-12.546-6.289c0.007-0.712,0.011-1.425,0.02-2.137c0.003-0.257,0.012-0.517,0.018-0.776    C329.936,531.944,331.976,533.169,334.092,534.275z M328.129,519.932c-0.052-1.147-0.143-2.287-0.309-3.41    c0.589,0.116,1.183,0.226,1.78,0.331c3.442,2.46,7.126,4.876,11.049,6.414c0.146,0.058,0.28,0.055,0.406,0.029    c-0.086,1.22-0.17,2.44-0.243,3.66C336.78,524.361,332.339,522.23,328.129,519.932z" />
		<path style="fill:#3C3C3B;" d="M372.314,525.666c0.141-7.516,0.893-15.515-0.159-22.964c-0.164-1.156-2.081-1.108-2.288,0    c-0.021,0.109-0.032,0.221-0.052,0.33c-6.616-1.171-13.535-1.083-20.221-1.29c-0.857-0.027-1.283,0.917-1.089,1.607    c-0.202,0.246-0.333,0.574-0.333,0.994c-0.018,7.55,0.37,15.116,0.629,22.661c0.046,1.344,0.046,2.757,0.038,4.205    c-0.515,0.098-0.517,0.844-0.005,0.946c-0.031,4.99-0.056,10.321,1.442,14.751c-0.126,0.018-0.252,0.03-0.378,0.048    c-1.528,0.223-1.045,2.493,0.348,2.572c3.47,0.197,6.924,0.215,10.398,0.097c2.811-0.095,5.716,0.152,8.273-1.099    c1.089-0.532,0.629-1.988-0.307-2.345c-2.849-1.09-6.349-0.401-9.353-0.214c-2.363,0.147-4.708,0.399-7.051,0.697    c0.22-0.874,0.376-1.78,0.492-2.705c5.128,0.154,10.968,0.668,15.898-0.528c0.126,1.064,0.343,2.109,0.74,3.115    c0.205,0.521,1.075,0.831,1.366,0.178C373.357,540.767,372.193,532.094,372.314,525.666z M369.365,506.138    c-0.077,0.669-0.13,1.346-0.184,2.022c-5.905-0.246-11.728-0.039-17.646-0.563c-0.06-1.086-0.124-2.171-0.201-3.255    c-0.001-0.006-0.002-0.01-0.003-0.016C357.282,505.182,363.374,506.187,369.365,506.138z M368.527,536.497    c-0.013,1.807-0.131,3.66-0.051,5.48c-4.949-0.783-10.609,0.12-15.645,0.656c0.11-1.398,0.126-2.835,0.095-4.281    c4.868,0.241,10.106,0.722,14.852,0.034c0.697-0.101,0.697-1.306,0-1.407c-4.762-0.69-10.017-0.204-14.895,0.036    c-0.065-1.564-0.178-3.126-0.291-4.659c4.99,0.276,10.077,0.616,14.991,0.206c1.129-0.094,1.131-1.663,0-1.758    c-4.947-0.413-10.065-0.066-15.086,0.211c-0.1-1.378-0.192-2.73-0.236-4.01c-0.006-0.185-0.011-0.371-0.018-0.556    c4.962,1.332,11.365,2.71,16.419,1.469C368.599,530.776,368.548,533.638,368.527,536.497z M368.802,520.498    c-0.081-0.109-0.201-0.19-0.37-0.216c-2.401-0.359-4.854-0.048-7.279-0.07c-2.757-0.024-5.509-0.218-8.258-0.408    c-0.819-0.056-1.022,1.316-0.196,1.45c4.834,0.787,10.959,1.709,15.734,0.366c0.156-0.044,0.278-0.147,0.362-0.276    c-0.011,1.119-0.026,2.234-0.056,3.336c-0.014,0.503-0.022,1.006-0.034,1.509c-2.281-0.148-4.596,0.197-6.89,0.173    c-3.218-0.033-6.423-0.365-9.598-0.881c-0.093-2.871-0.177-5.744-0.273-8.618c5.162,0.211,10.79,0.938,15.822,0.128    c0.638-0.102,0.638-1.185,0-1.288c-5.044-0.812-10.687-0.08-15.855,0.129c-0.032-0.918-0.075-1.835-0.112-2.752    c5.602,0.532,11.683,0.541,17.108,0.015C368.829,515.568,368.822,518.047,368.802,520.498z M368.918,511.602    c-5.446-0.529-11.557-0.52-17.183,0.019c-0.043-0.983-0.092-1.966-0.142-2.949c5.566,1.203,11.84,1.958,17.47,1.194    c-0.034,0.583-0.07,1.165-0.095,1.75C368.95,511.613,368.937,511.603,368.918,511.602z" />
		<path style="fill:#3C3C3B;" d="M397.484,525.775c-0.369-0.727-1.571-0.624-1.846,0.12c-0.204-0.157-0.44-0.28-0.724-0.313    c-4.267-0.498-8.787,0.1-13.153,0.113c0-0.004,0-0.009,0-0.013c-0.046-1.949-2.876-1.918-3.006,0    c-0.497,7.347-0.241,15.054,1.168,22.293c0.086,0.443,0.381,0.682,0.726,0.77c-0.076,0.392,0.09,0.837,0.45,1.06    c2.229,1.379,5.303,0.966,7.837,0.937c2.506-0.029,5.265,0.204,7.59-0.809c0.283,0.887,1.794,1.106,1.96,0.016    C399.576,542.736,400.902,532.506,397.484,525.775z M388.37,547.426c-2.053,0.016-4.251-0.293-6.214,0.296    c0.001-0.018,0.01-0.032,0.01-0.051c0.058-6.619-0.179-13.285-0.352-19.914c0.558,0.11,1.126,0.217,1.701,0.318    c-0.19,5.768-0.37,12.903,1.323,18.382c0.095,0.307,0.586,0.346,0.661,0c1.194-5.516,0.453-12.428-0.221-18.096    c0.524,0.077,1.051,0.144,1.578,0.204c0.393,5.96,1.02,11.781,0.858,17.804c-0.029,1.081,1.55,1.039,1.652,0    c0.562-5.718,0.677-11.916-0.517-17.629c1.103,0.066,2.2,0.076,3.272,0.008c-0.587,2.901-0.293,6.002-0.292,8.947    c0.001,2.825-0.292,5.882,0.237,8.667c0.087,0.458,0.696,0.811,1.135,0.644c0.428-0.162,0.585-0.367,0.743-0.788    c0.036-0.096-0.004-0.232-0.079-0.299c-0.017-0.015-0.034-0.031-0.051-0.046c0.004-0.102,0.012-0.199,0.039-0.27    c0.627-1.631,0.124-4.771,0.131-6.471c0.014-3.439,0.433-7.165-0.287-10.549c0.536-0.078,1.064-0.18,1.579-0.309    c0.028-0.007,0.044-0.024,0.071-0.032c-0.123,2.913,0.439,5.931,0.61,8.818c0.208,3.523,0.333,7.049,0.44,10.576    C393.912,546.837,390.957,547.406,388.37,547.426z" />
		<path style="fill:#3C3C3B;" d="M425.598,497.685c-0.032-1.173-1.066-1.682-1.953-1.523c-0.205-0.094-0.447-0.153-0.73-0.159    c-5.998-0.144-11.985,0.226-17.986-0.095c-0.576-0.031-0.925,0.424-0.986,0.91c-0.635,0.163-1.144,0.672-1.093,1.55    c0.481,8.284,1.149,16.561,1.738,24.838c0.178,2.508,3.168,23.983,1.506,24.606c-1.364,0.511-0.82,2.363,0.594,2.153    c0.104-0.016,0.193-0.044,0.289-0.067c3.194,0.419,6.413,0.607,9.633,0.659c2.831,0.045,5.976,0.344,8.641-0.654    c0.478-0.179,0.754-0.543,0.844-0.937c0.59-0.035,1.126-0.439,1.126-1.261C427.237,531.038,426.057,514.345,425.598,497.685z     M422.938,527.997c0.093,1.923,0.209,3.845,0.337,5.764c-0.001,0.001-0.003,0.001-0.004,0.002    c-2.372,1.549-4.523,3.44-6.716,5.228c-1.832,1.495-3.789,2.948-5.56,4.551c-0.634,0.208-1.043,0.565-1.386,1.138    c0.11-1.686,0.033-3.492-0.138-5.319C414.187,535.981,418.955,532.237,422.938,527.997z M406.6,503.231    c-0.129-1.621-0.254-3.243-0.392-4.863c-0.005-0.056-0.02-0.106-0.029-0.159c1.503,0.29,3.017,0.545,4.538,0.757    c-0.603,0.686-1.147,1.44-1.77,2.095C408.21,501.836,407.415,502.545,406.6,503.231z M406.735,504.909    c1.131-0.761,2.2-1.612,3.203-2.538c0.99-0.913,2.155-1.923,2.78-3.157c1.02,0.111,2.042,0.185,3.065,0.239    c-1.596,1.448-3.001,3.22-4.335,4.787c-1.526,1.794-2.988,3.639-4.357,5.553C406.971,508.166,406.862,506.537,406.735,504.909z     M407.622,517.361c0.06-0.024,0.116-0.061,0.167-0.116c2.597-2.819,5.115-5.716,7.619-8.619c2.221-2.576,4.899-5.11,6.446-8.154    c0.19-0.374-0.232-0.939-0.637-0.637c-2.892,2.159-5.055,5.395-7.333,8.17c-2.148,2.617-4.283,5.246-6.362,7.918    c-0.109-1.539-0.209-3.078-0.321-4.616c1.803-2.184,3.626-4.347,5.577-6.404c1.71-1.803,3.773-3.442,5.352-5.383    c1.419,0.004,2.839-0.048,4.254-0.2c0.001,2.058,0.006,4.119,0.016,6.182c-5.19,4.883-9.961,10.585-14.486,16.059    C407.815,520.161,407.72,518.761,407.622,517.361z M408.008,522.928c0.034-0.021,0.069-0.035,0.101-0.066    c4.847-4.638,9.918-9.51,14.312-14.693c0.015,1.859,0.038,3.72,0.067,5.582c-5.075,3.853-9.646,8.811-14.197,13.254    C408.197,525.646,408.103,524.287,408.008,522.928z M408.58,531.154c-0.064-0.948-0.132-1.896-0.197-2.844    c0.119-0.006,0.24-0.042,0.352-0.139c4.538-3.93,9.605-7.811,13.797-12.201c0.032,1.603,0.074,3.206,0.121,4.809    c-0.109-0.003-0.22,0.018-0.323,0.093c-2.43,1.759-4.397,4.239-6.609,6.274c-2.249,2.069-4.618,3.983-6.967,5.933    C408.682,532.415,408.621,531.77,408.58,531.154z M416.273,528.443c2.175-1.833,4.674-3.727,6.433-6.015    c0.043,1.285,0.105,2.569,0.161,3.854c-0.163,0.002-0.333,0.052-0.49,0.192c-4.399,3.899-8.583,8.026-13.004,11.911    c-0.155-1.455-0.342-2.903-0.504-4.28C411.456,532.388,413.9,530.443,416.273,528.443z M409.215,547.398    c0.031-0.117,0.064-0.231,0.091-0.353c0.07-0.316,0.104-0.657,0.153-0.988c0.21,0.279,0.573,0.419,0.959,0.18    c2.39-1.476,4.545-3.435,6.737-5.191c2.109-1.69,4.292-3.347,6.272-5.195c0.066,0.884,0.151,1.765,0.225,2.648    c-1.765,0.939-3.205,2.731-4.634,4.097c-1.513,1.446-3.014,2.907-4.47,4.411C412.766,547.09,410.987,547.208,409.215,547.398z     M416.299,546.924c1.261-1.085,2.508-2.189,3.74-3.306c1.199-1.087,2.674-2.162,3.754-3.445c0.105,1.16,0.215,2.32,0.335,3.478    c-0.392,0.417-0.766,0.855-1.173,1.268c-0.665,0.675-1.38,1.294-2.118,1.887C419.309,546.77,417.761,546.868,416.299,546.924z     M422.421,546.899c0.377-0.291,0.754-0.584,1.115-0.896c0.26-0.225,0.522-0.454,0.78-0.69c0.073,0.657,0.142,1.314,0.223,1.97    C423.855,547.093,423.144,546.974,422.421,546.899z" />
		<path style="fill:#3C3C3B;" d="M455.927,475.98c-0.144-1.034-1.566-1.25-2.28-0.673c-0.082-0.665-0.582-1.285-1.426-1.326    c-6.303-0.306-12.989,0.679-19.33,0.898c-0.661,0.023-1.085,0.597-1.152,1.172c-0.308,0.234-0.548,0.564-0.594,0.979    c-0.642,5.76,0.023,11.866,0.199,17.659c0.179,5.887,0.35,11.774,0.513,17.661c0.325,11.766,0.336,23.615,1.633,35.325    c0.011,0.102,0.049,0.182,0.079,0.269c-0.171,0.162-0.346,0.319-0.485,0.514c-0.379,0.534-0.011,1.486,0.649,1.595    c0.52,0.086,0.823,0.165,1.259-0.169c0.09-0.069,0.146-0.151,0.186-0.236c1.075-0.326,2.95-0.209,3.819-0.252    c1.546-0.077,3.097-0.124,4.645-0.111c2.924,0.024,6.09,0.859,8.919,0.124c0.314-0.082,0.532-0.278,0.671-0.518    c0.003,0.042,0.004,0.083,0.007,0.125c0.111,1.684,2.506,1.686,2.619,0c0.831-12.401,0.515-24.894,0.487-37.315    C456.32,500.028,457.532,487.537,455.927,475.98z M452.845,547.256c-3.215-1.983-8.23-1.503-11.857-1.179    c-1.55,0.138-3.62,0.168-5.342,0.705c0.68-11.777,0.062-23.636-0.299-35.413c-0.34-11.078,0.433-23.019-1.438-33.972    c5.984,0.835,13.008,1.206,18.706-0.516c0.23-0.069,0.409-0.182,0.562-0.314c-1.498,11.393-0.345,23.656-0.383,35.134    c-0.04,11.934-0.335,23.935,0.367,35.857C453.076,547.443,452.976,547.337,452.845,547.256z" />
		<path style="fill:#3C3C3B;" d="M453.974,432.81c-0.101-1.566-1.58-2.361-2.969-1.704c-2.301,1.089-4.597,2.216-6.824,3.45    c-1.505,0.833-2.997,1.337-3.215,3.144c-0.027,0.222,0.142,0.434,0.313,0.546c0.444,0.291,0.909,0.4,1.383,0.405    c0.417,0.488,0.846,0.965,1.286,1.434c-11.424,10.576-22.849,21.152-34.273,31.728c-9.131,8.453-18.464,16.847-25.023,27.494    c-7.561-8.211-15.681-15.837-24.371-22.856c-0.843-0.681-1.946-0.798-2.783,0c-8.656,8.251-17.488,17.095-24.008,27.182    c-0.91,1.409,1.167,3.003,2.319,1.789c7.836-8.26,15.045-16.98,23.202-24.942c8.782,7.217,16.988,15.046,24.599,23.498    c0.843,0.936,2.492,0.664,3.087-0.398c6.74-12.03,17.217-21.086,27.211-30.341c10.877-10.072,21.754-20.144,32.63-30.216    c0.601,0.733,1.243,1.42,2.067,1.776c0.003,0.068-0.003,0.135,0.002,0.202c0.106,1.357,1.739,2.227,2.791,1.156    c1.565-1.594,1.907-4.044,2.247-6.189C454.023,437.589,454.129,435.217,453.974,432.81z" />
	</g>
	</svg>