<?xml version='1.0' encoding='utf-8'?>
<svg xmlns="http://www.w3.org/2000/svg" version="1.1" xmlns="http://www.w3.org/2000/svg" viewBox="0 0 800 800" style="enable-background:new 0 0 800 800;"><path style="fill:#3C3C3B;" d="M549.862,393.517c-0.719-10.726-8.043-19.984-17.766-24.229   c-22.817-9.963-47.509,11.401-44.11,35.182c1.703,11.913,11.062,22.511,23.238,23.925c0.055,1.02,0.232,2.003,0.74,2.888   c-0.591,1.207,0.961,2.885,2.293,2.038c3.869-2.459,7.727-5.031,11.446-7.712c1.573-1.133,1.232-3.185-0.509-3.895   c-2.27-0.926-4.588-1.554-7.022-1.861c-1.912-0.241-4.3-0.613-5.844,0.854c-1.257,1.194-1.194,2.988-1.145,4.586   c-11.704-4.156-19.858-14.247-19.059-27.187c0.783-12.676,10.239-23.546,22.612-26.263c11.465-2.518,23.795,3.499,28.736,14.214   c4.964,10.766,0.186,23.951-9.984,29.641c-2.518,1.409-0.26,5.282,2.262,3.871C544.951,414.42,550.57,404.08,549.862,393.517z" />
	</svg>