<?xml version='1.0' encoding='utf-8'?>
<svg xmlns="http://www.w3.org/2000/svg" version="1.1" xmlns="http://www.w3.org/2000/svg" viewBox="0 0 800 800" style="enable-background:new 0 0 800 800;"><g>
		<path style="fill:#3C3C3B;" d="M262.416,123.009c-2.429-1.14-4.86-2.276-7.29-3.413c0.847-0.566,1.689-1.14,2.525-1.723    c1.022-0.713,1.329-2.499,0-3.139c-2.385-1.148-4.724-1.853-7.218-2.13c1.229-0.766,2.454-1.542,3.668-2.339    c1.21-0.795,1.138-2.878-0.424-3.244c-1.587-0.371-3.175-0.742-4.762-1.113c0.72-0.394,1.441-0.785,2.157-1.188    c1.26-0.708,0.979-2.692-0.4-3.065c-2.376-0.642-4.749-1.292-7.122-1.941c0.675-0.292,1.351-0.581,2.025-0.873    c2.017-0.875,0.892-3.461-0.928-3.696c0.044-0.099,0.09-0.198,0.116-0.31c0.031-0.134,0.061-0.269,0.092-0.403    c0.213-0.935-0.282-2.234-1.362-2.399c-26.602-4.085-52.682-9.045-77.689-19.326c-0.607-0.25-1.092,0.154-1.269,0.677    c-0.283-0.035-0.595-0.004-0.939,0.131c-19.977,7.878-39.822,16.087-59.516,24.648c-9.766,4.245-19.494,8.576-29.184,12.992    c-4.99,2.274-9.958,4.595-14.911,6.949c-4.671,2.219-9.754,4.196-13.555,7.777c-0.63,0.593,0.057,1.404,0.761,1.307    c4.585-0.63,8.859-2.932,13.045-4.834c4.996-2.269,9.981-4.566,14.974-6.843c9.688-4.419,19.407-8.77,29.167-13.028    c19.95-8.702,40.061-17.03,60.307-25.018c1.012-0.399,1.411-1.323,1.361-2.193c23.039,12.526,49.79,16.358,75.395,20.365    c0.155,0.109,0.32,0.216,0.526,0.334c-19.003,8.157-37.967,16.409-56.944,24.626l-29.235,12.659    c-9.568,4.143-20.056,7.678-28.918,13.203c-0.361,0.225-0.527,0.558-0.567,0.901c-5.522-2.488-11.853-3.662-17.665-5.263    c-6.654-1.833-13.32-3.628-19.991-5.399c-13.27-3.523-26.705-7.544-40.296-9.608c-1.995-0.303-2.856,2.435-0.851,3.085    c0.323,0.105,0.651,0.198,0.974,0.301c-1.561,1-3.008,2.128-4.351,3.482c-0.974,0.982-0.472,2.555,0.783,2.966    c1.437,0.471,2.884,0.917,4.324,1.378c-3.115,1.869-6.19,3.792-9.21,5.817c-1.203,0.806-1.145,2.872,0.424,3.245    c1.217,0.29,2.435,0.578,3.652,0.868c-2.395,1.444-4.784,2.898-7.1,4.468c-1.273,0.863-1.134,2.873,0.435,3.326    c1.529,0.442,3.063,0.87,4.597,1.299c-2.467,1.696-4.945,3.397-7.199,5.321c-0.978,0.834-0.483,2.712,0.78,2.955    c32.988,6.344,65.977,12.687,98.964,19.031c6.238,1.2,11.082,1.847,16.92-1.222c7.066-3.715,13.783-8.245,20.705-12.234    c13.497-7.779,27.194-15.206,41.095-22.238c16.125-8.156,32.515-15.773,49.124-22.893    C263.596,125.539,263.537,123.535,262.416,123.009z M48.63,134.347c0.969-0.998,1.968-1.961,3.021-2.891    c11.814,3.529,24.013,6.02,35.931,9.103c6.365,1.646,12.714,3.347,19.053,5.09c6.371,1.752,12.944,4.327,19.51,5.086    c1.093,0.126,1.741-1.01,1.607-1.972c0.03-0.006,0.055,0.001,0.086-0.007c9.614-2.524,18.955-7.458,28.072-11.373l30.199-12.969    c17.642-7.576,35.294-15.131,52.918-22.749c0.174,0.161,0.393,0.293,0.674,0.372c2.022,0.568,4.043,1.143,6.064,1.716    c-18.682,9.779-38.413,17.274-58.026,24.957c-19.848,7.774-40.09,15.668-57.903,27.556c-0.16-0.105-0.345-0.192-0.571-0.242    C102.03,150.013,75.281,142.501,48.63,134.347z M51.816,139.127c25.153,7.94,50.822,14.441,76.551,20.15    c0.625,0.139,1.141-0.052,1.507-0.395c0.306,0.098,0.663,0.076,1.038-0.133c19.649-10.95,40.123-19.714,61.062-27.868    c17.921-6.978,35.892-13.899,52.934-22.825c0.174,0.162,0.395,0.296,0.68,0.376c1.078,0.304,2.156,0.607,3.235,0.911    c-29.216,17.799-62.209,27.699-92.564,43.265c-4.133,2.119-8.205,4.351-12.198,6.723c-4.055,2.409-8.085,5.386-13.01,5.396    c-5.26,0.012-10.892-2.108-15.974-3.307c-4.526-1.068-9.053-2.134-13.579-3.203c-18.874-4.457-37.737-8.958-56.604-13.443    C47.234,142.934,49.549,141.061,51.816,139.127z M46.635,148.836c18.618,4.425,37.239,8.837,55.849,13.296    c5.168,1.238,10.336,2.477,15.504,3.715c4.238,1.016,8.664,2.522,13.063,2.568c8.171,0.084,15.63-6.428,22.483-10.13    c30.007-16.212,63.262-25.816,92.67-43.12c0.261,0.324,0.661,0.549,1.208,0.558c2.008,0.035,3.78,0.319,5.523,0.903    c-22.772,14.788-48.388,23.856-72.791,35.537c-6.337,3.033-12.593,6.252-18.642,9.829c-6.239,3.689-13.797,11.28-21.277,11.288    c-8.097,0.009-16.898-2.597-24.878-3.971c-7.898-1.359-15.786-2.77-23.656-4.283c-16.824-3.234-33.546-6.97-50.043-11.598    C43.333,151.923,44.982,150.378,46.635,148.836z M157.44,175.563c-4.51,2.711-9.379,6.741-14.887,6.665    c-4.533-0.063-9.433-1.587-13.87-2.435c-10.455-1.997-20.91-3.995-31.366-5.992c-19.158-3.66-38.317-7.321-57.475-10.981    c1.587-1.557,3.121-3.2,4.654-4.811c30.007,8.224,60.894,13.943,91.616,18.568c7.198,1.084,11.534-0.995,17.351-4.975    c6.262-4.284,12.818-8.116,19.537-11.634c13.004-6.808,26.568-12.45,39.984-18.379c13.277-5.868,26.513-12.04,38.789-19.816    c1.853,0.894,3.707,1.786,5.561,2.679C222.961,139.277,189.527,156.277,157.44,175.563z" />
		<path style="fill:#3C3C3B;" d="M212.809,93.396c-0.024,0.029-0.043,0.061-0.067,0.09c-0.098-0.063-0.2-0.123-0.328-0.155    c-6.981-1.71-14.045-2.788-20.967-4.827c-6.118-1.801-12.173-3.976-18.129-6.289c-0.311-0.62-1.139-1.032-1.776-0.687    c-0.121-0.048-0.243-0.093-0.364-0.141c-0.775-0.307-1.326,0.771-0.88,1.33c-3.736,3.347-9.788,3.553-13.95,0.895    c0.009-0.709-0.542-1.389-1.438-1.146c-0.078,0.021-0.155,0.05-0.233,0.072c-0.368-0.075-0.714,0.044-0.948,0.293    c-5.708,1.777-11.214,5.069-16.621,7.54c-6.672,3.049-13.38,6.019-20.114,8.929c-13.163,5.687-26.568,10.808-39.67,16.63    c-0.677,0.301-0.728,1.049-0.431,1.61c-1.134,0.099-2.048,1.55-1.027,2.641c2.021,2.159,2.152,5.549,0.202,7.821    c-0.615,0.716-0.231,1.523,0.414,1.766c-0.192,0.477-0.039,1.094,0.617,1.353c5.295,2.086,10.762,3.63,16.227,5.196    c5.218,1.495,10.671,3.714,16.064,4.416c4.049,0.527,6.63-1.82,10.188-3.264c5.77-2.342,12.269-1.735,17.795,1.024    c0.218,0.109,0.431,0.149,0.632,0.146c0.281,0.358,0.774,0.57,1.311,0.33c12.973-5.81,25.205-13.429,38.647-18.155    c11.874-4.175,23.501-8.035,34.169-14.92c0.349-0.225,0.535-0.527,0.601-0.844c0.666,0.001,1.318-0.541,1.084-1.355    c-0.797-2.768-0.426-5.575,1.453-7.836C216.687,94.152,214.275,91.684,212.809,93.396z M120.441,108.585    c0.594-4.161,3.085-7.276,5.938-10.098c2.324-1.028,4.642-2.069,6.96-3.109c0.369,0.57,1.013,0.939,1.759,0.666    c8.51-3.111,17.811-2.802,25.548,2.261c4.842,3.168,8.98,8.445,7.029,14.497c-1.739,5.395-7.157,9.071-12.102,11.189    c-8.866,3.798-20.508,4.505-28.634-1.449C122.591,119.357,119.659,114.062,120.441,108.585z M139.121,136.704    c-0.102-0.16-0.247-0.308-0.453-0.429c-7.683-4.503-15.359-3.821-23.199-0.237c-6.244,2.855-13.223-0.41-19.499-2.197    c-5.95-1.694-11.884-3.462-17.97-4.601c3.118-2.84,3.202-8.059,0.243-11.073c0.008-0.003,0.015-0.003,0.023-0.005    c13.094-4.435,25.821-9.999,38.507-15.477c1.039-0.449,2.073-0.908,3.11-1.36c-4.554,6.542-4.21,15.49,2.337,22.015    c8.306,8.278,21.891,8.52,32.533,4.724C149.448,130.82,144.229,133.743,139.121,136.704z M211.185,103.414    c-0.134,0.03-0.27,0.076-0.41,0.156c-6.201,3.561-12.447,6.865-19.112,9.491c-5.873,2.314-11.98,3.962-17.861,6.251    c-3.969,1.545-7.895,3.283-11.782,5.134c8.442-5.775,13.522-16.03,5.41-24.958c-5.756-6.335-14.411-9.336-22.857-8.947    c3.516-1.504,6.998-3.12,10.076-5.134c5.135,5.219,13.539,4.033,18.044-1.395c11.85,5.923,25.504,10.613,38.702,11.558    C210.211,98.023,210.047,100.894,211.185,103.414z" />
		<path style="fill:#3C3C3B;" d="M158.716,116.234c-0.307-0.219-0.625-0.424-0.938-0.635c0.407-1.549-0.014-3.329-1.717-5.276    c-2.598-2.97-6.676-3.06-10.085-1.657c-0.629-0.391-1.251-0.791-1.861-1.209c-2.413-1.65-4.666-3.569-6.942-5.443    c0.421-0.344,0.876-0.637,1.371-0.847c0.808-0.342,0.368-1.628-0.435-1.605c-1.113,0.032-2.127,0.31-3.041,0.758    c-1.429-1.124-2.885-2.199-4.421-3.137c-0.579-0.354-1.366,0.371-0.962,0.962c0.917,1.342,2.014,2.586,3.199,3.767    c-0.266,0.273-0.522,0.557-0.753,0.864c-1.482-1.106-2.963-2.212-4.453-3.309c-0.707-0.521-1.538,0.607-0.926,1.201    c1.391,1.352,2.838,2.643,4.307,3.91c-1.618,3.508-1.317,8.032,1.731,10.752c2.626,2.342,5.93,2.452,8.903,0.761    c0.764-0.434,1.472-0.959,2.176-1.489c1.515,1.137,3.083,2.249,4.696,3.198c-1.508,0.215-3.061,0.191-4.561,0.379    c-1.752,0.219-2.359,2.679-0.439,3.246c2.68,0.792,6.83,0.188,9.983-1.413c0.008,0.002,0.016,0.005,0.024,0.007    c0.584,0.161,1.057-0.225,1.19-0.708c0.564-0.37,1.073-0.779,1.512-1.22c0.477,0.187,0.952,0.379,1.434,0.537    C159.205,119.117,159.855,117.046,158.716,116.234z M139.702,112.686c-4.561,1.488-6.063-1.896-5.43-5.432    c1.717,1.378,3.458,2.727,5.229,4.032c0.405,0.299,0.817,0.61,1.232,0.926C140.396,112.4,140.055,112.571,139.702,112.686z     M141.538,109.589c-2.213-1.513-4.381-3.087-6.535-4.678c0.111-0.242,0.234-0.477,0.364-0.707    c2.166,1.837,4.492,3.514,6.671,5.122c0.435,0.321,0.879,0.649,1.323,0.976c-0.109,0.086-0.219,0.171-0.328,0.258    C142.525,110.242,142.023,109.92,141.538,109.589z" />
	</g>
	</svg>