<?xml version='1.0' encoding='utf-8'?>
<svg xmlns="http://www.w3.org/2000/svg" version="1.1" xmlns="http://www.w3.org/2000/svg" viewBox="0 0 800 800" style="enable-background:new 0 0 800 800;"><g>
		<path style="fill:#3C3C3B;" d="M207.887,690.195c-1.007-0.787-2.397-1.036-3.512-0.472c-0.536,0.019-1.053,0.136-1.532,0.336    c-2.121-1.45-4.366-2.701-6.586-4.021c-1.216-0.723-3.051-2.147-4.87-3.307c-0.035-0.452-0.155-0.914-0.378-1.371    c-0.856-1.757-3.187-3.007-5.054-2.375c-0.036-0.005-0.072-0.01-0.109-0.015c-0.601,0.076-1.179,0.38-1.639,0.773    c-0.736,0.628-1.216,1.511-1.412,2.454c-1.413,0.631-2.772,1.339-3.714,1.723c-1.637,0.667-3.266,1.346-4.888,2.041    c-0.826-0.874-1.95-1.437-3.194-1.372c-0.43,0.022-0.784,0.218-1.045,0.499c-0.607,0.122-1.161,0.39-1.649,0.76    c-4.377-5.22-8.753-10.44-13.13-15.66l-7.422-8.852c-0.828-0.988-1.665-2.191-2.621-3.243c0.006-0.34-0.03-0.691-0.116-1.051    c-0.364-1.517-1.675-2.973-3.202-3.492c-0.1-0.256-0.298-0.464-0.623-0.513c-2.403-0.361-4.669,1.26-5.279,3.558    c-3.143,1.323-6.286,3.591-8.558,4.75c-5.598,2.854-11.173,5.755-16.758,8.633c-1.279-0.728-2.986-0.715-4.337,0.303    c-0.049,0.037-0.099,0.079-0.147,0.121c-1.056-1.05-2.112-2.1-3.168-3.15c0.129-0.543,0.137-1.129-0.009-1.741    c-0.548-2.296-3.263-4.103-5.559-3.135c-0.366,0.154-0.679,0.393-0.891,0.692c-1.141,0.726-1.951,1.964-2.007,3.36    c-0.007,0.165-0.002,0.327,0.011,0.485c-3.547,2.605-7.01,5.322-10.413,8.114c-0.893-0.307-1.877-0.286-2.803,0.251    c-0.026,0.015-0.046,0.034-0.071,0.05c-0.436-0.234-0.863-0.272-1.267-0.152c-4.991-5.141-9.646-10.567-13.891-16.337    c1.558-1.639,1.816-4.188,0.231-6.05c-1.298-1.525-3.33-2.097-5.129-1.577c-0.256-0.051-0.525-0.04-0.778,0.068    c-2.094,0.889-3.09,3.333-2.666,5.492c-4.594,3.257-9.63,6.284-13.639,10.084c-0.133-0.125-0.263-0.253-0.396-0.379    c-0.042-1.629-0.085-3.258-0.12-4.885c-0.276-12.835-0.484-25.669-0.658-38.505c-0.179-13.148,0.29-26.385-0.846-39.495    c-0.139-1.603-2.41-1.63-2.514,0c-0.835,13.128-0.021,26.352,0.19,39.495c0.206,12.835,0.421,25.67,0.61,38.505    c0.32,21.698,0.167,43.591,1.089,65.323c-2.588-0.015-5.176-0.033-7.763-0.016c-1.568,0.01-1.502,2.239,0,2.391    c2.624,0.265,5.254,0.494,7.887,0.707c0.151,3.199,0.327,6.395,0.534,9.585c0.127,1.959,3.046,1.999,3.076,0    c0.047-3.097,0.065-6.198,0.065-9.3c24.702,1.785,49.763,1.534,74.441,1.689c10.719,0.067,21.439,0.041,32.158-0.071    c0.142,0.155,0.28,0.315,0.423,0.47c0.676,0.735,1.555,0.237,1.764-0.499c17.231-0.201,34.459-0.621,51.679-1.249    c2.052-0.075,2.062-3.274,0-3.199c-0.029,0.001-0.057,0.002-0.085,0.003c-0.017-0.245-0.126-0.494-0.374-0.713    c-11.991-10.604-23.51-21.636-34.682-33.012c0.13,0.012,0.26,0.021,0.391,0.023c0.768,0.009,1.5-0.182,2.158-0.501    c4.841,5.189,9.922,10.168,14.989,15.13c5.28,5.171,10.528,10.837,16.474,15.247c0.764,0.918,2.115-0.418,1.324-1.334    c-5.041-5.842-11.323-10.866-16.987-16.105c-4.909-4.541-9.764-9.158-14.754-13.614c0.893-0.783,1.47-1.901,1.457-3.202    c0.012-0.005,0.023-0.009,0.035-0.014c4.261,5.043,8.835,9.849,13.459,14.55c4.594,4.67,9.262,10.285,14.806,13.804    c0.669,0.424,1.658-0.462,1.142-1.142c-3.985-5.258-9.724-9.551-14.473-14.137c-4.631-4.472-9.15-9.065-13.787-13.531    c0.821-0.324,1.643-0.646,2.462-0.979c0.235-0.096,0.507-0.223,0.799-0.365c7.795,7.759,15.776,16.024,24.458,22.737    c0.008,0.008,0.016,0.017,0.025,0.026c0.962,0.993,2.458-0.512,1.514-1.514c-7.428-7.892-16.395-14.944-24.814-21.848    c0.781-0.404,1.633-0.846,2.454-1.22c7.016,5.818,13.628,12.03,20.126,18.424c1.042,1.025,2.66-0.594,1.604-1.604    c-5.743-5.487-11.853-10.582-18.11-15.479c0.198-0.013,0.397-0.038,0.595-0.076c0.769-0.149,1.464-0.494,2.032-0.967    c1.366,0.804,2.679,1.843,3.785,2.494c2.226,1.31,4.435,2.735,6.734,3.944c-0.307,0.747-0.41,1.594-0.214,2.478    c0.681,3.082,4.578,4.626,7.182,2.881C209.919,696.127,210.345,692.117,207.887,690.195z M143.241,661.416    c0.059,0.062,0.12,0.119,0.177,0.186c7.75,9.107,15.355,18.342,23.021,27.52c-0.003,0.03-0.014,0.059-0.017,0.089    c-0.007,0.077-0.005,0.151-0.007,0.227c-8.617-8.905-17.04-18.008-25.316-27.276C141.885,662.083,142.62,661.826,143.241,661.416z     M99.168,670.405c0.582-0.071,1.137-0.25,1.638-0.513c1.014,1,2.027,2.002,3.04,3.004c-0.252,0.403-0.437,0.832-0.497,1.276    c-0.019,0.142-0.003,0.279,0.01,0.416c-1.431-1.41-2.874-2.802-4.331-4.178C99.075,670.406,99.121,670.411,99.168,670.405z     M59.688,659.707c0.951,0.602,2.101,0.847,3.249,0.692c4.476,6.184,9.35,12.025,14.683,17.491    c-0.213,0.569-0.336,1.131-0.336,1.585c0,0.196,0.033,0.382,0.055,0.571c-6.099-6.636-12.281-13.196-18.639-19.574    C59.028,660.217,59.365,659.963,59.688,659.707z M45.201,726.934c-0.002-0.436-0.01-0.873-0.013-1.309    c0.34,0.41,0.731,0.879,1.16,1.328C45.966,726.948,45.584,726.938,45.201,726.934z M48.424,726.987    c-0.778-0.863-1.758-1.644-2.46-2.497c-0.279-0.339-0.543-0.69-0.797-1.047c-0.012-1.253-0.046-2.508-0.063-3.761    c0.9,1.476,1.899,2.887,3.035,4.215c0.879,1.026,1.868,2.156,2.96,3.143C50.208,727.023,49.316,727,48.424,726.987z     M53.11,727.078c-1.421-1.283-2.996-2.438-4.282-3.871c-1.412-1.572-2.65-3.283-3.749-5.082c-0.022-1.451-0.062-2.902-0.091-4.353    c3.434,4.914,7.436,9.968,12.24,13.403C55.855,727.143,54.482,727.106,53.11,727.078z M58.782,727.212    c-0.009-0.013-0.013-0.028-0.024-0.041c-2.399-2.811-5.308-5.194-7.854-7.877c-2.067-2.178-4.035-4.445-5.942-6.763    c-0.027-1.289-0.063-2.579-0.094-3.868c2.953,3.301,5.96,6.553,8.887,9.878c2.487,2.825,4.821,5.924,7.381,8.735    C60.351,727.256,59.567,727.232,58.782,727.212z M63.386,727.339c-2.387-3.267-5.337-6.242-8.03-9.194    c-3.388-3.715-6.859-7.373-10.52-10.822c-0.032-1.331-0.077-2.661-0.112-3.992c6.924,7.938,13.583,16.103,20.472,24.062    C64.592,727.375,63.989,727.356,63.386,727.339z M67.381,727.458c-6.69-9.048-14.645-17.517-22.692-25.35    c-0.033-1.246-0.073-2.492-0.108-3.738c3.856,4.92,8.535,9.325,12.658,13.994c4.43,5.016,8.819,10.075,13.138,15.188    C69.379,727.52,68.38,727.488,67.381,727.458z M72.269,727.61c-4.301-5.329-8.674-10.579-13.262-15.668    c-4.57-5.069-9.141-10.702-14.468-15.025c-0.054-1.894-0.111-3.787-0.167-5.681c4.318,5.894,9.196,11.443,13.881,17.027    c5.463,6.512,10.898,13.84,17.374,19.363c0.053,0.045,0.113,0.072,0.172,0.098C74.622,727.687,73.445,727.648,72.269,727.61z     M76.328,727.743c0.369-0.128,0.632-0.513,0.347-0.925c-4.535-6.577-10.593-12.394-15.856-18.401    c-5.529-6.31-10.771-12.945-16.502-19.072c-0.042-1.437-0.082-2.871-0.124-4.308c12.182,14.709,25.26,28.732,38.062,42.899    C80.279,727.871,78.304,727.807,76.328,727.743z M84.091,727.995c-13.167-15.017-26.112-30.353-39.95-44.763    c-0.04-1.364-0.078-2.726-0.118-4.091c13.762,16.704,28.271,32.859,42.745,48.937C85.875,728.05,84.983,728.024,84.091,727.995z     M88.824,728.143c0.047-0.254,0-0.53-0.217-0.775c-14.795-16.746-29.444-33.687-44.638-50.078    c-0.039-1.335-0.076-2.67-0.116-4.005c2.649,3.646,6.612,6.666,9.459,9.902c4.844,5.506,9.277,11.351,13.737,17.166    c7.178,9.36,14.802,21.217,24.865,27.883C90.884,728.203,89.854,728.175,88.824,728.143z M94.466,728.31    c-0.02-0.151-0.072-0.303-0.192-0.436c-4.358-4.865-9.434-9.042-13.719-14.029c-4.414-5.136-8.493-10.544-12.627-15.904    c-3.576-4.638-7.189-9.268-11.086-13.643c-4.167-4.677-9.097-8.713-13.061-13.552c-0.014-0.508-0.03-1.018-0.044-1.525    c0.075-0.002,0.15-0.003,0.23-0.027c0.223-0.067,0.443-0.16,0.665-0.234c8.609,9.631,17.417,19.081,25.919,28.81    c4.532,5.186,9.042,10.391,13.48,15.658c4.1,4.865,7.926,10.593,12.605,14.943C95.913,728.349,95.189,728.331,94.466,728.31z     M98.71,728.426c-0.016-0.08-0.038-0.16-0.083-0.243c-2.984-5.431-7.782-10.207-11.759-14.947    c-4.627-5.515-9.309-10.985-14.107-16.352c-8.678-9.708-17.533-19.325-26.936-28.346c0.984-0.385,1.953-0.848,2.914-1.345    c17.897,20.416,35.839,40.775,53.595,61.314C101.127,728.479,99.919,728.458,98.71,728.426z M104.788,728.563    c-0.027-0.169-0.083-0.338-0.213-0.497c-17.333-21.201-35.659-41.855-54.889-61.371c1.332-0.739,2.632-1.582,3.915-2.458    c8.992,10.893,18.273,21.562,27.591,32.174c9.362,10.662,18.296,22.215,28.366,32.243    C107.968,728.626,106.378,728.599,104.788,728.563z M112.292,728.707c-8.67-11.664-19.256-22.252-28.86-33.151    c-9.493-10.773-19.1-21.478-28.996-31.886c1.132-0.798,2.236-1.629,3.325-2.466c10.06,11.38,20.356,22.549,30.357,33.983    c5.026,5.746,10.029,11.514,15.016,17.295c4.593,5.325,8.933,11.249,13.908,16.275    C115.459,728.743,113.875,728.732,112.292,728.707z M119.824,728.784c-3.938-5.895-9.141-11.186-13.754-16.548    c-5.185-6.026-10.431-11.996-15.75-17.905c-3.089-3.432-6.19-6.858-9.303-10.275c0.306,0.056,0.623,0.083,0.95,0.076    c0.868-0.018,1.712-0.279,2.465-0.698c6.685,7.361,13.425,14.667,19.987,22.141c6.581,7.495,12.571,16.12,19.625,23.206    C122.637,728.778,121.231,728.79,119.824,728.784z M126.406,728.78c-5.279-8.669-13.141-16.482-19.852-24.025    c-6.752-7.588-13.747-15.012-21.079-22.052c0.926-0.841,1.56-1.988,1.638-3.276c0.008-0.13,0.002-0.26-0.004-0.389    c7.49,8.121,15.337,15.918,22.772,24.096c7.559,8.315,14.425,17.507,22.183,25.629    C130.177,728.765,128.292,728.783,126.406,728.78z M134.524,728.755c-6.202-9.558-14.671-18.253-22.374-26.584    c-7.998-8.652-16.345-17.298-25.456-24.81c0.935-0.765,1.888-1.506,2.834-2.256c17.478,16.425,31.865,35.69,47.693,53.633    C136.323,728.742,135.424,728.753,134.524,728.755z M139.806,728.723c-15.049-18.971-30.765-38.732-49.401-54.314    c0.943-0.739,1.902-1.458,2.852-2.189c8.739,9.464,17.633,18.754,26.172,28.406c4.075,4.606,8.101,9.256,12.037,13.98    c3.816,4.579,7.313,9.682,11.358,14.093C141.818,728.704,140.812,728.718,139.806,728.723z M145.367,728.678    c-3.092-5.094-7.333-9.687-11.096-14.279c-4.094-4.995-8.27-9.924-12.57-14.743c-8.712-9.763-17.902-19.336-27.74-27.977    c0.804-0.615,1.599-1.242,2.409-1.849c0.358,0.21,0.754,0.361,1.166,0.464c8.717,10.38,18.014,20.346,27.008,30.486    c8.176,9.217,16.111,18.695,24.348,27.862C147.717,728.652,146.542,728.67,145.367,728.678z M152.049,728.611    c-8.102-10.218-16.97-19.976-25.702-29.633c-6.541-7.233-13.179-14.513-20.076-21.484c0.034,0.012,0.071,0.031,0.104,0.042    c1.493,0.511,3.016,0.211,4.164-0.604c8.671,8.7,17.265,17.433,25.423,26.634c4.393,4.955,8.612,10.041,12.836,15.139    c2.886,3.484,5.921,7.078,9.566,9.826C156.259,728.558,154.154,728.591,152.049,728.611z M161.64,728.492    c-9.422-7.931-16.511-18.03-24.723-27.17c-7.972-8.873-16.407-17.464-25.398-25.333c0.63-0.819,0.993-1.862,0.918-3.024    c-0.002-0.038-0.011-0.073-0.015-0.11c0.138-0.07,0.276-0.14,0.414-0.209c8.337,9.658,17.157,18.935,25.832,28.284    c4.292,4.625,8.647,9.192,12.982,13.777c4.277,4.523,8.408,9.585,13.101,13.734C163.714,728.457,162.677,728.477,161.64,728.492z     M171.324,728.328c-1.332,0.024-2.664,0.051-3.996,0.073c-3.501-4.737-7.979-8.851-12.015-13.131    c-4.784-5.074-9.54-10.175-14.368-15.208c-8.976-9.357-17.879-18.85-27.19-27.88c0.861-0.434,1.719-0.871,2.58-1.304    c17.392,19.867,36.106,38.965,54.995,57.398C171.329,728.294,171.326,728.308,171.324,728.328z M173.791,728.283    c0.127-0.376,0.021-0.827-0.245-1.118l-0.191-0.209c-0.287-0.314-0.793-0.37-1.175-0.191    c-1.099-1.784-11.951-13.248-12.987-14.319c-4.757-4.917-9.523-9.826-14.311-14.714c-9.054-9.244-18.139-18.509-27.616-27.326    c0.793-0.4,1.584-0.803,2.378-1.202c17.995,20.164,36.717,40.128,56.027,59.036C175.044,728.253,174.417,728.272,173.791,728.283z     M178.397,728.179c-0.043-0.141-0.115-0.281-0.232-0.414c-18.001-20.576-37.629-40.389-57.704-58.974    c1.306-0.658,2.61-1.317,3.914-1.979c9.161,10.594,19.034,20.658,28.681,30.796c4.983,5.237,9.962,10.477,14.949,15.71    c4.7,4.932,9.196,10.597,14.596,14.761C181.2,728.111,179.799,728.15,178.397,728.179z M183.754,728.052    c0.284-0.28,0.42-0.721,0.174-1.075c-3.736-5.371-9.003-9.939-13.53-14.657c-5.231-5.453-10.476-10.892-15.714-16.338    c-9.605-9.987-19.128-20.194-29.196-29.731c0.037-0.019,0.075-0.038,0.112-0.056c0.871-0.445,1.926-1.076,3.073-1.758    c9.305,11.192,19.665,21.599,29.655,32.171c9.791,10.361,19.203,21.775,29.813,31.335    C186.677,727.977,185.216,728.018,183.754,728.052z M190.913,727.87c-0.025-0.039-0.033-0.08-0.064-0.118    c-9.24-11.623-20.699-21.971-30.982-32.687c-10.018-10.439-19.854-21.238-30.516-31.033c0.834-0.494,1.714-1.004,2.612-1.49    c10.042,11.592,20.885,22.575,31.647,33.486c5.436,5.511,10.917,10.976,16.436,16.405c5.133,5.049,10.203,11.294,16.213,15.289    C194.477,727.773,192.695,727.824,190.913,727.87z M202.584,727.524c-1.693,0.056-3.387,0.115-5.08,0.164    c0.284-0.274,0.412-0.702,0.15-1.072c-4.042-5.704-10.151-10.388-15.133-15.289c-5.748-5.654-11.471-11.335-17.18-17.029    c-10.782-10.753-21.353-21.773-32.373-32.284c1.255-0.638,2.531-1.199,3.766-1.575c0.721,0.855,1.77,1.444,2.915,1.662    C158.375,685.879,179.776,707.664,202.584,727.524z M206.114,694.218c-0.104-0.273-0.295-0.517-0.539-0.709    c0.114-0.185,0.182-0.406,0.181-0.653c0-0.001-0.013-0.191-0.017-0.333c0.021,0.012,0.041,0.016,0.061,0.043    c0.276,0.37,0.451,0.606,0.428,1.086C206.22,693.842,206.18,694.035,206.114,694.218z" />
	</g>
	</svg>