<?xml version='1.0' encoding='utf-8'?>
<svg xmlns="http://www.w3.org/2000/svg" version="1.1" xmlns="http://www.w3.org/2000/svg" viewBox="0 0 800 800" style="enable-background:new 0 0 800 800;"><g>
		<path style="fill:#3C3C3B;" d="M704.991,358.002c-23.775-18.995-56.635-21.194-83.192-6.819    c-13.874,7.51-26.069,17.961-31.519,33.124c-5.636,15.681-5.726,33.619-1.788,49.694c4.067,16.603,12.864,32.841,28.121,41.522    c14.464,8.229,33.176,10.186,49.558,8.842c0.176,0.044,0.366,0.068,0.584,0.049c27.763-2.453,52.818-21.855,61.396-48.541    C737.011,408.312,727.65,376.105,704.991,358.002z M698.769,358.045c-0.361,0.055-0.708,0.22-1.005,0.481    c-1.668,1.467-3.412,3.312-4.59,5.359c-0.538-0.423-1.085-0.838-1.644-1.24c-0.376-0.27-0.756-0.525-1.137-0.778    c1.385-2.177,2.783-4.379,3.909-6.69C695.837,356.077,697.326,357.034,698.769,358.045z M693.043,354.473    c-1.47,2.077-2.719,4.333-3.952,6.57c-1.128-0.684-2.274-1.308-3.44-1.863c1.03-2.278,2.156-4.672,2.462-7.05    c0.008-0.066-0.003-0.12-0.01-0.177C689.769,352.715,691.413,353.565,693.043,354.473z M682.22,349.574    c1.63,0.575,3.245,1.229,4.849,1.932c-0.132,0.055-0.251,0.134-0.332,0.25c-1.311,1.885-2.063,4.347-2.791,6.662    c-1.265-0.531-2.548-1.001-3.848-1.403c0.123-1.313,0.295-2.613,0.668-3.898C681.125,351.88,681.725,350.748,682.22,349.574z     M675.844,347.655c1.593,0.396,3.177,0.85,4.752,1.362c-1.326,2.125-1.934,4.973-1.967,7.558    c-1.509-0.409-3.037-0.738-4.582-0.997c0.121-1.461,0.341-2.908,0.717-4.328C675.084,350.041,675.558,348.871,675.844,347.655z     M668.178,349.843c0.215-1.192,0.573-2.354,0.771-3.544c1.808,0.259,3.608,0.607,5.402,1.01c-1.378,2.324-1.703,5.374-1.706,8.055    c-1.657-0.232-3.329-0.39-5.014-0.479C667.704,353.195,667.876,351.509,668.178,349.843z M661.292,345.62    c2.045,0.068,4.09,0.226,6.128,0.472c-1.085,2.636-1.142,5.938-1.007,8.734c-1.963-0.068-3.938-0.053-5.92,0.033    C661.015,351.884,661.633,348.578,661.292,345.62z M653.558,345.784c-0.22,1.32,0.017,2.694,0.124,4.024    c0.121,1.496,0.272,2.995,0.508,4.477c0.11,0.691,1.147,0.484,1.174-0.159c0.064-1.548,0.026-3.103-0.03-4.651    c-0.045-1.261,0.004-2.582-0.363-3.795c1.734-0.096,3.471-0.126,5.207-0.096c-0.807,2.904-0.725,6.301-0.695,9.324    c-1.85,0.101-3.703,0.253-5.553,0.454c-1.322,0.144-2.63,0.296-3.93,0.459c0.063-0.096,0.109-0.211,0.102-0.366    c-0.08-1.921-0.143-3.844-0.273-5.762c-0.08-1.169-0.08-2.371-0.361-3.5C650.829,346.014,652.193,345.886,653.558,345.784z     M647.924,346.429c-0.079,1.205,0.145,2.473,0.263,3.649c0.181,1.796,0.413,3.586,0.633,5.378    c0.027,0.223,0.147,0.381,0.299,0.483c-1.678,0.219-3.332,0.468-4.969,0.745c0.265-0.046,0.513-0.245,0.512-0.558    c-0.01-2.699-0.246-6.326-1.794-8.759C644.544,346.991,646.232,346.689,647.924,346.429z M641.306,347.758    c0.245,1.209,0.756,2.382,1.098,3.563c0.472,1.629,0.84,3.286,1.118,4.959c0.053,0.322,0.33,0.443,0.598,0.408    c-2.217,0.377-4.399,0.812-6.529,1.358c0.256-0.136,0.452-0.42,0.385-0.748c-0.344-1.681-0.918-3.335-1.442-4.968    c-0.306-0.954-0.511-2.033-0.988-2.929C637.448,348.77,639.372,348.237,641.306,347.758z M633.943,349.953    c0.167,1.073,0.68,2.126,1.036,3.142c0.553,1.579,1.088,3.193,1.807,4.705c0.114,0.24,0.307,0.329,0.505,0.325    c-1.215,0.318-2.42,0.658-3.604,1.049c-1.356-2.279-2.718-4.878-4.594-6.764c-0.474-0.476-1.109,0.125-0.87,0.671    c1.013,2.316,2.828,4.452,4.385,6.459c-1.239,0.44-2.466,0.912-3.667,1.456c-0.035-0.093-0.084-0.186-0.161-0.277    c-1.102-1.307-2.197-2.601-3.174-4.007c-0.529-0.762-0.965-1.684-1.501-2.493C627.309,352.565,630.597,351.145,633.943,349.953z     M622.382,355.142c0.437,0.996,1.131,1.935,1.713,2.762c0.977,1.389,2.117,2.679,3.415,3.776    c-0.694,0.346-1.383,0.705-2.063,1.093c-1.711-2.183-3.488-4.439-5.692-6.138C620.623,356.117,621.5,355.624,622.382,355.142z     M619.016,357.084c1.395,2.365,3.421,4.374,5.385,6.294c-1.201,0.735-2.38,1.539-3.531,2.429    c-1.365-1.127-2.677-2.295-3.701-3.765c-0.586-0.841-0.985-1.894-1.509-2.813C616.764,358.482,617.886,357.773,619.016,357.084z     M590.69,397.729c1.202-7.394,3.393-14.777,7.277-21.225c3.617-6.006,8.82-10.833,14.432-14.978    c0.581,1.087,1.441,2.103,2.113,2.898c1.135,1.342,2.461,2.51,3.958,3.405c-0.365,0.331-0.734,0.65-1.093,1    c-0.352,0.344-0.69,0.701-1.033,1.053c0.076-0.145,0.144-0.296,0.182-0.464c0.372-1.666-1.544-2.927-2.969-2.113    c-0.578,0.33-0.64,0.996-0.396,1.497c-0.338,0.384-0.461,0.969-0.16,1.421c0.596,0.896,1.697,0.967,2.52,0.506    c-1.688,1.806-3.262,3.714-4.714,5.713c0.018-0.125,0.041-0.249,0.038-0.376c-0.007-0.324-0.187-0.71-0.471-0.929    c-0.106-0.866-0.991-1.31-1.826-1.193c-0.739,0.104-1.338,0.535-1.758,1.142c-0.845,1.222-0.483,3.022,1.036,3.491    c0.58,0.179,1.155,0.082,1.645-0.189c-7.643,11.412-11.547,25.38-10.949,39.108c-2.883-0.498-5.88-0.538-8.807-0.31    C589.331,410.688,589.646,404.149,590.69,397.729z M612.667,458.519c-1.406-0.672-2.218,0.376-3.246,1.002    c-2.169,1.321-1.746,1.88-1.148-0.317c0.563-2.071,2.403-4.371,3.294-6.387c0.314-0.711-0.536-1.55-1.157-0.892    c-1.686,1.786-3.516,3.225-5.621,4.383c0.759-3.16,1.562-6.309,2.318-9.47c0.198-0.831-0.852-1.531-1.482-0.863    c-1.18,1.249-2.353,2.505-3.531,3.756c1.006-2.476,2.008-4.954,3.028-7.425c3.395,6.413,8.002,12.124,13.442,16.858    c-2.16,2.09-4.326,4.175-6.492,6.258C613.203,463.007,615.684,459.961,612.667,458.519z M600.48,453.982    c1.459-1.52,2.902-3.055,4.346-4.588c-0.492,2.635-0.975,5.271-1.497,7.9c-0.106,0.532,0.393,0.886,0.87,0.669    c1.596-0.728,3.026-1.547,4.363-2.516c-0.998,1.825-2.082,3.595-3.27,5.328C603.534,458.647,601.93,456.377,600.48,453.982z     M597.31,448.034c0.168,0.033,0.35,0.011,0.529-0.105c1.605-1.04,3.113-2.145,4.576-3.325c-1.026,2.463-2.054,4.924-3.09,7.382    C598.611,450.7,597.94,449.381,597.31,448.034z M603.888,441.225c-1.662,1.521-3.39,2.907-5.219,4.192    c0.831-3.596,1.878-7.109,3.176-10.578c0.138,0.389,0.271,0.778,0.417,1.164c0.651,1.719,1.396,3.394,2.21,5.031    C604.26,441.027,604.047,441.079,603.888,441.225z M589.833,418.967c1.576,0,3.12,0.115,4.666,0.298    c-1.399,1.713-2.72,3.487-4.036,5.266C590.199,422.683,589.981,420.828,589.833,418.967z M593.722,422.758    c-0.734,2.269-1.424,4.542-1.943,6.909c-0.122,0.556,0.615,1.121,1.042,0.607c1.494-1.798,2.991-3.594,4.466-5.408    c-0.661,2.726-1.609,5.331-2.805,7.855c-0.634,0.944-1.178,1.969-1.653,3.08c-0.857-3.059-1.542-6.164-2.061-9.298    C591.752,425.254,592.747,424.013,593.722,422.758z M593.223,437.148c0.185-0.008,0.364-0.087,0.467-0.281    c0.606-1.146,1.159-2.302,1.668-3.47c0.567-0.962,1.221-1.867,1.99-2.607c2.208-2.126,0.286,0.448-0.249,1.793    c-0.988,2.479-1.976,4.958-2.964,7.437C593.814,439.068,593.509,438.111,593.223,437.148z M599.618,428.633    c0.137-0.36-0.361-0.758-0.678-0.521c-0.825,0.616-1.57,1.264-2.254,1.946c0.836-2.316,1.526-4.686,2.119-7.128    c0.121-0.496-0.529-0.948-0.903-0.526c-1.476,1.665-2.911,3.365-4.344,5.068c0.664-2.731,1.484-5.425,2.665-7.98    c0.724,0.109,1.452,0.23,2.188,0.362c0.09,0.016,0.176,0.022,0.26,0.021c0.383,4.675,1.294,9.301,2.762,13.767    c-0.293-0.124-0.637-0.11-0.863,0.162c-1.699,2.047-3.37,4.118-5.047,6.184C596.858,436.192,598.189,432.393,599.618,428.633z     M595.124,442.8c1.287-1.513,2.561-3.037,3.836-4.561c-0.891,2.792-1.644,5.618-2.247,8.505c-0.324-0.732-0.637-1.471-0.937-2.219    C595.547,443.955,595.34,443.376,595.124,442.8z M607.158,462.923c0.428-0.149,0.905-0.37,1.593-0.449    c0.275-0.241,0.55-0.482,0.826-0.723c0.418,0.714,0.836,1.429,1.255,2.143c0.028,0.352-0.765,0.898-0.778,1.281    c-0.009,0.243-0.025,0.44-0.046,0.604C609.021,464.862,608.069,463.914,607.158,462.923z M620.917,473.468    c-3.164-1.629-6.072-3.578-8.742-5.786c1.32-1.245,2.644-2.486,3.966-3.729c-0.6,1.715-0.935,3.527-1.035,5.487    c-0.032,0.627,0.624,1.045,1.188,0.905c2.73-0.675,4.515-1.998,6.034-4.335c0.661-1.017-0.974-1.969-1.624-0.949    c-0.87,1.568-2.077,2.611-3.611,3.147c0.343-2.865,1.342-5.388,2.975-7.783c2.129,1.735,4.367,3.333,6.707,4.761    C624.446,467.623,622.709,470.614,620.917,473.468z M686.419,475.861c0.023-0.177,0.02-0.354-0.006-0.529    c1.964-0.804,3.911-1.661,5.841-2.578c0.173-0.082,0.314-0.193,0.435-0.318c0.699-0.265,1.393-0.544,2.081-0.837    C692.09,473.205,689.3,474.63,686.419,475.861z M707.708,461.619c-0.088-0.11-0.188-0.21-0.294-0.302    c0.813-0.681,1.611-1.385,2.395-2.112c0.061,0.024,0.121,0.049,0.184,0.068C709.249,460.072,708.488,460.855,707.708,461.619z     M663.493,469.266c-0.403-0.019-0.734,0.076-0.997,0.242c-6.009,0.166-11.695,0.317-17.665-0.531    c-14.711-3.807-27.892-13.142-35.663-26.469c-11.274-19.335-8.885-44.733,3.666-62.869c7.446-10.759,17.289-17.176,30.206-19.249    c12.82-2.057,27.393-4.146,39.634,1.375c19.486,8.789,28.559,31.906,28.621,52.111    C711.379,441.066,693.797,470.658,663.493,469.266z M719.495,446.264c-0.196-0.352-0.529-0.611-0.924-0.761    c0.017-0.156,0.018-0.313-0.008-0.467c0.466,0.171,0.939,0.303,1.423,0.355C719.827,445.685,719.659,445.974,719.495,446.264z     M727.049,424.158c-0.951,6.626-2.953,12.947-5.816,18.807c-1.246-1.164-3.167-1.595-4.729-2.205    c-1.209-0.472-2.418-0.943-3.629-1.408c-0.23-0.955-1.122-1.429-1.993-1.196c1.555-4.178,2.687-8.523,3.32-12.927    c2.995-20.814-2.553-44.939-18.664-59.351c1.313-1.653,2.589-3.268,4.357-4.592c0.6-0.449,0.946-1.079,0.822-1.826    C720.347,374.329,730.584,399.519,727.049,424.158z" />
		<path style="fill:#3C3C3B;" d="M592.709,410.802c-1.041,0-1.445,0.986-1.217,1.756c-0.133,0.362,0.048,0.853,0.55,0.853    c0.074,0,0.135-0.02,0.195-0.04c0.14,0.051,0.294,0.085,0.471,0.085C594.417,413.457,594.419,410.802,592.709,410.802z" />
		<path style="fill:#3C3C3B;" d="M596.323,405.514c-1.381-0.393-2.453,1.242-1.776,2.408c0.252,0.434,0.687,0.599,1.111,0.566    c0.321,0.132,0.702,0.134,1.064-0.055C597.984,407.777,597.605,405.879,596.323,405.514z" />
		<path style="fill:#3C3C3B;" d="M594.61,400.047c-0.015-0.912-0.792-1.666-1.702-1.632c-0.492,0.018-0.895,0.267-1.168,0.621    c-0.692,0.228-1.28,0.737-1.431,1.498c-0.104,0.522,0.104,1.057,0.621,1.265c0.379,0.152,0.881,0.073,1.176-0.236    c0.406,0.317,0.933,0.458,1.477,0.268c0.634-0.221,0.963-0.746,0.947-1.301C594.58,400.374,594.613,400.212,594.61,400.047z" />
		<path style="fill:#3C3C3B;" d="M596.896,395.31c-0.925,0.481-0.423,1.984,0.5,1.945c0.335,0.614,0.955,1.051,1.635,1.331    c0.731,0.301,1.46-0.447,1.477-1.125C600.553,395.632,598.445,394.505,596.896,395.31z" />
		<path style="fill:#3C3C3B;" d="M594.433,386.814c-0.594,0.236-1.003,0.777-0.822,1.448c0.137,0.507,0.571,1.036,1.088,1.318    c0.137,0.568,0.437,1.102,0.862,1.475c0.816,0.717,1.914,0.383,2.287-0.604C598.586,388.496,596.512,385.988,594.433,386.814z" />
		<path style="fill:#3C3C3B;" d="M604.542,384.971c-0.295-1.371-2.184-1.955-3.13-0.838c-0.145,0.171-0.227,0.352-0.268,0.532    c-0.011,0.018-0.026,0.032-0.037,0.05c-0.408,0.697-0.201,1.566,0.375,2.092c0.29,0.265,0.697,0.435,1.093,0.435    c0.372-0.06,0.446-0.067,0.224-0.019c0.112-0.015,0.224-0.03,0.336-0.045c0.175-0.044,0.359-0.117,0.517-0.206    C604.33,386.587,604.705,385.727,604.542,384.971z" />
		<path style="fill:#3C3C3B;" d="M601.956,376.446c-1.066-0.359-2.145,0.259-2.828,1.051c-0.522,0.605,0.003,1.621,0.717,1.49    c0.155,0.437,0.464,0.841,0.865,1.075c1.034,0.604,2.405,0.098,2.691-1.098C603.653,377.903,602.974,376.788,601.956,376.446z" />
		<path style="fill:#3C3C3B;" d="M609.68,367.984c-0.249-0.827-1.13-1.222-1.941-1.054c-0.793,0.163-1.33,0.765-1.778,1.397    c-0.555,0.781,0.34,1.558,1.102,1.378c0.031,0.048,0.054,0.098,0.09,0.143c0.513,0.659,1.564,0.519,2.099-0.021    C609.71,369.362,609.866,368.601,609.68,367.984z" />
	</g>
	</svg>