<?xml version='1.0' encoding='utf-8'?>
<svg xmlns="http://www.w3.org/2000/svg" version="1.1" xmlns="http://www.w3.org/2000/svg" viewBox="0 0 800 800" style="enable-background:new 0 0 800 800;"><g>
		<path style="fill:#3C3C3B;" d="M424.582,85.613c-30.003-17.105-77.951-1.021-77.023,38.037    c0.413,17.388,14.078,33.054,31.562,34.362c0.081,4.756,0.202,9.516,0.638,14.253c-4.134,0.225-6.153,4.674-4.486,8.397    c0.318,0.71,0.709,1.326,1.152,1.873c-2.074,2.696-2.259,6.4-0.084,9.318c0.197,0.264,0.412,0.501,0.632,0.733    c-1.78,4.341-2.891,9.668,1.588,12.832c2.05,1.448,4.658,1.669,7.083,1.78c4.74,0.216,9.542-0.02,14.286-0.038    c5.482-0.021,11.615,0.415,15.217-4.529c2.463-3.381,2.885-7.766,0.44-11.107c2.271-2.882,1.583-6.903-0.609-10.144    c1.587-2.945,1.63-6.623-0.136-9.619c-0.191-0.324-0.434-0.528-0.697-0.639c0.407-5.402,0.815-10.803,1.217-16.206    c15.263-0.193,28.471-12.212,30.892-27.272C449.009,110.515,439.269,93.986,424.582,85.613z M380.337,173.787    c0.367,0.237,0.85,0.25,1.225,0.027c5.114,3.016,10.873,4.538,16.821,4.545c4.12,0.005,10.475-0.111,13.271-3.6    c0.362,0.034,0.738-0.025,1.083-0.162c0.852,3.332-0.613,7.139-4.127,8.325c-3.075,1.038-7.417,0.4-10.584,0.433    c-3.445,0.037-6.91,0.184-10.354,0.102c-2.272-0.055-4.637-0.091-6.716-1.158C377.755,180.656,375.754,175.657,380.337,173.787z     M389.823,146.932c-1.691-7.054-4.1-14.733-7.677-21.352c4.924-6.117,13.841-6.989,22.431-4.56    c1.143,0.323,2.575,0.808,4.129,1.273c-6.753,16.595-10.117,34.706-8.885,52.549c-1.954-0.014-3.719-0.138-4.722-0.208    c-1.051-0.073-2.087-0.195-3.113-0.352C393.031,165.172,391.951,155.813,389.823,146.932z M377.955,183.99    c3.567,2.626,9.043,2.505,13.255,2.49c4.977-0.019,10.078,0.271,15.041-0.089c2.146-0.156,4.131-0.485,5.917-1.781    c0.324-0.235,0.622-0.492,0.908-0.76c1.909,5.842-1.748,7.731-6.952,8.25c-3.729,0.372-7.498,0.485-11.243,0.571    C389.046,192.805,374.164,193.245,377.955,183.99z M409.397,203.061c-3.569,1.548-8.63,0.852-12.457,0.871    c-3.747,0.019-7.558,0.261-11.297,0.04c-2.64-0.156-5.584-0.925-6.97-3.554c-0.872-1.653-0.409-4.41-0.026-6.468    c4.254,2.672,10.759,1.984,15.297,1.915c5.765-0.088,13.891,0.612,19.225-2.351C414.941,197.241,413.281,201.376,409.397,203.061z     M413.481,150.813c-1.157-0.064-1.962,0.988-2.038,2.038c-0.461,6.337-0.91,12.674-1.363,19.012    c-0.334,0.039-0.647,0.217-0.834,0.555c-0.932,1.687-4.133,2.253-7.341,2.389c0.417-17.965,3.553-35.222,10.164-51.638    c4.574,0.967,9.204,0.792,10.321-4.459c0.342-1.607-1.625-2.339-2.554-1.077c-1.578,2.142-3.901,2.662-6.47,2.443    c1.319-3.049,2.746-6.073,4.317-9.061c0.993-1.889-1.846-3.563-2.869-1.677c-1.78,3.283-3.411,6.661-4.908,10.104    c-3.074-0.798-6.187-2.065-8.597-2.493c-4.288-0.761-8.843-0.925-12.997,0.563c-3.091,1.107-5.717,3.036-7.658,5.484    c-0.432-0.697-0.861-1.399-1.324-2.062c-0.802-1.148-3.083-0.472-2.458,1.036c0.588,1.417,1.189,2.816,1.793,4.21    c-1.069,2.243-1.647,4.741-1.602,7.354c0.016,0.884,1.445,1.158,1.606,0.217c0.287-1.68,0.731-3.19,1.31-4.54    c2.507,5.769,4.937,11.498,6.542,17.731c2.295,8.914,3.135,17.935,3.897,27.067c-2.786-0.536-5.502-1.34-8.211-2.3    c0.381-5.119,0.415-10.259,0.436-15.39c0.004-1.002-0.819-1.718-1.775-1.775c-14.534-0.87-26.79-12.323-29.06-26.657    c-2.436-15.384,6.072-30.858,19.132-38.753c25.852-15.628,68.697-3.841,71.758,29.69    C444.244,135.773,431.036,151.778,413.481,150.813z" />
		<path style="fill:#3C3C3B;" d="M359.603,159.706c-2.293,1.212-4.437,2.688-6.587,4.134c-1.877,1.262-4.016,2.355-5.371,4.194    c-0.76,1.032,0.496,2.462,1.628,2.117c2.271-0.692,4.205-2.598,6.089-4.009c1.944-1.456,3.906-2.907,5.689-4.56    C362.077,160.634,360.772,159.088,359.603,159.706z" />
		<path style="fill:#3C3C3B;" d="M333.629,130.451c-1.792-0.153-3.477-0.164-5.25,0.173c-0.867,0.165-1.712,0.386-2.544,0.683    c-0.332,0.118-1.188,0.598-1.85,0.844c-0.111-0.07-0.23-0.122-0.36-0.141c-1.15-0.167-2.23,0.227-2.491,1.466    c-0.151,0.714,0.091,1.577,0.788,1.936c1.733,0.89,2.898-0.063,4.483-0.822c2.221-1.063,4.778-1.791,7.224-2.064    C334.947,132.378,334.977,130.566,333.629,130.451z" />
		<path style="fill:#3C3C3B;" d="M348.224,86.498c-1.855-0.916-3.712-1.82-5.493-2.874c-1.604-0.95-3.229-2.543-5.077-2.88    c-1.068-0.195-2.185,0.903-1.509,1.963c1.112,1.741,3.314,2.551,5.129,3.411c1.977,0.937,4.003,1.776,6.104,2.389    C348.548,88.848,349.36,87.059,348.224,86.498z" />
		<path style="fill:#3C3C3B;" d="M390.417,51.841c-0.234-1.308-1.973-1.002-2.356,0c-1.374,3.597-0.544,8.629-0.126,12.361    c0.152,1.359,2.187,1.438,2.18,0c-0.011-2.165,0.061-4.324,0.182-6.486C390.406,55.758,390.762,53.776,390.417,51.841z" />
		<path style="fill:#3C3C3B;" d="M439.688,61.187c-1.629,0.853-2.749,2.866-3.598,4.436c-0.943,1.743-1.795,3.679-2.098,5.647    c-0.158,1.025,1.365,1.945,1.863,0.786c0.715-1.664,1.327-3.336,2.27-4.893c0.92-1.52,2.416-2.813,3.113-4.424    C441.678,61.726,440.762,60.625,439.688,61.187z" />
		<path style="fill:#3C3C3B;" d="M467.267,95.605c-1.695,0.381-3.138,1.605-4.776,2.222c-1.777,0.669-3.635,1.037-5.521,1.23    c-1.532,0.157-1.606,2.425,0,2.443c3.67,0.041,9.416-0.86,11.726-4.036C469.392,96.508,468.247,95.385,467.267,95.605z" />
		<path style="fill:#3C3C3B;" d="M464.007,144.154c-1.714-0.695-3.765-0.704-5.598-0.934c-2.036-0.255-4.075-0.478-6.114-0.706    c-1.191-0.133-1.444,1.835-0.283,2.089c2.01,0.44,4.018,0.887,6.033,1.3c1.832,0.376,3.731,1.004,5.603,0.892    C465.231,146.701,465.391,144.715,464.007,144.154z" />
		<path style="fill:#3C3C3B;" d="M440.735,170.883c-0.443-1.022-1.342-1.566-2.15-2.305c-0.852-0.779-1.669-1.597-2.446-2.451    c-1.111-1.219-2.424-3.747-4.122-4.065c-0.211-0.04-0.424,0.057-0.486,0.276c-0.523,1.843,1.633,4.152,2.671,5.493    c1.294,1.672,3,4.316,5.124,4.884C440.471,173.023,441.148,171.837,440.735,170.883z" />
	</g>
</svg>