<?xml version='1.0' encoding='utf-8'?>
<svg xmlns="http://www.w3.org/2000/svg" version="1.1" xmlns="http://www.w3.org/2000/svg" viewBox="0 0 800 800" style="enable-background:new 0 0 800 800;"><g>
		<path style="fill:#3C3C3B;" d="M202.995,271.755c-8.163-4.916-18.285-4.676-26.396-0.224    c-0.429-24.116-21.242-42.123-44.636-44.872c-23.514-2.764-49.782,9.885-54.271,34.355c-6.314-4.632-15.289-4.451-22.187-0.633    c-8.866,4.908-14.809,15.029-16.66,24.782c-2.017,10.626,1.198,20.995,9.748,27.805c9.093,7.243,20.784,8.899,32.071,9.221    c29.437,0.841,59.039,0.415,88.488,0.252c17.643-0.098,42.223-3.266,45.38-24.832    C215.989,287.649,211.766,277.037,202.995,271.755z M209.797,299.086c-4.54,17.978-27.056,18.985-42.05,19.016    c-22.231,0.045-44.463-0.044-66.694-0.038c-17.883,0.005-45.163,3.416-55.709-15.134C39.5,292.652,43.312,279,50.5,270.363    c6.835-8.212,18.854-11.914,27.469-4.016c0.93,0.853,2.016,0.594,2.633-0.103c0.336-0.243,0.586-0.604,0.656-1.11    c3.372-24.297,27.529-36.79,50.407-34.044c22.567,2.708,42.278,20.702,40.393,44.58c-0.168,2.124,2.439,2.638,3.781,1.566    c7.346-5.868,18.356-6.355,26.109-0.92C209.006,281.264,211.867,290.888,209.797,299.086z" />
		<path style="fill:#3C3C3B;" d="M150.239,277.178c-2.722-0.057-5.452-0.014-8.174,0.095c-0.2-7.338-0.034-14.682-0.371-22.016    c-0.004-0.076-0.032-0.13-0.045-0.199c0.195-0.831-0.393-1.914-1.413-1.998c-5.712-0.471-11.623-0.081-17.358-0.056    c-1.12,0.005-1.585,1.473-0.956,2.163c-0.089,0.367-0.154,0.741-0.212,1.118c-0.307,0.225-0.419,0.709-0.123,1.047    c-0.257,2.842,0.117,5.862,0.071,8.649c-0.059,3.57-0.311,7.128-0.416,10.693c-0.122-0.047-0.246-0.087-0.368-0.134    c-0.434-0.167-0.742,0.556-0.318,0.755c0.219,0.103,0.44,0.2,0.66,0.302c-0.004,0.191-0.014,0.382-0.017,0.573    c-1.311-0.695-2.662-1.284-4.159-1.467c-1.876-0.23-4.37-0.398-5.766,1.054c-0.23,0.239-0.346,0.503-0.386,0.768    c-0.245,0.33-0.33,0.764-0.065,1.165c2.978,4.51,6.017,8.975,9.061,13.439c-0.026,0.177,0.049,0.366,0.275,0.436    c0.009,0.003,0.019,0.006,0.028,0.009c0.476,0.698,0.95,1.397,1.427,2.095c1.537,2.253,4.153,8.538,7.69,7.846    c1.49-0.292,2.727-1.875,3.753-2.834c2.215-2.071,4.381-4.195,6.479-6.384c4.087-4.263,7.933-8.78,11.407-13.557    c0.255-0.351,0.312-0.722,0.243-1.07C151.988,278.904,151.678,277.208,150.239,277.178z M139.158,256.196    c-0.096,0.786-0.165,1.574-0.238,2.362c-1.922-0.848-3.994-1.505-6.087-2.043C134.962,256.554,137.084,256.47,139.158,256.196z     M127.181,256.139c0.056,0.087,0.143,0.161,0.278,0.195c4.053,1.023,7.514,2.681,11.282,4.362c-0.059,0.83-0.119,1.66-0.16,2.491    c-4.61-1.553-9.029-3.117-13.313-5.339c-0.098-0.675-0.221-1.343-0.408-1.994C125.628,255.961,126.403,256.054,127.181,256.139z     M138.431,275.377c0.007,0.457,0.013,0.913,0.022,1.37c-4.403-1.658-9.031-3.002-13.296-4.474c0.076-0.965,0.13-1.933,0.174-2.903    C129.464,271.83,133.848,273.942,138.431,275.377z M125.38,267.809c0.018-0.609,0.042-1.217,0.05-1.828    c0.009-0.633,0.027-1.276,0.044-1.923c3.841,2.039,7.802,3.865,11.864,5.412c0.539,0.205,0.925-0.108,1.063-0.532    c-0.014,1.438-0.012,2.877,0.002,4.315C133.91,271.71,129.579,270.01,125.38,267.809z M138.416,268.336    c-0.071-0.279-0.246-0.535-0.582-0.662c-4.176-1.582-8.275-3.291-12.326-5.155c0.013-0.886-0.003-1.773-0.049-2.654    c4.051,2.418,8.47,4.417,13.029,5.374C138.454,266.271,138.43,267.303,138.416,268.336z M129.797,298.709    c-1.45,0.248-3.189-1.478-4.788-3.565c2.291,0.751,4.605,1.464,6.939,1.952C131.142,297.936,130.356,298.614,129.797,298.709z     M133.068,295.855c-2.967-1.042-6.123-1.694-9.237-2.334c-0.727-1.05-1.396-2.088-1.957-2.933    c4.016,1.461,8.065,2.848,12.124,4.168C133.71,295.098,133.399,295.47,133.068,295.855z M135.371,293.215    c-4.878-1.562-9.809-3.027-14.754-4.386c-0.794-1.052-1.605-2.089-2.405-3.136c6.119,2.203,12.337,4.146,18.549,6.061    C136.297,292.24,135.839,292.733,135.371,293.215z M138.755,289.661c-0.153,0.164-0.311,0.324-0.464,0.488    c-7.082-2.184-14.187-4.365-21.382-6.156c-0.705-0.917-1.407-1.836-2.112-2.753c8.035,2.89,16.198,5.5,24.376,7.956    C139.031,289.349,138.897,289.508,138.755,289.661z M140.65,287.551c-8.271-2.655-16.623-5.175-25.029-7.385    c0.365-0.041,0.726-0.074,1.076-0.074c1.848,0.002,3.614-0.058,5.397,0.495c0.013,0.004,0.024,0,0.037,0.004    c0.771,0.3,1.76,0.05,1.979-0.945c0.05-0.228,0.09-0.457,0.137-0.685c5.963,2.599,12.07,4.745,18.404,6.33    C141.985,286.046,141.323,286.803,140.65,287.551z M143.984,283.784c-0.055-0.026-0.098-0.062-0.164-0.079    c-6.548-1.655-13.006-3.577-19.356-5.855c0.258-1.446,0.432-2.9,0.574-4.357c6.468,3.048,13.447,6.947,20.297,8.724    C144.885,282.738,144.438,283.264,143.984,283.784z M146.733,280.595c-0.322-0.191-0.652-0.375-0.983-0.558    c0.483,0.006,0.966,0.015,1.449,0.017C147.045,280.235,146.888,280.414,146.733,280.595z" />
	</g>
	</svg>