<?xml version='1.0' encoding='utf-8'?>
<svg xmlns="http://www.w3.org/2000/svg" version="1.1" xmlns="http://www.w3.org/2000/svg" viewBox="0 0 800 800" style="enable-background:new 0 0 800 800;"><g>
		<path style="fill:#3C3C3B;" d="M468.024,712.128c-24.44,0.882-48.898,1.139-73.35,0.718c-20.348-0.35-40.682-1.839-61.018-2.444    c0.412-16.253,0.489-32.527,0.594-48.775c0.131-20.224,1.021-40.831-0.626-61c-0.172-2.106-3.193-2.145-3.305,0    c-1.057,20.24,0.069,40.729,0.02,61c-0.04,16.225-0.37,32.443-0.607,48.664c-2.78-0.066-5.559-0.118-8.339-0.14    c-2.02-0.016-1.874,2.79,0,3.041c2.755,0.369,5.519,0.694,8.289,0.988c-0.038,2.814-0.082,5.628-0.11,8.442    c-0.024,2.394,3.62,2.38,3.709,0c0.1-2.685,0.188-5.37,0.266-8.057c20.269,1.918,40.86,2.1,61.127,2.463    c24.452,0.438,48.91,0.2,73.35-0.664C470.743,716.268,470.755,712.029,468.024,712.128z" />
		<path style="fill:#3C3C3B;" d="M448.1,625.021c-0.246-2.682-4.47-2.706-4.219,0c1.177,12.712,1.354,25.487,0.354,38.219    c-0.485,6.173-1.226,12.324-2.245,18.432c-0.82,4.914-1.638,14.328-8.258,14.66c-13.014,0.653-12.216-26.299-13.349-34.51    c-0.885-6.415-2.363-19.256-10.575-20.873c-7.781-1.532-11.595,10.276-13.082,15.863c-2.643,9.925-2.211,20.351-4.211,30.386    c-0.258,1.295-0.681,5.341-3.384,4.29c-0.716-0.279-1.541-2.331-1.958-3.202c-1.125-2.352-1.862-4.925-2.49-7.45    c-1.152-4.632-1.758-9.376-2.468-14.089c-1.269-8.419-2.867-17.228-8.4-24.013c-2.552-3.129-6.352-6.455-10.695-4.884    c-3.807,1.377-6.149,5.976-7.836,9.329c-5.094,10.129-6.863,22.015-6.776,33.257c0.011,1.435,2.261,1.832,2.572,0.348    c2.28-10.855,2.869-22.23,8.135-32.231c0.496-0.942,1.025-1.885,1.599-2.78c1.796-2.8,1.627-3.071,5.229-2.568    c3.708,0.518,4.978,2.276,6.771,5.369c2.42,4.177,3.59,8.965,4.469,13.67c1.681,8.999,2.119,18.345,5.724,26.874    c2.41,5.702,9.428,11.201,12.663,2.775c3.567-9.292,2.338-20.541,4.178-30.231c0.837-4.405,2.126-11.176,5.503-14.438    c0.399-0.487,0.799-0.974,1.198-1.461c1.584,0.221,3.167,0.443,4.751,0.664c1.348,0.826,2.101,3.346,2.609,4.739    c1.104,3.031,1.724,6.263,2.238,9.441c1.683,10.406,0.798,22.543,5.907,32.086c3.385,6.322,11.819,10.715,18.022,5.318    c3.276-2.85,4.461-7.381,5.271-11.463c1.275-6.424,2.113-12.98,2.741-19.497C449.438,653.067,449.384,639.008,448.1,625.021z" />
	</g>
	</svg>